<?xml version="1.0" encoding="utf-8"?>
<!--
  ~ Copyright (C) 2020 Robert Bosch GmbH Copyright (C) 2020 Robert Bosch Manufacturing Solutions GmbH, Germany. All rights reserved.
  -->
<!-- Generator: Adobe Illustrator 22.1.0, SVG Export Plug-In . SVG Version: 6.00 Build 0)  -->
<svg version="1.1" id="Ebene_1" xmlns="http://www.w3.org/2000/svg" xmlns:xlink="http://www.w3.org/1999/xlink" x="0px" y="0px"
	 viewBox="0 0 224 64" style="enable-background:new 0 0 224 64;" xml:space="preserve">
<style type="text/css">
	.st0{fill:none;stroke:#EFEFF0;stroke-width:2;stroke-miterlimit:10;}
	.st1{fill:#231F20;}
	.st2{fill:#EFEFF0;}
	.st3{fill:none;stroke:#EFEFF0;stroke-miterlimit:10;}
</style>
<title>img-table</title>
<line class="st0" x1="11.6" y1="25.7" x2="212.4" y2="25.7"/>
<g>
	<path class="st1" d="M48.1,10.9H49V17h-0.9V10.9z"/>
	<path class="st1" d="M50.3,12.5H51v-1.1l0.9-0.3v1.3H53v0.7h-1.1v2.5c0,0.4,0.2,0.6,0.5,0.6c0.2,0,0.4-0.1,0.6-0.2l0.3,0.6
		c-0.3,0.2-0.6,0.3-1,0.3s-0.7-0.1-1-0.4C51.1,16.3,51,16,51,15.7v-2.6h-0.7V12.5z"/>
	<path class="st1" d="M55.8,17.1c-0.6,0-1.2-0.2-1.7-0.7c-0.4-0.4-0.5-1-0.5-1.6c0-0.7,0.2-1.3,0.7-1.8c0.4-0.4,0.9-0.6,1.4-0.6
		c0.6,0,1.1,0.2,1.5,0.7c0.3,0.5,0.5,1,0.5,1.6V15h-3.2c0,0.2,0.1,0.5,0.2,0.7c0.1,0.2,0.2,0.3,0.3,0.5c0.2,0.2,0.5,0.3,0.8,0.3
		c0.2,0,0.5,0,0.7-0.1s0.4-0.3,0.5-0.5l0.6,0.5C57.2,16.8,56.5,17.1,55.8,17.1z M54.6,14.3h2.2c0-0.3-0.1-0.7-0.4-0.9
		c-0.2-0.2-0.5-0.3-0.7-0.2C55.1,13.1,54.7,13.5,54.6,14.3z"/>
	<path class="st1" d="M59.8,13.2c0.2-0.5,0.7-0.8,1.2-0.8s1,0.3,1.2,0.8c0.3-0.5,0.8-0.8,1.4-0.8c0.4,0,0.8,0.2,1.1,0.5
		c0.2,0.4,0.3,0.8,0.3,1.2V17h-0.9v-2.8c0-0.3,0-0.6-0.2-0.8c-0.1-0.2-0.3-0.2-0.5-0.2c-0.3,0-0.6,0.1-0.8,0.3s-0.2,0.5-0.2,0.8V17
		h-0.9v-2.8c0-0.7-0.3-1-0.8-1c-0.3,0-0.6,0.1-0.7,0.3c-0.2,0.2-0.2,0.5-0.2,0.8V17h-0.9v-4.5h0.9L59.8,13.2z"/>
	<path class="st1" d="M71.6,10.8h0.6V17h-0.9v-4.8c-0.5,0.2-1.1,0.3-1.7,0.3l-0.1-0.6C70.3,11.9,71.1,11.5,71.6,10.8z"/>
</g>
<g>
	<path class="st1" d="M102.8,10.9h0.9V17h-0.9V10.9z"/>
	<path class="st1" d="M105,12.5h0.7v-1.1l0.9-0.3v1.3h1.1v0.7h-1.1v2.5c0,0.4,0.2,0.6,0.5,0.6c0.2,0,0.4-0.1,0.6-0.2l0.3,0.6
		c-0.3,0.2-0.6,0.3-1,0.3s-0.7-0.1-1-0.4c-0.2-0.2-0.3-0.5-0.3-0.8v-2.6H105V12.5z"/>
	<path class="st1" d="M110.5,17.1c-0.6,0-1.2-0.2-1.7-0.7c-0.4-0.4-0.5-1-0.5-1.6c0-0.7,0.2-1.3,0.7-1.8c0.4-0.4,0.9-0.6,1.4-0.6
		c0.6,0,1.1,0.2,1.5,0.7c0.3,0.5,0.5,1,0.4,1.6V15h-3.2c0,0.2,0.1,0.5,0.2,0.7s0.2,0.3,0.3,0.5c0.2,0.2,0.5,0.3,0.8,0.3
		c0.2,0,0.5,0,0.7-0.1s0.4-0.3,0.5-0.5l0.6,0.5C111.9,16.8,111.2,17.1,110.5,17.1z M109.3,14.3h2.2c0-0.3-0.1-0.7-0.4-0.9
		c-0.2-0.2-0.5-0.3-0.7-0.2C109.8,13.1,109.4,13.5,109.3,14.3L109.3,14.3z"/>
	<path class="st1" d="M114.5,13.2c0.2-0.5,0.7-0.8,1.2-0.8s1,0.3,1.2,0.8c0.3-0.5,0.8-0.8,1.4-0.8c0.4,0,0.8,0.2,1.1,0.5
		c0.2,0.4,0.3,0.8,0.3,1.2V17h-0.9v-2.8c0-0.3,0-0.6-0.2-0.8c-0.1-0.2-0.3-0.2-0.5-0.2c-0.3,0-0.6,0.1-0.8,0.3
		c-0.2,0.2-0.2,0.5-0.2,0.8V17h-0.9v-2.8c0-0.7-0.3-1-0.8-1c-0.3,0-0.6,0.1-0.7,0.3c-0.2,0.2-0.2,0.5-0.2,0.8V17h-0.9v-4.5h0.9V13.2
		z"/>
	<path class="st1" d="M123.9,16.2c0.9-0.6,1.7-1.3,2.5-2.1c0.4-0.4,0.6-1,0.6-1.5c0-0.3-0.1-0.6-0.3-0.8c-0.2-0.2-0.4-0.3-0.7-0.3
		c-0.3,0-0.5,0.1-0.7,0.3s-0.4,0.5-0.4,0.8l-0.8-0.2c0.1-0.5,0.4-1,0.8-1.3s0.8-0.4,1.3-0.4s1.1,0.2,1.5,0.6
		c0.3,0.3,0.5,0.8,0.5,1.3c-0.1,0.9-0.5,1.8-1.2,2.4c-0.2,0.2-0.4,0.4-0.6,0.6c-0.2,0.2-0.5,0.4-1,0.7h2.9V17h-4L123.9,16.2z"/>
</g>
<g>
	<path class="st1" d="M156.8,10.9h0.9V17h-0.9V10.9z"/>
	<path class="st1" d="M159,12.5h0.7v-1.1l0.9-0.3v1.3h1.1v0.7h-1.1v2.5c0,0.4,0.2,0.6,0.5,0.6c0.2,0,0.4-0.1,0.6-0.2l0.3,0.6
		c-0.3,0.2-0.6,0.3-1,0.3s-0.7-0.1-1-0.4c-0.2-0.2-0.3-0.5-0.3-0.8v-2.6H159V12.5z"/>
	<path class="st1" d="M164.5,17.1c-0.6,0-1.2-0.2-1.6-0.7c-0.4-0.4-0.5-1-0.5-1.6c0-0.7,0.2-1.3,0.7-1.8c0.4-0.4,0.9-0.6,1.4-0.6
		c0.6,0,1.1,0.2,1.5,0.7c0.3,0.5,0.5,1,0.5,1.6V15h-3.2c0,0.2,0.1,0.5,0.1,0.7c0.1,0.2,0.2,0.3,0.3,0.5c0.2,0.2,0.5,0.3,0.9,0.3
		c0.2,0,0.5,0,0.7-0.1s0.4-0.3,0.5-0.5l0.6,0.5C165.9,16.9,165.2,17.1,164.5,17.1z M163.3,14.3h2.2c0-0.3-0.1-0.7-0.4-0.9
		c-0.2-0.2-0.5-0.3-0.7-0.2C163.8,13.1,163.4,13.5,163.3,14.3L163.3,14.3z"/>
	<path class="st1" d="M168.5,13.2c0.2-0.5,0.7-0.8,1.2-0.8s1,0.3,1.2,0.8c0.3-0.5,0.8-0.8,1.4-0.8c0.4,0,0.8,0.2,1.1,0.5
		c0.2,0.4,0.3,0.8,0.3,1.2V17h-0.9v-2.8c0-0.3,0-0.6-0.2-0.8c-0.1-0.2-0.3-0.2-0.6-0.2s-0.6,0.1-0.8,0.3S171,14,171,14.3V17h-0.9
		v-2.8c0-0.7-0.3-1-0.8-1c-0.3,0-0.6,0.1-0.7,0.3c-0.2,0.2-0.2,0.5-0.2,0.8V17h-0.9v-4.5h0.9L168.5,13.2z"/>
	<path class="st1" d="M177.9,12.3c0.1-0.4,0.4-0.8,0.7-1.1c0.4-0.3,0.9-0.4,1.4-0.4s1,0.2,1.4,0.5c0.3,0.3,0.5,0.7,0.5,1.1
		c0,0.6-0.4,1.1-1,1.3c0.7,0.2,1.2,0.8,1.2,1.5c0,0.5-0.2,1.1-0.7,1.4c-1,0.6-2.2,0.6-3.1-0.1c-0.2-0.1-0.3-0.3-0.4-0.5
		c-0.1-0.2-0.2-0.4-0.2-0.6l0.8-0.2c0.1,0.7,0.8,1.2,1.5,1.1c0.3,0,0.7-0.1,0.9-0.3c0.4-0.5,0.4-1.2-0.1-1.6
		c-0.3-0.2-0.6-0.3-0.9-0.3h-0.6v-0.7h0.6c0.3,0,0.7-0.1,0.9-0.3s0.3-0.4,0.3-0.7s-0.1-0.6-0.3-0.7c-0.2-0.2-0.5-0.2-0.7-0.2
		c-0.3,0-0.6,0.1-0.8,0.2c-0.2,0.2-0.4,0.5-0.5,0.8L177.9,12.3z"/>
</g>
<circle class="st2" cx="27.3" cy="37.3" r="4.3"/>
<circle class="st2" cx="27.3" cy="58.6" r="4.3"/>
<circle class="st2" cx="27.3" cy="13.9" r="4.3"/>
<rect x="48" y="33.8" class="st2" width="32" height="7.1"/>
<rect x="101.8" y="33.8" class="st2" width="22.7" height="7.1"/>
<rect x="155.1" y="33.8" class="st2" width="41.2" height="7.1"/>
<rect x="48" y="55.1" class="st2" width="23.4" height="7.1"/>
<rect x="101.8" y="55.1" class="st2" width="32" height="7.1"/>
<rect x="155.1" y="55.1" class="st2" width="32" height="7.1"/>
<line class="st3" x1="11.6" y1="1.5" x2="212.4" y2="1.5"/>
</svg>
