<?xml version="1.0" encoding="utf-8"?>
<!--
  ~ Copyright (C) 2020 Robert Bosch GmbH Copyright (C) 2020 Robert Bosch Manufacturing Solutions GmbH, Germany. All rights reserved.
  -->
<!-- Generator: Adobe Illustrator 21.0.0, SVG Export Plug-In . SVG Version: 6.00 Build 0)  -->
<svg version="1.1" id="Ebene_1" xmlns="http://www.w3.org/2000/svg" xmlns:xlink="http://www.w3.org/1999/xlink" x="0px" y="0px"
	 viewBox="0 0 224 64" style="enable-background:new 0 0 224 64;" xml:space="preserve">
<style type="text/css">
	.st0{fill:none;stroke:#EFEFF0;stroke-miterlimit:10;}
	.st1{fill:none;stroke:#EFEFF0;stroke-width:2;stroke-miterlimit:10;}
	.st2{fill:#231F20;}
	.st3{fill:#EFEFF0;}
	.st4{fill:#231F20;fill-opacity:0;}
</style>
<title>img-commandbar</title>
<line class="st0" x1="15.1" y1="49" x2="208.9" y2="49"/>
<line class="st0" x1="15.1" y1="0.9" x2="208.9" y2="0.9"/>
<line class="st1" x1="15.1" y1="25.6" x2="208.9" y2="25.6"/>
<g>
	<path class="st2" d="M21.2,16.2c0.9-0.6,1.7-1.2,2.4-2c0.4-0.4,0.6-0.9,0.6-1.5c0-0.3-0.1-0.6-0.3-0.8c-0.2-0.2-0.4-0.3-0.7-0.3
		c-0.3,0-0.5,0.1-0.7,0.3c-0.2,0.2-0.4,0.5-0.4,0.8l-0.8-0.2c0.1-0.5,0.3-0.9,0.7-1.2c0.4-0.2,0.8-0.4,1.2-0.4c0.5,0,1,0.2,1.4,0.6
		c0.3,0.3,0.5,0.8,0.4,1.2c-0.1,0.9-0.5,1.7-1.2,2.3c-0.2,0.2-0.4,0.4-0.6,0.5c-0.2,0.2-0.5,0.4-1,0.7H25v0.7h-3.9V16.2z"/>
	<path class="st2" d="M30.8,12.6c0.6,0,1.2,0.2,1.5,0.7c0.3,0.4,0.5,1,0.5,1.5c0,0.6-0.2,1.2-0.7,1.7c-0.4,0.4-0.9,0.6-1.4,0.5
		c-0.6,0-1.2-0.2-1.6-0.7c-0.3-0.4-0.5-1-0.5-1.5c0-0.6,0.2-1.3,0.7-1.7C29.8,12.7,30.3,12.5,30.8,12.6z M30.8,13.2
		c-0.4,0-0.7,0.2-0.9,0.5c-0.2,0.3-0.3,0.7-0.3,1.1c0,0.4,0.1,0.9,0.3,1.2c0.4,0.5,1.2,0.5,1.6,0c0,0,0.1-0.1,0.1-0.1
		c0.2-0.3,0.3-0.7,0.3-1.1c0-0.4-0.1-0.9-0.4-1.2C31.4,13.4,31.1,13.2,30.8,13.2L30.8,13.2z"/>
	<path class="st2" d="M33.6,12.6h0.6v-0.6c0-0.4,0.1-0.8,0.4-1.1c0.3-0.2,0.6-0.3,0.9-0.3c0.3,0,0.6,0.1,0.8,0.2l-0.2,0.6
		c-0.2-0.1-0.3-0.1-0.5-0.1c-0.2,0-0.3,0.1-0.4,0.2c-0.1,0.1-0.2,0.3-0.2,0.5v0.6h0.9v0.7h-0.9v3.6h-0.9v-3.6h-0.6L33.6,12.6z"/>
	<path class="st2" d="M41.9,10.9h0.5v6h-0.9v-4.6c-0.5,0.2-1.1,0.3-1.6,0.3L39.9,12C40.7,12,41.4,11.6,41.9,10.9z"/>
	<path class="st2" d="M44.7,12.4c0.2-0.9,1.1-1.5,2-1.5c0.5,0,1,0.2,1.4,0.5c0.3,0.3,0.5,0.7,0.5,1.1c0,0.6-0.4,1.1-0.9,1.3
		c0.7,0.1,1.1,0.8,1.1,1.4c0,0.5-0.2,1-0.7,1.3c-0.9,0.6-2.1,0.5-3-0.1c-0.2-0.1-0.3-0.3-0.4-0.5c-0.1-0.2-0.2-0.4-0.2-0.6l0.8-0.2
		c0.1,0.7,0.7,1.2,1.4,1.1c0.3,0,0.7-0.1,0.9-0.3c0.4-0.5,0.3-1.1-0.1-1.5c-0.3-0.2-0.6-0.3-0.9-0.2H46v-0.7h0.5
		c0.3,0,0.6-0.1,0.9-0.3c0.2-0.2,0.3-0.4,0.3-0.6c0-0.3-0.1-0.5-0.3-0.7c-0.2-0.2-0.4-0.2-0.7-0.2c-0.3,0-0.5,0.1-0.8,0.2
		c-0.2,0.2-0.4,0.4-0.5,0.7L44.7,12.4z"/>
</g>
<circle class="st3" cx="30.3" cy="37.5" r="4.1"/>
<circle class="st3" cx="30.3" cy="59.5" r="4.1"/>
<circle class="st3" cx="30.3" cy="37.5" r="4.1"/>
<rect x="50.2" y="34" class="st3" width="30.9" height="6.9"/>
<rect x="50.2" y="56" class="st3" width="30.9" height="6.9"/>
<rect x="102.3" y="34" class="st3" width="21.9" height="6.9"/>
<rect x="75.4" y="8.7" class="st3" width="21.9" height="9.6"/>
<rect x="102.3" y="56" class="st3" width="21.9" height="6.9"/>
<rect x="153.6" y="34" class="st3" width="39.8" height="6.9"/>
<rect x="153.6" y="56" class="st3" width="39.8" height="6.9"/>
<path class="st2" d="M70.3,16.9c0.2,0.2,0.3,0.4,0.3,0.7c0,0.3-0.1,0.5-0.3,0.7c0,0.1-0.1,0.2-0.2,0.2c-0.3,0.1-0.6,0.1-0.8,0
	c-0.2,0-0.3-0.1-0.4-0.2l-3.7-3.7c-0.2,0.1-0.5,0.2-0.7,0.3c-0.7,0.2-1.4,0.1-2.1-0.2c-0.8-0.4-1.4-1-1.8-1.8
	c-0.4-0.8-0.4-1.8,0-2.6c0.4-0.8,1-1.4,1.8-1.8c0.4-0.1,0.9-0.2,1.3-0.2c0.5,0,0.9,0.1,1.3,0.3c0.4,0.2,0.8,0.4,1.1,0.7
	c0.3,0.3,0.5,0.7,0.7,1.1c0.2,0.4,0.3,0.9,0.2,1.3c0,0.3,0,0.5-0.1,0.8c0,0.2-0.1,0.5-0.2,0.7L70.3,16.9z M60.9,11.7
	c0,0.4,0.1,0.7,0.2,1.1c0.2,0.3,0.4,0.6,0.6,0.9l0.9,0.6c0.7,0.3,1.5,0.3,2.2,0c0.7-0.3,1.2-0.8,1.5-1.5c0.1-0.4,0.2-0.7,0.2-1.1
	c0-0.4-0.1-0.7-0.2-1.1c-0.1-0.4-0.3-0.7-0.6-0.9c-0.2-0.3-0.6-0.5-0.9-0.6c-0.7-0.3-1.5-0.3-2.2,0c-0.7,0.3-1.2,0.8-1.5,1.5
	C61,11,60.9,11.4,60.9,11.7z M70,18c0.1,0,0.1-0.1,0.1-0.2v-0.2c0-0.1,0-0.1-0.1-0.2v-0.1l-3.6-3.6L66.1,14
	c-0.1,0.1-0.3,0.3-0.4,0.3l3.6,3.6c0.1,0.1,0.1,0.1,0.2,0.1s0.1,0.1,0.2,0.1h0.2L70,18z"/>
<rect x="59.3" y="7.3" class="st4" width="12.3" height="12.3"/>
<path class="st2" d="M193.3,16.2h0.5v-2.5h2.5v-0.5h-2.5v-2.5h-0.5v2.5h-2.5v0.5h2.5V16.2z"/>
<path class="st2" d="M193.6,19c3,0,5.4-2.5,5.4-5.5c0-3-2.5-5.4-5.5-5.4s-5.4,2.5-5.4,5.5c0,1.4,0.6,2.8,1.6,3.8
	C190.7,18.4,192.1,19,193.6,19z M190,10c2-1.9,5.1-1.9,7,0.1c1.9,1.9,1.9,5,0,6.9c-1.9,1.9-5.1,1.9-7,0l0,0c-1.9-1.8-2-4.9-0.2-6.8
	C189.9,10.1,189.9,10.1,190,10z"/>
</svg>
