<?xml version="1.0" encoding="UTF-8" standalone="no"?>
<!--
  ~ Copyright (C) 2020 Robert Bosch GmbH Copyright (C) 2020 Robert Bosch Manufacturing Solutions GmbH, Germany. All rights reserved.
  -->
<svg
   xmlns:dc="http://purl.org/dc/elements/1.1/"
   xmlns:cc="http://creativecommons.org/ns#"
   xmlns:rdf="http://www.w3.org/1999/02/22-rdf-syntax-ns#"
   xmlns:svg="http://www.w3.org/2000/svg"
   xmlns="http://www.w3.org/2000/svg"
   id="svg162"
   version="1.1"
   viewBox="0 0 224 64">
  <metadata
     id="metadata168">
    <rdf:RDF>
      <cc:Work
         rdf:about="">
        <dc:format>image/svg+xml</dc:format>
        <dc:type
           rdf:resource="http://purl.org/dc/dcmitype/StillImage" />
        <dc:title>img-list</dc:title>
      </cc:Work>
    </rdf:RDF>
  </metadata>
  <defs
     id="defs166" />
  <title
     id="title90">img-list</title>
  <rect
     id="rect92"
     fill="#efeff0"
     height="6.7"
     width="16.5"
     y="28.5"
     x="92.4" />
  <rect
     id="rect94"
     fill="#efeff0"
     height="6.7"
     width="40.2"
     y="55.2"
     x="92.4" />
  <rect
     id="rect96"
     fill="#efeff0"
     height="6.7"
     width="33"
     y="2.6"
     x="92.4" />
  <rect
     id="rect98"
     fill="#efeff0"
     height="6.7"
     width="33"
     y="28.5"
     x="154.4" />
  <rect
     id="rect100"
     fill="#efeff0"
     height="6.7"
     width="40.2"
     y="55.2"
     x="154.4" />
  <rect
     id="rect102"
     fill="#efeff0"
     height="6.7"
     width="40.2"
     y="2.6"
     x="154.4" />
  <line
     id="line104"
     stroke-miterlimit="10"
     stroke="#efeff0"
     fill="none"
     y2="18.5"
     x2="213.4"
     y1="18.5"
     x1="12.7" />
  <line
     id="line106"
     stroke-miterlimit="10"
     stroke="#efeff0"
     fill="none"
     y2="44.7"
     x2="213.4"
     y1="44.7"
     x1="12.7" />
  <path
     id="path108"
     d="M24.91,2.06h.75V7.88h3.2V8.5h-4Z" />
  <path
     id="path110"
     d="M30.57,1.83a.5.5,0,0,1,.49.49.48.48,0,0,1-.15.35.47.47,0,0,1-.35.15.5.5,0,0,1-.5-.5A.47.47,0,0,1,30.22,2,.48.48,0,0,1,30.57,1.83Zm-.36,2H31V8.5h-.75Z" />
  <path
     id="path112"
     d="M34.23,8.58a2.37,2.37,0,0,1-1.95-.91l.54-.44a2,2,0,0,0,.61.57A1.63,1.63,0,0,0,34.2,8,1.34,1.34,0,0,0,35,7.74a.6.6,0,0,0,.24-.51A.57.57,0,0,0,35,6.72a1,1,0,0,0-.27-.14l-.68-.18a2.4,2.4,0,0,1-1.18-.56,1.15,1.15,0,0,1-.3-.83,1.16,1.16,0,0,1,.49-1,1.89,1.89,0,0,1,1.12-.3,2.33,2.33,0,0,1,.91.16,2.17,2.17,0,0,1,.71.53l-.49.5a1.91,1.91,0,0,0-.54-.44,1.36,1.36,0,0,0-.61-.12,1,1,0,0,0-.67.19.56.56,0,0,0-.2.45.54.54,0,0,0,.23.47,3,3,0,0,0,.85.29,5.45,5.45,0,0,1,.79.23,1.57,1.57,0,0,1,.45.29,1.18,1.18,0,0,1,.37.92,1.23,1.23,0,0,1-.54,1.07A2.08,2.08,0,0,1,34.23,8.58Z" />
  <path
     id="path114"
     d="M36.88,3.79h.72V2.57l.75-.18v1.4h1.19v.62H38.34V7.28q0,.67.54.67a1,1,0,0,0,.64-.22l.29.51a1.58,1.58,0,0,1-1,.33,1.24,1.24,0,0,1-.94-.35,1.1,1.1,0,0,1-.29-.8v-3h-.72Z" />
  <path
     id="path116"
     d="M44.24,1.83a.5.5,0,0,1,.49.49.48.48,0,0,1-.15.35.47.47,0,0,1-.35.15.5.5,0,0,1-.5-.5A.47.47,0,0,1,43.89,2,.48.48,0,0,1,44.24,1.83Zm-.36,2h.75V8.5h-.75Z" />
  <path
     id="path118"
     d="M45.91,3.79h.72V2.57l.75-.18v1.4h1.19v.62H47.38V7.28q0,.67.54.67a1,1,0,0,0,.64-.22l.29.51a1.58,1.58,0,0,1-1,.33,1.24,1.24,0,0,1-.94-.35,1.1,1.1,0,0,1-.29-.8v-3h-.72Z" />
  <path
     id="path120"
     d="M51.73,8.58a2.21,2.21,0,0,1-1.8-.76,2.54,2.54,0,0,1-.53-1.67,2.52,2.52,0,0,1,.67-1.85,2,2,0,0,1,1.47-.6,1.83,1.83,0,0,1,1.55.71A2.62,2.62,0,0,1,53.56,6v.24H50.17a2.54,2.54,0,0,0,.13.81,1.36,1.36,0,0,0,.37.54,1.51,1.51,0,0,0,1,.32A1.38,1.38,0,0,0,53,7.31l.55.44A2,2,0,0,1,51.73,8.58ZM50.2,5.69h2.59a1.72,1.72,0,0,0-.4-1.08,1.17,1.17,0,0,0-.84-.28Q50.46,4.33,50.2,5.69Z" />
  <path
     id="path122"
     d="M55.73,4.51a1.42,1.42,0,0,1,1.32-.8,1.34,1.34,0,0,1,1.31.88,1.64,1.64,0,0,1,1.49-.88A1.31,1.31,0,0,1,61,4.26a2.27,2.27,0,0,1,.34,1.31V8.5H60.6v-3a1.38,1.38,0,0,0-.25-.92.81.81,0,0,0-.65-.25,1.09,1.09,0,0,0-.89.39,1.33,1.33,0,0,0-.28.87V8.5h-.75v-3a1.38,1.38,0,0,0-.25-.92.81.81,0,0,0-.65-.25,1.09,1.09,0,0,0-.89.39,1.33,1.33,0,0,0-.28.87V8.5H55V3.79h.75Z" />
  <path
     id="path124"
     d="M68.27,1.94h.49V8.5H68V3.19a2.68,2.68,0,0,1-.79.3,4.29,4.29,0,0,1-1,.13l-.1-.48a3.26,3.26,0,0,0,1.32-.42A2.35,2.35,0,0,0,68.27,1.94Z" />
  <path
     id="path126"
     d="M24.91,28.61h.75v5.81h3.2V35h-4Z" />
  <path
     id="path128"
     d="M30.57,28.38a.5.5,0,0,1,.49.49.48.48,0,0,1-.15.35.47.47,0,0,1-.35.15.5.5,0,0,1-.5-.5.47.47,0,0,1,.15-.35A.48.48,0,0,1,30.57,28.38Zm-.36,2H31V35h-.75Z" />
  <path
     id="path130"
     d="M34.23,35.13a2.37,2.37,0,0,1-1.95-.91l.54-.44a2,2,0,0,0,.61.57,1.62,1.62,0,0,0,.76.16,1.34,1.34,0,0,0,.83-.22.6.6,0,0,0,.24-.5.57.57,0,0,0-.27-.52,1,1,0,0,0-.27-.14L34.06,33a2.4,2.4,0,0,1-1.18-.56,1.28,1.28,0,0,1,.19-1.83,1.89,1.89,0,0,1,1.12-.3,2.33,2.33,0,0,1,.91.16,2.17,2.17,0,0,1,.71.53l-.49.5a1.91,1.91,0,0,0-.54-.44,1.36,1.36,0,0,0-.61-.12,1,1,0,0,0-.67.19.56.56,0,0,0-.2.45.54.54,0,0,0,.23.47,3,3,0,0,0,.85.29,5.45,5.45,0,0,1,.79.23,1.57,1.57,0,0,1,.45.29,1.18,1.18,0,0,1,.37.92,1.23,1.23,0,0,1-.54,1.07A2.08,2.08,0,0,1,34.23,35.13Z" />
  <path
     id="path132"
     d="M36.88,30.34h.72V29.12l.75-.18v1.4h1.19V31H38.34v2.87q0,.67.54.67a1,1,0,0,0,.64-.22l.29.51a1.58,1.58,0,0,1-1,.33,1.24,1.24,0,0,1-.94-.35,1.1,1.1,0,0,1-.29-.8V31h-.72Z" />
  <path
     id="path134"
     d="M44.24,28.38a.5.5,0,0,1,.49.49.48.48,0,0,1-.15.35.47.47,0,0,1-.35.15.5.5,0,0,1-.5-.5.47.47,0,0,1,.15-.35A.48.48,0,0,1,44.24,28.38Zm-.36,2h.75V35h-.75Z" />
  <path
     id="path136"
     d="M45.91,30.34h.72V29.12l.75-.18v1.4h1.19V31H47.38v2.87q0,.67.54.67a1,1,0,0,0,.64-.22l.29.51a1.58,1.58,0,0,1-1,.33,1.24,1.24,0,0,1-.94-.35,1.1,1.1,0,0,1-.29-.8V31h-.72Z" />
  <path
     id="path138"
     d="M51.73,35.13a2.21,2.21,0,0,1-1.8-.76,2.88,2.88,0,0,1,.15-3.51,2,2,0,0,1,1.47-.6,1.83,1.83,0,0,1,1.55.71,2.62,2.62,0,0,1,.47,1.63v.24H50.17a2.54,2.54,0,0,0,.13.81,1.36,1.36,0,0,0,.37.54,1.51,1.51,0,0,0,1,.32A1.38,1.38,0,0,0,53,33.86l.55.44A2,2,0,0,1,51.73,35.13ZM50.2,32.24h2.59a1.72,1.72,0,0,0-.4-1.08,1.17,1.17,0,0,0-.84-.28Q50.46,30.88,50.2,32.24Z" />
  <path
     id="path140"
     d="M55.73,31.06a1.42,1.42,0,0,1,1.32-.8,1.34,1.34,0,0,1,1.31.88,1.64,1.64,0,0,1,1.49-.88,1.31,1.31,0,0,1,1.15.55,2.27,2.27,0,0,1,.34,1.31V35H60.6v-3a1.38,1.38,0,0,0-.25-.92.81.81,0,0,0-.65-.25,1.09,1.09,0,0,0-.89.39,1.33,1.33,0,0,0-.28.87V35h-.75v-3a1.38,1.38,0,0,0-.25-.92.81.81,0,0,0-.65-.25,1.09,1.09,0,0,0-.89.39,1.33,1.33,0,0,0-.28.87V35H55V30.34h.75Z" />
  <path
     id="path142"
     d="M65.76,34.4A14.26,14.26,0,0,0,68.39,32,2.69,2.69,0,0,0,69,30.39a1.23,1.23,0,0,0-.35-.94,1.11,1.11,0,0,0-.8-.29,1.21,1.21,0,0,0-.85.29,1.94,1.94,0,0,0-.5.94l-.7-.15a2.19,2.19,0,0,1,.78-1.32,2,2,0,0,1,1.25-.38,1.94,1.94,0,0,1,1.48.58,1.76,1.76,0,0,1,.47,1.26,3.18,3.18,0,0,1-.82,2,12.75,12.75,0,0,1-2.33,2h3.21V35h-4.1Z" />
  <path
     id="path144"
     d="M24.91,55.47h.75v5.81h3.2v.62h-4Z" />
  <path
     id="path146"
     d="M30.57,55.23a.49.49,0,0,1,0,1,.5.5,0,0,1-.5-.5.47.47,0,0,1,.15-.35A.48.48,0,0,1,30.57,55.23Zm-.36,2H31V61.9h-.75Z" />
  <path
     id="path148"
     d="M34.23,62a2.37,2.37,0,0,1-1.95-.91l.54-.44a2,2,0,0,0,.61.57,1.64,1.64,0,0,0,.76.16,1.34,1.34,0,0,0,.83-.21.6.6,0,0,0,.24-.51.57.57,0,0,0-.27-.52,1,1,0,0,0-.27-.14l-.68-.18a2.4,2.4,0,0,1-1.18-.56,1.28,1.28,0,0,1,.19-1.83,1.89,1.89,0,0,1,1.12-.3,2.33,2.33,0,0,1,.91.16,2.17,2.17,0,0,1,.71.53l-.49.5a1.9,1.9,0,0,0-.54-.43,1.36,1.36,0,0,0-.61-.12,1,1,0,0,0-.67.19.56.56,0,0,0-.2.45.54.54,0,0,0,.23.47,3,3,0,0,0,.85.29,5.44,5.44,0,0,1,.79.23,1.57,1.57,0,0,1,.45.29,1.18,1.18,0,0,1,.37.92,1.23,1.23,0,0,1-.54,1.07A2.08,2.08,0,0,1,34.23,62Z" />
  <path
     id="path150"
     d="M36.88,57.19h.72V56l.75-.18v1.4h1.19v.62H38.34v2.87q0,.67.54.67a1,1,0,0,0,.64-.22l.29.51a1.58,1.58,0,0,1-1,.33,1.24,1.24,0,0,1-.94-.35,1.1,1.1,0,0,1-.29-.8v-3h-.72Z" />
  <path
     id="path152"
     d="M44.24,55.23a.49.49,0,0,1,0,1,.5.5,0,0,1-.5-.5.47.47,0,0,1,.15-.35A.48.48,0,0,1,44.24,55.23Zm-.36,2h.75V61.9h-.75Z" />
  <path
     id="path154"
     d="M45.91,57.19h.72V56l.75-.18v1.4h1.19v.62H47.38v2.87q0,.67.54.67a1,1,0,0,0,.64-.22l.29.51a1.58,1.58,0,0,1-1,.33,1.24,1.24,0,0,1-.94-.35,1.1,1.1,0,0,1-.29-.8v-3h-.72Z" />
  <path
     id="path156"
     d="M51.73,62a2.21,2.21,0,0,1-1.8-.76,2.88,2.88,0,0,1,.15-3.51,2,2,0,0,1,1.47-.6,1.83,1.83,0,0,1,1.55.71,2.61,2.61,0,0,1,.47,1.63v.24H50.17a2.54,2.54,0,0,0,.13.81,1.36,1.36,0,0,0,.37.54,1.51,1.51,0,0,0,1,.32A1.38,1.38,0,0,0,53,60.71l.55.44A2,2,0,0,1,51.73,62ZM50.2,59.09h2.59a1.72,1.72,0,0,0-.4-1.08,1.17,1.17,0,0,0-.84-.28Q50.46,57.73,50.2,59.09Z" />
  <path
     id="path158"
     d="M55.73,57.91a1.42,1.42,0,0,1,1.32-.8,1.34,1.34,0,0,1,1.31.88,1.64,1.64,0,0,1,1.49-.88,1.31,1.31,0,0,1,1.15.55A2.27,2.27,0,0,1,61.35,59V61.9H60.6v-3a1.38,1.38,0,0,0-.25-.92.81.81,0,0,0-.65-.25,1.09,1.09,0,0,0-.89.39,1.33,1.33,0,0,0-.28.87V61.9h-.75v-3a1.38,1.38,0,0,0-.25-.92.81.81,0,0,0-.65-.25,1.09,1.09,0,0,0-.89.39,1.33,1.33,0,0,0-.28.87V61.9H55V57.19h.75Z" />
  <path
     id="path160"
     d="M65.84,57a2.09,2.09,0,0,1,.71-1.13,2.17,2.17,0,0,1,1.37-.44,2,2,0,0,1,1.44.54,1.58,1.58,0,0,1,.47,1.17,1.46,1.46,0,0,1-1,1.39,1.76,1.76,0,0,1,.9.57A1.67,1.67,0,0,1,70,60.11a1.69,1.69,0,0,1-.68,1.43,2.79,2.79,0,0,1-3.2-.12,1.82,1.82,0,0,1-.43-.51,2.35,2.35,0,0,1-.23-.69l.7-.15a1.54,1.54,0,0,0,1.65,1.3A1.47,1.47,0,0,0,68.93,61a1.35,1.35,0,0,0-.12-1.86,1.67,1.67,0,0,0-1-.29h-.65v-.64h.61a1.42,1.42,0,0,0,1-.33,1.16,1.16,0,0,0-.06-1.61,1.23,1.23,0,0,0-.81-.26,1.39,1.39,0,0,0-.88.27,1.79,1.79,0,0,0-.54.85Z" />
</svg>
