<?xml version="1.0" encoding="utf-8"?>
<!--
  ~ Copyright (C) 2020 Robert Bosch GmbH Copyright (C) 2020 Robert Bosch Manufacturing Solutions GmbH, Germany. All rights reserved.
  -->
<!-- Generator: Adobe Illustrator 22.1.0, SVG Export Plug-In . SVG Version: 6.00 Build 0)  -->
<svg version="1.1" id="Ebene_1" xmlns="http://www.w3.org/2000/svg" xmlns:xlink="http://www.w3.org/1999/xlink" x="0px" y="0px"
	 viewBox="0 0 224 64" style="enable-background:new 0 0 224 64;" xml:space="preserve">
<style type="text/css">
	.st0{fill:none;stroke:#EFEFF0;stroke-width:0.9023;}
	.st1{fill:#EFEFF0;}
	.st2{fill:none;stroke:#333333;stroke-width:0.6924;stroke-miterlimit:10;}
	.st3{fill:#78BE20;}
</style>
<polygon class="st0" points="23.2,1.1 180.3,1.1 180.3,63 23.2,63 23.2,17 18,12 23.2,7 "/>
<rect x="33" y="29.6" class="st1" width="113" height="8.4"/>
<rect x="33" y="40.9" class="st1" width="55.3" height="8.4"/>
<g>
	<line class="st2" x1="167.8" y1="12.6" x2="174.8" y2="5.7"/>
	<line class="st2" x1="174.8" y1="12.6" x2="167.8" y2="5.7"/>
</g>
<g>
	<path d="M53.9,14.5h-2v-0.6h4.7v0.6h-2v5.8h-0.7V14.5z"/>
	<path d="M57.9,13.6h0.7v2.8c0.3-0.5,0.8-0.8,1.4-0.8c0.5,0,0.9,0.2,1.2,0.5c0.2,0.3,0.4,0.8,0.4,1.3v2.9h-0.7v-3
		c0-0.4-0.1-0.7-0.3-0.9c-0.2-0.2-0.4-0.2-0.7-0.2c-0.4,0-0.7,0.1-0.9,0.4c-0.2,0.2-0.3,0.5-0.3,0.9v2.9h-0.7V13.6z"/>
	<path d="M63.8,13.7c0.1,0,0.3,0,0.3,0.1s0.1,0.2,0.1,0.3c0,0.1,0,0.3-0.1,0.4s-0.2,0.1-0.3,0.1c-0.1,0-0.3,0-0.4-0.1
		s-0.1-0.2-0.1-0.4c0-0.1,0-0.3,0.1-0.3S63.6,13.7,63.8,13.7z M63.4,15.6h0.7v4.7h-0.7V15.6z"/>
	<path d="M67.4,20.4c-0.8,0-1.5-0.3-1.9-0.9l0.5-0.4c0.2,0.3,0.4,0.5,0.6,0.6c0.2,0.1,0.5,0.2,0.8,0.2c0.4,0,0.6-0.1,0.8-0.2
		c0.2-0.1,0.2-0.3,0.2-0.5c0-0.2-0.1-0.4-0.3-0.5c-0.1-0.1-0.2-0.1-0.3-0.1c-0.1,0-0.3-0.1-0.7-0.2c-0.6-0.1-1-0.3-1.2-0.6
		c-0.2-0.2-0.3-0.5-0.3-0.8c0-0.4,0.2-0.8,0.5-1c0.3-0.2,0.7-0.3,1.1-0.3c0.4,0,0.7,0.1,0.9,0.2c0.2,0.1,0.5,0.3,0.7,0.5l-0.5,0.5
		c-0.2-0.2-0.4-0.4-0.5-0.4c-0.2-0.1-0.4-0.1-0.6-0.1c-0.3,0-0.5,0.1-0.7,0.2c-0.1,0.1-0.2,0.3-0.2,0.4c0,0.2,0.1,0.4,0.2,0.5
		c0.1,0.1,0.4,0.2,0.8,0.3c0.4,0.1,0.6,0.2,0.8,0.2c0.2,0.1,0.3,0.2,0.5,0.3c0.2,0.2,0.4,0.5,0.4,0.9c0,0.5-0.2,0.8-0.5,1.1
		C68.3,20.3,67.9,20.4,67.4,20.4z"/>
	<path d="M73.9,13.7c0.1,0,0.3,0,0.3,0.1s0.1,0.2,0.1,0.3c0,0.1,0,0.3-0.1,0.4s-0.2,0.1-0.3,0.1c-0.1,0-0.3,0-0.4-0.1
		c-0.1-0.1-0.1-0.2-0.1-0.4c0-0.1,0-0.3,0.1-0.3C73.7,13.7,73.8,13.7,73.9,13.7z M73.6,15.6h0.7v4.7h-0.7V15.6z"/>
	<path d="M77.6,20.4c-0.8,0-1.5-0.3-1.9-0.9l0.5-0.4c0.2,0.3,0.4,0.5,0.6,0.6s0.5,0.2,0.8,0.2c0.4,0,0.6-0.1,0.8-0.2
		c0.2-0.1,0.2-0.3,0.2-0.5c0-0.2-0.1-0.4-0.3-0.5c-0.1-0.1-0.2-0.1-0.3-0.1c-0.1,0-0.3-0.1-0.7-0.2c-0.6-0.1-1-0.3-1.2-0.6
		c-0.2-0.2-0.3-0.5-0.3-0.8c0-0.4,0.2-0.8,0.5-1c0.3-0.2,0.7-0.3,1.1-0.3c0.4,0,0.7,0.1,0.9,0.2c0.2,0.1,0.5,0.3,0.7,0.5l-0.5,0.5
		c-0.2-0.2-0.4-0.4-0.5-0.4s-0.4-0.1-0.6-0.1c-0.3,0-0.5,0.1-0.7,0.2c-0.1,0.1-0.2,0.3-0.2,0.4c0,0.2,0.1,0.4,0.2,0.5
		c0.1,0.1,0.4,0.2,0.8,0.3c0.4,0.1,0.6,0.2,0.8,0.2c0.2,0.1,0.3,0.2,0.5,0.3c0.2,0.2,0.4,0.5,0.4,0.9c0,0.5-0.2,0.8-0.5,1.1
		C78.5,20.3,78.1,20.4,77.6,20.4z"/>
	<path d="M87.5,20.4c-0.1,0-0.2,0-0.3,0c-0.5,0-0.8-0.2-1-0.7c-0.4,0.5-0.9,0.7-1.4,0.7c-0.5,0-0.8-0.1-1.1-0.4
		c-0.2-0.2-0.4-0.5-0.4-0.9c0-0.4,0.1-0.7,0.4-0.9c0.2-0.2,0.5-0.4,0.9-0.5c0.4-0.1,0.9-0.2,1.6-0.2v-0.3c0-0.4-0.1-0.7-0.3-0.8
		c-0.2-0.1-0.4-0.2-0.7-0.2c-0.2,0-0.5,0-0.7,0.1c-0.2,0.1-0.4,0.2-0.7,0.5l-0.4-0.5c0.3-0.3,0.6-0.4,0.8-0.5s0.6-0.2,0.9-0.2
		c0.6,0,1,0.2,1.3,0.5c0.3,0.3,0.4,0.7,0.4,1.2v2.1c0,0.2,0,0.3,0.1,0.3s0.2,0.1,0.4,0.1V20.4z M86.2,18.1c-0.8,0-1.4,0.1-1.7,0.3
		c-0.3,0.2-0.4,0.4-0.4,0.7c0,0.2,0.1,0.4,0.2,0.5c0.2,0.1,0.4,0.2,0.6,0.2c0.4,0,0.7-0.1,1-0.3c0.2-0.2,0.3-0.4,0.3-0.7V18.1z"/>
	<path d="M93,20.4c-0.8,0-1.5-0.3-1.9-0.9l0.5-0.4c0.2,0.3,0.4,0.5,0.6,0.6s0.5,0.2,0.8,0.2c0.4,0,0.6-0.1,0.8-0.2
		c0.2-0.1,0.2-0.3,0.2-0.5c0-0.2-0.1-0.4-0.3-0.5c-0.1-0.1-0.2-0.1-0.3-0.1c-0.1,0-0.3-0.1-0.7-0.2c-0.6-0.1-1-0.3-1.2-0.6
		c-0.2-0.2-0.3-0.5-0.3-0.8c0-0.4,0.2-0.8,0.5-1c0.3-0.2,0.7-0.3,1.1-0.3c0.4,0,0.7,0.1,0.9,0.2c0.2,0.1,0.5,0.3,0.7,0.5l-0.5,0.5
		c-0.2-0.2-0.4-0.4-0.5-0.4s-0.4-0.1-0.6-0.1c-0.3,0-0.5,0.1-0.7,0.2c-0.1,0.1-0.2,0.3-0.2,0.4c0,0.2,0.1,0.4,0.2,0.5
		c0.1,0.1,0.4,0.2,0.8,0.3c0.4,0.1,0.6,0.2,0.8,0.2c0.2,0.1,0.3,0.2,0.5,0.3c0.2,0.2,0.4,0.5,0.4,0.9c0,0.5-0.2,0.8-0.5,1.1
		C93.9,20.3,93.5,20.4,93,20.4z"/>
	<path d="M99.1,19.6c-0.3,0.5-0.8,0.8-1.4,0.8c-0.5,0-0.9-0.2-1.2-0.5c-0.2-0.3-0.3-0.8-0.3-1.3v-2.9h0.7v3c0,0.4,0.1,0.7,0.3,0.9
		c0.2,0.2,0.4,0.2,0.7,0.2c0.4,0,0.7-0.1,0.9-0.4c0.2-0.2,0.3-0.5,0.3-0.9v-2.9h0.7v4.7h-0.7V19.6z"/>
	<path d="M103.5,20.4c-0.7,0-1.3-0.3-1.7-0.8c-0.4-0.4-0.5-1-0.5-1.7c0-0.8,0.2-1.4,0.7-1.8c0.4-0.4,0.9-0.6,1.5-0.6
		c0.8,0,1.3,0.3,1.8,0.9l-0.6,0.4c-0.2-0.3-0.4-0.5-0.5-0.6c-0.2-0.1-0.4-0.2-0.6-0.2c-0.5,0-0.8,0.2-1.1,0.5
		c-0.2,0.3-0.3,0.7-0.3,1.3c0,0.6,0.1,1.1,0.4,1.4c0.2,0.3,0.6,0.4,1,0.4c0.5,0,1-0.2,1.2-0.7l0.6,0.3c-0.2,0.4-0.5,0.6-0.9,0.8
		C104.2,20.3,103.9,20.4,103.5,20.4z"/>
	<path d="M108.3,20.4c-0.7,0-1.3-0.3-1.7-0.8c-0.4-0.4-0.5-1-0.5-1.7c0-0.8,0.2-1.4,0.7-1.8c0.4-0.4,0.9-0.6,1.5-0.6
		c0.8,0,1.3,0.3,1.8,0.9l-0.6,0.4c-0.2-0.3-0.4-0.5-0.5-0.6c-0.2-0.1-0.4-0.2-0.6-0.2c-0.5,0-0.8,0.2-1.1,0.5
		c-0.2,0.3-0.3,0.7-0.3,1.3c0,0.6,0.1,1.1,0.4,1.4c0.2,0.3,0.6,0.4,1,0.4c0.5,0,1-0.2,1.2-0.7l0.6,0.3c-0.2,0.4-0.5,0.6-0.9,0.8
		C109.1,20.3,108.7,20.4,108.3,20.4z"/>
	<path d="M113.3,20.4c-0.8,0-1.4-0.3-1.8-0.8c-0.4-0.4-0.5-1-0.5-1.7c0-0.8,0.2-1.4,0.7-1.8c0.4-0.4,0.9-0.6,1.5-0.6
		c0.7,0,1.2,0.2,1.5,0.7c0.3,0.4,0.5,1,0.5,1.6v0.2h-3.4c0,0.3,0.1,0.6,0.1,0.8c0.1,0.2,0.2,0.4,0.4,0.5c0.2,0.2,0.6,0.3,1,0.3
		c0.3,0,0.5,0,0.7-0.1s0.4-0.3,0.5-0.5l0.5,0.4C114.7,20.1,114.1,20.4,113.3,20.4z M111.8,17.5h2.6c-0.1-0.5-0.2-0.9-0.4-1.1
		c-0.2-0.2-0.5-0.3-0.8-0.3C112.4,16.2,111.9,16.6,111.8,17.5z"/>
	<path d="M118,20.4c-0.8,0-1.5-0.3-1.9-0.9l0.5-0.4c0.2,0.3,0.4,0.5,0.6,0.6s0.5,0.2,0.8,0.2c0.4,0,0.6-0.1,0.8-0.2
		c0.2-0.1,0.2-0.3,0.2-0.5c0-0.2-0.1-0.4-0.3-0.5c-0.1-0.1-0.2-0.1-0.3-0.1c-0.1,0-0.3-0.1-0.7-0.2c-0.6-0.1-1-0.3-1.2-0.6
		c-0.2-0.2-0.3-0.5-0.3-0.8c0-0.4,0.2-0.8,0.5-1c0.3-0.2,0.7-0.3,1.1-0.3c0.4,0,0.7,0.1,0.9,0.2c0.2,0.1,0.5,0.3,0.7,0.5l-0.5,0.5
		c-0.2-0.2-0.4-0.4-0.5-0.4s-0.4-0.1-0.6-0.1c-0.3,0-0.5,0.1-0.7,0.2c-0.1,0.1-0.2,0.3-0.2,0.4c0,0.2,0.1,0.4,0.2,0.5
		c0.1,0.1,0.4,0.2,0.8,0.3c0.4,0.1,0.6,0.2,0.8,0.2c0.2,0.1,0.3,0.2,0.5,0.3c0.2,0.2,0.4,0.5,0.4,0.9c0,0.5-0.2,0.8-0.5,1.1
		C118.9,20.3,118.5,20.4,118,20.4z"/>
	<path d="M122.6,20.4c-0.8,0-1.5-0.3-1.9-0.9l0.5-0.4c0.2,0.3,0.4,0.5,0.6,0.6s0.5,0.2,0.8,0.2c0.4,0,0.6-0.1,0.8-0.2
		c0.2-0.1,0.2-0.3,0.2-0.5c0-0.2-0.1-0.4-0.3-0.5c-0.1-0.1-0.2-0.1-0.3-0.1c-0.1,0-0.3-0.1-0.7-0.2c-0.6-0.1-1-0.3-1.2-0.6
		c-0.2-0.2-0.3-0.5-0.3-0.8c0-0.4,0.2-0.8,0.5-1c0.3-0.2,0.7-0.3,1.1-0.3c0.4,0,0.7,0.1,0.9,0.2c0.2,0.1,0.5,0.3,0.7,0.5l-0.5,0.5
		c-0.2-0.2-0.4-0.4-0.5-0.4s-0.4-0.1-0.6-0.1c-0.3,0-0.5,0.1-0.7,0.2c-0.1,0.1-0.2,0.3-0.2,0.4c0,0.2,0.1,0.4,0.2,0.5
		c0.1,0.1,0.4,0.2,0.8,0.3c0.4,0.1,0.6,0.2,0.8,0.2c0.2,0.1,0.3,0.2,0.5,0.3c0.2,0.2,0.4,0.5,0.4,0.9c0,0.5-0.2,0.8-0.5,1.1
		C123.5,20.3,123.1,20.4,122.6,20.4z"/>
	<path d="M130.6,20.4c-0.7,0-1.3-0.3-1.7-0.8c-0.4-0.4-0.5-1-0.5-1.7c0-0.8,0.2-1.4,0.7-1.8c0.4-0.4,0.9-0.6,1.5-0.6
		c0.8,0,1.3,0.3,1.8,0.9l-0.6,0.4c-0.2-0.3-0.4-0.5-0.5-0.6c-0.2-0.1-0.4-0.2-0.6-0.2c-0.5,0-0.8,0.2-1.1,0.5
		c-0.2,0.3-0.3,0.7-0.3,1.3c0,0.6,0.1,1.1,0.4,1.4c0.2,0.3,0.6,0.4,1,0.4c0.5,0,1-0.2,1.2-0.7l0.6,0.3c-0.2,0.4-0.5,0.6-0.9,0.8
		C131.3,20.3,131,20.4,130.6,20.4z"/>
	<path d="M137.5,20.4c-0.1,0-0.2,0-0.3,0c-0.5,0-0.8-0.2-1-0.7c-0.4,0.5-0.9,0.7-1.4,0.7c-0.5,0-0.8-0.1-1.1-0.4
		c-0.2-0.2-0.4-0.5-0.4-0.9c0-0.4,0.1-0.7,0.4-0.9c0.2-0.2,0.5-0.4,0.9-0.5c0.4-0.1,0.9-0.2,1.6-0.2v-0.3c0-0.4-0.1-0.7-0.3-0.8
		c-0.2-0.1-0.4-0.2-0.7-0.2c-0.2,0-0.5,0-0.7,0.1c-0.2,0.1-0.4,0.2-0.7,0.5l-0.4-0.5c0.3-0.3,0.6-0.4,0.8-0.5s0.6-0.2,0.9-0.2
		c0.6,0,1,0.2,1.3,0.5c0.3,0.3,0.4,0.7,0.4,1.2v2.1c0,0.2,0,0.3,0.1,0.3s0.2,0.1,0.4,0.1V20.4z M136.2,18.1c-0.8,0-1.4,0.1-1.7,0.3
		c-0.3,0.2-0.4,0.4-0.4,0.7c0,0.2,0.1,0.4,0.2,0.5c0.2,0.1,0.4,0.2,0.6,0.2c0.4,0,0.7-0.1,1-0.3c0.2-0.2,0.3-0.4,0.3-0.7V18.1z"/>
	<path d="M139.9,20.4c-0.8,0-1.1-0.4-1.1-1.2v-5.6h0.7v5.7c0,0.4,0.2,0.6,0.5,0.6c0.2,0,0.3-0.1,0.5-0.2l0.2,0.6
		C140.5,20.3,140.2,20.4,139.9,20.4z"/>
	<path d="M142.7,20.4c-0.8,0-1.1-0.4-1.1-1.2v-5.6h0.7v5.7c0,0.4,0.2,0.6,0.5,0.6c0.2,0,0.3-0.1,0.5-0.2l0.2,0.6
		C143.3,20.3,143.1,20.4,142.7,20.4z"/>
	<path d="M146.3,15.5c0.7,0,1.2,0.3,1.7,0.8c0.4,0.4,0.5,1,0.5,1.6c0,0.8-0.2,1.4-0.7,1.8c-0.4,0.4-0.9,0.6-1.5,0.6
		c-0.7,0-1.2-0.3-1.7-0.8c-0.4-0.4-0.5-1-0.5-1.7c0-0.8,0.2-1.4,0.7-1.8C145.2,15.7,145.7,15.5,146.3,15.5z M146.3,16.2
		c-0.5,0-0.9,0.2-1.1,0.5c-0.2,0.3-0.3,0.7-0.3,1.3c0,0.6,0.1,1,0.4,1.4c0.3,0.3,0.6,0.4,1,0.4c0.5,0,0.8-0.2,1.1-0.6
		c0.2-0.3,0.3-0.7,0.3-1.3c0-0.6-0.1-1-0.4-1.4C147.1,16.3,146.7,16.2,146.3,16.2z"/>
	<path d="M152.8,19.6c-0.3,0.5-0.8,0.8-1.4,0.8c-0.5,0-0.9-0.2-1.2-0.5c-0.2-0.3-0.3-0.8-0.3-1.3v-2.9h0.7v3c0,0.4,0.1,0.7,0.3,0.9
		c0.2,0.2,0.4,0.2,0.7,0.2c0.4,0,0.7-0.1,0.9-0.4c0.2-0.2,0.3-0.5,0.3-0.9v-2.9h0.7v4.7h-0.7V19.6z"/>
	<path d="M154.9,15.6h0.7v-1.2l0.7-0.2v1.4h1.2v0.6h-1.2v2.9c0,0.4,0.2,0.7,0.5,0.7c0.2,0,0.4-0.1,0.6-0.2l0.3,0.5
		c-0.3,0.2-0.6,0.3-1,0.3c-0.4,0-0.7-0.1-0.9-0.4c-0.2-0.2-0.3-0.5-0.3-0.8v-3h-0.7V15.6z"/>
</g>
<g>
	<path class="st3" d="M40,24c-3.9,0-7-3.1-7-7s3.1-7,7-7s7,3.1,7,7S43.9,24,40,24z M40,10.7c-3.5,0-6.3,2.8-6.3,6.3s2.8,6.3,6.3,6.3
		s6.3-2.8,6.3-6.3S43.5,10.7,40,10.7z"/>
	<path class="st3" d="M42.9,14.7l-4,3.9l-1.9-1.8l-0.5,0.5l2.3,2.4l4.4-4.5L42.9,14.7z"/>
</g>
</svg>
