<?xml version="1.0" encoding="UTF-8" standalone="no"?>
<!--
  ~ Copyright (C) 2020 Robert Bosch GmbH Copyright (C) 2020 Robert Bosch Manufacturing Solutions GmbH, Germany. All rights reserved.
  -->
<svg
   xmlns:dc="http://purl.org/dc/elements/1.1/"
   xmlns:cc="http://creativecommons.org/ns#"
   xmlns:rdf="http://www.w3.org/1999/02/22-rdf-syntax-ns#"
   xmlns:svg="http://www.w3.org/2000/svg"
   xmlns="http://www.w3.org/2000/svg"
   id="svg190"
   version="1.1"
   viewBox="0 0 224 64">
  <metadata
     id="metadata196">
    <rdf:RDF>
      <cc:Work
         rdf:about="">
        <dc:format>image/svg+xml</dc:format>
        <dc:type
           rdf:resource="http://purl.org/dc/dcmitype/StillImage" />
        <dc:title>img-chip</dc:title>
      </cc:Work>
    </rdf:RDF>
  </metadata>
  <defs
     id="defs194" />
  <title
     id="title168">img-chip</title>
  <rect
     id="rect170"
     fill="none"
     height="56"
     width="105"
     y="4"
     x="59.53" />
  <rect
     id="rect172"
     stroke-width="0.97"
     stroke-miterlimit="10"
     stroke="#525f6b"
     fill="none"
     height="48"
     width="97"
     y="8"
     x="63.32" />
  <g
     id="g184"
     style="isolation:isolate">
    <path
       id="path174"
       fill="#525f6b"
       d="M80.29,25.48h1.33V35.82h5.7v1.1h-7Z" />
    <path
       id="path176"
       fill="#525f6b"
       d="M96.64,37l-.46,0a1.64,1.64,0,0,1-1.73-1.2,3.25,3.25,0,0,1-2.57,1.27,2.71,2.71,0,0,1-2-.73,2.1,2.1,0,0,1-.65-1.57,2.22,2.22,0,0,1,.67-1.65,3.6,3.6,0,0,1,1.63-.86,13.5,13.5,0,0,1,2.83-.32v-.52a2.06,2.06,0,0,0-.45-1.49,1.62,1.62,0,0,0-1.2-.4,3,3,0,0,0-1.2.24,4.85,4.85,0,0,0-1.2.8l-.78-.87a5.06,5.06,0,0,1,1.49-1,4.51,4.51,0,0,1,1.69-.3,2.9,2.9,0,0,1,2.3.88,3.1,3.1,0,0,1,.67,2.12v3.73a.76.76,0,0,0,.2.61,1.26,1.26,0,0,0,.74.18Zm-2.27-4.09a7.47,7.47,0,0,0-3,.55,1.37,1.37,0,0,0-.77,1.27,1.19,1.19,0,0,0,.4,1,1.71,1.71,0,0,0,1.13.34,2.44,2.44,0,0,0,1.71-.59,1.62,1.62,0,0,0,.56-1.25Z" />
    <path
       id="path178"
       fill="#525f6b"
       d="M100.11,29.93a3.13,3.13,0,0,1,2.78-1.52,3.19,3.19,0,0,1,2.71,1.33,4.8,4.8,0,0,1,.86,3,4.71,4.71,0,0,1-1.1,3.32,3.22,3.22,0,0,1-2.48,1,3.05,3.05,0,0,1-2.77-1.48v1.34H98.78v-12h1.33Zm2.56-.41a2.31,2.31,0,0,0-2,1,3.8,3.8,0,0,0-.6,2.25,3.58,3.58,0,0,0,.77,2.48,2.36,2.36,0,0,0,1.83.73q2.43,0,2.43-3.18a3.79,3.79,0,0,0-.73-2.51A2.08,2.08,0,0,0,102.67,29.52Z" />
    <path
       id="path180"
       fill="#525f6b"
       d="M112.48,37.06a3.93,3.93,0,0,1-3.2-1.34,4.51,4.51,0,0,1-.94-3,4.48,4.48,0,0,1,1.2-3.28,3.5,3.5,0,0,1,2.61-1.06,3.26,3.26,0,0,1,2.75,1.26,4.65,4.65,0,0,1,.84,2.9V33h-6a4.54,4.54,0,0,0,.23,1.43,2.43,2.43,0,0,0,.65,1,2.69,2.69,0,0,0,1.85.56,2.46,2.46,0,0,0,2.24-1.15l1,.78A3.62,3.62,0,0,1,112.48,37.06Zm-2.72-5.13h4.61a3.06,3.06,0,0,0-.72-1.92,2.08,2.08,0,0,0-1.49-.49Q110.22,29.52,109.76,31.93Z" />
    <path
       id="path182"
       fill="#525f6b"
       d="M120.15,37q-2,0-2-2.2v-10h1.33V35q0,1,.91,1a1.31,1.31,0,0,0,.83-.27l.44,1A2.83,2.83,0,0,1,120.15,37Z" />
  </g>
  <rect
     id="rect186"
     fill="none"
     height="24"
     width="24"
     y="20"
     x="128.32" />
  <path
     id="path188"
     fill="#525f6b"
     d="M148.22,24.9l-.7-.7-7.2,7.1-7.2-7.1-.7.7,7.1,7.1-7.1,7.1.7.7,7.2-7.1,7.2,7.1.7-.7-7.1-7.1Z" />
</svg>
