<?xml version="1.0" encoding="utf-8"?>
<!--
  ~ Copyright (C) 2020 Robert Bosch GmbH Copyright (C) 2020 Robert Bosch Manufacturing Solutions GmbH, Germany. All rights reserved.
  -->
<!-- Generator: Adobe Illustrator 22.1.0, SVG Export Plug-In . SVG Version: 6.00 Build 0)  -->
<svg version="1.1" id="Ebene_1" xmlns="http://www.w3.org/2000/svg" xmlns:xlink="http://www.w3.org/1999/xlink" x="0px" y="0px"
	 viewBox="0 0 224 64" style="enable-background:new 0 0 224 64;" xml:space="preserve">
<style type="text/css">
	.st0{fill:#EFEFF0;}
	.st1{fill:none;stroke:#EFEFF0;stroke-linecap:square;}
	.st2{fill:none;}
</style>
<rect x="54.5" y="25" class="st0" width="60.7" height="8.6"/>
<g>
	<path d="M57.5,13.5c-1,0.1-2-0.4-2.3-1.4l0.6-0.3c0.1,0.4,0.3,0.7,0.7,0.9c0.3,0.2,0.7,0.2,1.1,0.2c0.4,0,0.8-0.1,1.1-0.4
		c0.2-0.2,0.4-0.5,0.3-0.8c0-0.3-0.1-0.5-0.3-0.7c-0.1-0.1-0.3-0.2-0.4-0.3c-0.2-0.1-0.5-0.2-0.9-0.3c-0.5-0.1-1-0.3-1.4-0.5
		c-0.3-0.3-0.5-0.7-0.5-1.1c-0.1-0.5,0.1-1,0.5-1.3s0.9-0.4,1.4-0.4s0.9,0.1,1.3,0.3c0.3,0.2,0.6,0.5,0.7,0.8l-0.6,0.3
		c-0.1-0.3-0.3-0.5-0.6-0.7c-0.3-0.1-0.6-0.2-0.9-0.1c-0.3,0-0.7,0.1-1,0.3C56.1,8.2,56,8.4,56,8.7s0.1,0.6,0.4,0.8
		c0.3,0.2,0.7,0.3,1.1,0.3c0.5,0.1,1.1,0.3,1.5,0.6s0.6,0.8,0.6,1.3s-0.2,1.1-0.7,1.4C58.6,13.4,58,13.6,57.5,13.5z"/>
	<path d="M63.1,13.5c-0.7,0-1.3-0.2-1.8-0.7c-0.4-0.5-0.5-1-0.5-1.6c0-0.7,0.2-1.3,0.6-1.8c0.4-0.4,0.9-0.6,1.4-0.6
		c0.6,0,1.1,0.2,1.5,0.7c0.3,0.5,0.5,1,0.5,1.6v0.2h-3.2c0,0.3,0,0.5,0.1,0.8c0.1,0.2,0.2,0.4,0.4,0.5c0.3,0.2,0.6,0.3,1,0.3
		c0.5,0,1-0.2,1.2-0.6l0.5,0.4C64.4,13.3,63.8,13.6,63.1,13.5z M61.6,10.8h2.5c0-0.4-0.1-0.8-0.4-1.1c-0.2-0.2-0.5-0.3-0.8-0.3
		C62.2,9.4,61.8,9.9,61.6,10.8L61.6,10.8z"/>
	<path d="M68,13.5c-0.6,0-1.2-0.2-1.6-0.7s-0.5-1-0.5-1.6c0-0.7,0.2-1.3,0.6-1.8c0.8-0.8,2.2-0.8,2.9,0.1c0.1,0.1,0.1,0.2,0.2,0.3
		L69,10.1c-0.1-0.2-0.3-0.4-0.5-0.5s-0.4-0.1-0.6-0.1c-0.4,0-0.8,0.2-1.1,0.5c-0.2,0.4-0.3,0.8-0.3,1.2c0,0.5,0.1,1,0.4,1.3
		s0.6,0.4,1,0.4c0.5,0,1-0.2,1.2-0.7l0.6,0.3c-0.2,0.3-0.5,0.6-0.8,0.8C68.6,13.5,68.3,13.6,68,13.5z"/>
	<path d="M70.4,8.9h0.7V7.8l0.7-0.2v1.3H73v0.6h-1.1v2.8c0,0.4,0.2,0.6,0.5,0.6c0.2,0,0.4-0.1,0.6-0.2l0.3,0.5
		c-0.3,0.2-0.6,0.3-0.9,0.3s-0.7-0.1-0.9-0.3c-0.2-0.2-0.3-0.5-0.3-0.8V9.5h-0.7L70.4,8.9z"/>
	<path d="M74.7,7c0.3,0,0.5,0.2,0.5,0.5l0,0c0,0.1-0.1,0.2-0.1,0.3c-0.2,0.2-0.5,0.2-0.7,0c-0.1-0.1-0.1-0.2-0.1-0.3
		c0-0.1,0-0.2,0.1-0.3C74.4,7.1,74.5,7,74.7,7z M74.3,8.9H75v4.5h-0.7V8.9z"/>
	<path d="M78.6,8.9c0.6,0,1.2,0.3,1.6,0.7s0.6,1,0.6,1.6c0,0.7-0.2,1.3-0.7,1.8c-0.4,0.4-0.9,0.6-1.5,0.6s-1.2-0.3-1.6-0.7
		s-0.6-1-0.5-1.6c0-0.7,0.2-1.3,0.7-1.8C77.5,9,78,8.8,78.6,8.9z M78.6,9.4c-0.4,0-0.8,0.2-1.1,0.5c-0.2,0.4-0.4,0.8-0.3,1.2
		c0,0.5,0.1,1,0.5,1.4c0.5,0.5,1.4,0.5,1.9,0c0.1-0.1,0.1-0.1,0.1-0.2c0.2-0.4,0.4-0.8,0.3-1.2c0-0.5-0.1-1-0.4-1.3
		C79.3,9.6,78.9,9.4,78.6,9.4L78.6,9.4z"/>
	<path d="M82.1,8.9h0.8v0.7c0.3-0.5,0.8-0.8,1.4-0.8c0.5,0,0.9,0.2,1.2,0.5c0.2,0.4,0.4,0.8,0.3,1.3v2.8H85v-2.9
		c0-0.3-0.1-0.6-0.3-0.9c-0.2-0.2-0.4-0.3-0.7-0.2c-0.3,0-0.7,0.1-0.9,0.4c-0.2,0.2-0.3,0.5-0.3,0.8v2.8H82L82.1,8.9L82.1,8.9z"/>
	<path d="M92.4,7.2h0.5v6.3h-0.7V8.3c-0.2,0.1-0.5,0.2-0.8,0.3s-0.6,0.1-0.9,0.1l-0.1-0.5c0.4,0,0.9-0.2,1.3-0.4
		C91.9,7.7,92.2,7.5,92.4,7.2z"/>
</g>
<line class="st1" x1="175.2" y1="0.8" x2="49" y2="0.8"/>
<g>
	<path d="M57.5,56.2c-1,0.1-2-0.4-2.3-1.4l0.6-0.3c0.1,0.4,0.3,0.7,0.7,0.9c0.3,0.2,0.7,0.2,1.1,0.2c0.4,0,0.8-0.1,1.1-0.4
		c0.2-0.2,0.4-0.5,0.3-0.8c0-0.3-0.1-0.5-0.3-0.7c-0.1-0.1-0.3-0.2-0.4-0.3c-0.2-0.1-0.5-0.2-0.9-0.3c-0.5-0.1-1-0.3-1.4-0.5
		c-0.3-0.3-0.5-0.7-0.5-1.1c-0.1-0.5,0.1-1,0.5-1.3s0.9-0.4,1.4-0.4s0.9,0.1,1.3,0.3c0.3,0.2,0.6,0.5,0.7,0.8l-0.6,0.3
		c-0.1-0.3-0.3-0.5-0.6-0.7c-0.3-0.1-0.6-0.2-0.9-0.1c-0.3,0-0.7,0.1-1,0.3C56.1,51,56,51.2,56,51.5s0.1,0.6,0.4,0.8
		c0.3,0.2,0.7,0.3,1.1,0.3c0.5,0.1,1.1,0.3,1.5,0.6s0.6,0.8,0.6,1.3s-0.2,1-0.6,1.3C58.6,56.1,58,56.3,57.5,56.2z"/>
	<path d="M63.1,56.2c-0.7,0-1.3-0.2-1.8-0.7c-0.7-1-0.7-2.4,0.1-3.4c0.4-0.4,0.9-0.6,1.4-0.6c0.6,0,1.1,0.2,1.5,0.7
		c0.3,0.5,0.5,1,0.5,1.6V54h-3.2c0,0.3,0,0.5,0.1,0.8c0.1,0.2,0.2,0.4,0.4,0.5c0.3,0.2,0.6,0.3,1,0.3c0.5,0,1-0.2,1.2-0.6l0.5,0.4
		C64.4,56,63.7,56.3,63.1,56.2z M61.6,53.5h2.5c0-0.4-0.1-0.8-0.4-1.1c-0.2-0.2-0.5-0.3-0.8-0.3C62.2,52.1,61.8,52.6,61.6,53.5
		L61.6,53.5z"/>
	<path d="M68,56.2c-0.6,0-1.2-0.2-1.6-0.7s-0.5-1-0.5-1.6c0-0.7,0.2-1.3,0.6-1.8c0.8-0.8,2.2-0.8,2.9,0.1c0.1,0.1,0.1,0.2,0.2,0.3
		L69,52.8c-0.1-0.2-0.3-0.4-0.5-0.5s-0.4-0.1-0.6-0.1c-0.4,0-0.8,0.2-1.1,0.5c-0.2,0.4-0.3,0.8-0.3,1.2c0,0.5,0.1,1,0.4,1.3
		s0.6,0.4,1,0.4c0.5,0,1-0.2,1.2-0.7l0.6,0.3c-0.2,0.3-0.5,0.6-0.8,0.8C68.6,56.2,68.3,56.3,68,56.2z"/>
	<path d="M70.4,51.6h0.7v-1.2l0.7-0.2v1.3H73v0.6h-1.1V55c0,0.4,0.2,0.6,0.5,0.6c0.2,0,0.4-0.1,0.6-0.2l0.3,0.5
		c-0.3,0.2-0.6,0.3-0.9,0.3s-0.7-0.1-0.9-0.3c-0.2-0.2-0.3-0.5-0.3-0.8v-2.9h-0.7L70.4,51.6z"/>
	<path d="M74.7,49.8c0.3,0,0.5,0.2,0.5,0.5l0,0c0,0.1-0.1,0.2-0.1,0.3c-0.2,0.2-0.5,0.2-0.7,0c-0.1-0.1-0.1-0.2-0.1-0.3
		s0-0.2,0.1-0.3C74.4,49.8,74.5,49.8,74.7,49.8z M74.3,51.6H75v4.5h-0.7V51.6z"/>
	<path d="M78.6,51.6c0.6,0,1.2,0.3,1.6,0.7s0.6,1,0.6,1.6c0,0.7-0.2,1.3-0.7,1.8c-0.4,0.4-0.9,0.6-1.5,0.6S77.4,56,77,55.6
		s-0.6-1-0.6-1.6c0-0.7,0.2-1.3,0.7-1.8C77.5,51.8,78,51.5,78.6,51.6z M78.6,52.2c-0.4,0-0.8,0.2-1.1,0.5c-0.2,0.4-0.4,0.8-0.3,1.2
		c0,0.5,0.1,0.9,0.4,1.3c0.5,0.5,1.3,0.6,1.9,0.1c0.1-0.1,0.1-0.1,0.2-0.2c0.2-0.4,0.4-0.8,0.3-1.2c0-0.5-0.1-1-0.4-1.3
		C79.3,52.3,78.9,52.1,78.6,52.2z"/>
	<path d="M82.1,51.6h0.8v0.7c0.3-0.5,0.8-0.8,1.4-0.8c0.5,0,0.9,0.2,1.2,0.5c0.2,0.4,0.4,0.8,0.3,1.3v2.8H85v-2.9
		c0-0.3-0.1-0.6-0.3-0.9c-0.2-0.2-0.4-0.3-0.7-0.2c-0.3,0-0.7,0.1-0.9,0.4c-0.2,0.2-0.3,0.5-0.3,0.8v2.8H82L82.1,51.6
		C82,51.6,82.1,51.6,82.1,51.6z"/>
	<path d="M90,55.5c0.9-0.7,1.8-1.4,2.5-2.3c0.4-0.4,0.6-1,0.6-1.6c0-0.3-0.1-0.7-0.3-0.9c-0.2-0.2-0.5-0.3-0.8-0.3s-0.6,0.1-0.8,0.3
		c-0.2,0.3-0.4,0.6-0.5,0.9L90,51.5c0.1-0.5,0.4-1,0.8-1.3s0.8-0.4,1.2-0.4c0.5,0,1,0.2,1.4,0.5c0.3,0.3,0.5,0.8,0.5,1.2
		c0,0.7-0.3,1.4-0.8,2c-0.7,0.7-1.4,1.4-2.2,1.9H94V56h-4V55.5z"/>
</g>
<line class="st1" x1="175.2" y1="62.7" x2="49" y2="62.7"/>
<line class="st1" x1="175.2" y1="43.5" x2="49" y2="43.5"/>
<g>
	<rect x="161.5" y="5.3" transform="matrix(6.123234e-17 -1 1 6.123234e-17 156.2 174.7)" class="st2" width="8" height="8"/>
	<path d="M162.6,10.3l2.9-2.2l2.9,2.2l-0.2,0.2l-2.6-2.1l-2.8,2.1L162.6,10.3z"/>
</g>
<g>
	<rect x="161.5" y="49.1" transform="matrix(-1.836970e-16 1 -1 -1.836970e-16 218.55 -112.35)" class="st2" width="8" height="8"/>
	<path d="M168.3,52.1l-2.9,2.2l-2.9-2.2l0.2-0.2l2.6,2.1l2.8-2.1L168.3,52.1z"/>
</g>
</svg>
