<?xml version="1.0" encoding="utf-8"?>
<!--
  ~ Copyright (C) 2020 Robert Bosch GmbH Copyright (C) 2020 Robert Bosch Manufacturing Solutions GmbH, Germany. All rights reserved.
  -->
<!-- Generator: Adobe Illustrator 22.1.0, SVG Export Plug-In . SVG Version: 6.00 Build 0)  -->
<svg version="1.1" id="Ebene_1" xmlns="http://www.w3.org/2000/svg" xmlns:xlink="http://www.w3.org/1999/xlink" x="0px" y="0px"
	 viewBox="0 0 224 64" style="enable-background:new 0 0 224 64;" xml:space="preserve">
<style type="text/css">
	.st0{fill:#EFEFF0;}
	.st1{fill:none;stroke:#EFEFF0;stroke-miterlimit:10;}
</style>
<g>
	<path class="st0" d="M188.3,1v62H35.7V1H188.3 M189.3,0H34.7v64h154.6V0L189.3,0z"/>
</g>
<rect x="91" y="27.6" class="st0" width="22.5" height="7.1"/>
<rect x="40.9" y="27.6" class="st0" width="21.2" height="7.1"/>
<rect x="40.9" y="7" class="st0" width="54.8" height="7.1"/>
<rect x="138.6" y="27.6" class="st0" width="26.9" height="7.1"/>
<g>
	<path class="st0" d="M62.7,47.7h0.7v4.7h-0.7V47.7z"/>
	<path class="st0" d="M64.4,49H65v-0.8l0.7-0.2v1h0.8v0.5h-0.8v1.9c0,0.3,0.2,0.5,0.4,0.5c0.2,0,0.3-0.1,0.5-0.2l0.2,0.5
		c-0.2,0.2-0.5,0.2-0.8,0.2c-0.3,0-0.5-0.1-0.8-0.3c-0.2-0.2-0.2-0.4-0.2-0.6v-2h-0.5V49z"/>
	<path class="st0" d="M68.7,52.5c-0.5,0-0.9-0.2-1.3-0.5c-0.3-0.3-0.4-0.8-0.4-1.2c0-0.5,0.2-1,0.5-1.4c0.3-0.3,0.7-0.5,1.1-0.5
		c0.5,0,0.8,0.2,1.2,0.5c0.2,0.4,0.4,0.8,0.4,1.2v0.2h-2.5c0,0.2,0.1,0.4,0.2,0.5c0.1,0.2,0.2,0.2,0.2,0.4c0.2,0.2,0.4,0.2,0.6,0.2
		c0.2,0,0.4,0,0.5-0.1s0.3-0.2,0.4-0.4l0.5,0.4C69.8,52.3,69.2,52.5,68.7,52.5z M67.7,50.4h1.7c0-0.2-0.1-0.5-0.3-0.7
		c-0.2-0.2-0.4-0.2-0.5-0.2C68.1,49.4,67.8,49.8,67.7,50.4z"/>
	<path class="st0" d="M71.8,49.5c0.2-0.4,0.5-0.6,0.9-0.6c0.4,0,0.8,0.2,0.9,0.6c0.2-0.4,0.6-0.6,1.1-0.6c0.3,0,0.6,0.2,0.8,0.4
		c0.2,0.3,0.2,0.6,0.2,0.9v2.2h-0.7v-2.2c0-0.2,0-0.5-0.2-0.6c-0.1-0.2-0.2-0.2-0.4-0.2c-0.2,0-0.5,0.1-0.6,0.2
		c-0.2,0.2-0.2,0.4-0.2,0.6v2.1h-0.7v-2.2c0-0.5-0.2-0.8-0.6-0.8c-0.2,0-0.5,0.1-0.5,0.2c-0.2,0.2-0.2,0.4-0.2,0.6v2.1h-0.7V49h0.7
		V49.5z"/>
	<path class="st0" d="M80.9,47.7h0.5v4.8h-0.7v-3.7c-0.4,0.2-0.8,0.2-1.3,0.2l-0.1-0.5C79.9,48.5,80.5,48.2,80.9,47.7z"/>
</g>
<g>
	<path class="st0" d="M104.9,47.7h0.7v4.7h-0.7V47.7z"/>
	<path class="st0" d="M106.6,49h0.5v-0.8l0.7-0.2v1h0.8v0.5h-0.8v1.9c0,0.3,0.2,0.5,0.4,0.5c0.2,0,0.3-0.1,0.5-0.2l0.2,0.5
		c-0.2,0.2-0.5,0.2-0.8,0.2c-0.3,0-0.5-0.1-0.8-0.3c-0.2-0.2-0.2-0.4-0.2-0.6v-2h-0.5V49z"/>
	<path class="st0" d="M110.8,52.5c-0.5,0-0.9-0.2-1.3-0.5c-0.3-0.3-0.4-0.8-0.4-1.2c0-0.5,0.2-1,0.5-1.4c0.3-0.3,0.7-0.5,1.1-0.5
		c0.5,0,0.8,0.2,1.2,0.5c0.2,0.4,0.4,0.8,0.3,1.2v0.2h-2.5c0,0.2,0.1,0.4,0.2,0.5c0.1,0.2,0.2,0.2,0.2,0.4c0.2,0.2,0.4,0.2,0.6,0.2
		c0.2,0,0.4,0,0.5-0.1c0.2-0.1,0.3-0.2,0.4-0.4l0.5,0.4C111.9,52.3,111.4,52.5,110.8,52.5z M109.9,50.4h1.7c0-0.2-0.1-0.5-0.3-0.7
		c-0.2-0.2-0.4-0.2-0.5-0.2C110.3,49.4,110,49.8,109.9,50.4L109.9,50.4z"/>
	<path class="st0" d="M113.9,49.5c0.2-0.4,0.5-0.6,0.9-0.6s0.8,0.2,0.9,0.6c0.2-0.4,0.6-0.6,1.1-0.6c0.3,0,0.6,0.2,0.8,0.4
		c0.2,0.3,0.2,0.6,0.2,0.9v2.2h-0.7v-2.2c0-0.2,0-0.5-0.2-0.6c-0.1-0.2-0.2-0.2-0.4-0.2c-0.2,0-0.5,0.1-0.6,0.2
		c-0.2,0.2-0.2,0.4-0.2,0.6v2.1h-0.7v-2.2c0-0.5-0.2-0.8-0.6-0.8c-0.2,0-0.5,0.1-0.5,0.2c-0.2,0.2-0.2,0.4-0.2,0.6v2.1h-0.7V49h0.7
		V49.5z"/>
	<path class="st0" d="M121.2,51.8c0.7-0.5,1.3-1,1.9-1.6c0.3-0.3,0.5-0.8,0.5-1.2c0-0.2-0.1-0.5-0.2-0.6c-0.2-0.2-0.3-0.2-0.5-0.2
		s-0.4,0.1-0.5,0.2c-0.2,0.2-0.3,0.4-0.3,0.6l-0.6-0.2c0.1-0.4,0.3-0.8,0.6-1c0.3-0.2,0.6-0.3,1-0.3s0.8,0.2,1.2,0.5
		c0.2,0.2,0.4,0.6,0.4,1c-0.1,0.7-0.4,1.4-0.9,1.9c-0.2,0.2-0.3,0.3-0.5,0.5c-0.2,0.2-0.4,0.3-0.8,0.5h2.2v0.5h-3.1L121.2,51.8z"/>
</g>
<g>
	<path class="st0" d="M146.5,47.7h0.7v4.7h-0.7V47.7z"/>
	<path class="st0" d="M148.2,49h0.5v-0.8l0.7-0.2v1h0.8v0.5h-0.8v1.9c0,0.3,0.2,0.5,0.4,0.5c0.2,0,0.3-0.1,0.5-0.2l0.2,0.5
		c-0.2,0.2-0.5,0.2-0.8,0.2s-0.5-0.1-0.8-0.3c-0.2-0.2-0.2-0.4-0.2-0.6v-2h-0.5V49z"/>
	<path class="st0" d="M152.5,52.5c-0.5,0-0.9-0.2-1.2-0.5c-0.3-0.3-0.4-0.8-0.4-1.2c0-0.5,0.2-1,0.5-1.4c0.3-0.3,0.7-0.5,1.1-0.5
		c0.5,0,0.8,0.2,1.2,0.5c0.2,0.4,0.4,0.8,0.4,1.2v0.2h-2.5c0,0.2,0.1,0.4,0.1,0.5c0.1,0.2,0.2,0.2,0.2,0.4c0.2,0.2,0.4,0.2,0.7,0.2
		c0.2,0,0.4,0,0.5-0.1s0.3-0.2,0.4-0.4l0.5,0.4C153.6,52.4,153,52.5,152.5,52.5z M151.5,50.4h1.7c0-0.2-0.1-0.5-0.3-0.7
		c-0.2-0.2-0.4-0.2-0.5-0.2C151.9,49.4,151.6,49.8,151.5,50.4L151.5,50.4z"/>
	<path class="st0" d="M155.6,49.5c0.2-0.4,0.5-0.6,0.9-0.6s0.8,0.2,0.9,0.6c0.2-0.4,0.6-0.6,1.1-0.6c0.3,0,0.6,0.2,0.8,0.4
		c0.2,0.3,0.2,0.6,0.2,0.9v2.2h-0.7v-2.2c0-0.2,0-0.5-0.2-0.6c-0.1-0.2-0.2-0.2-0.5-0.2c-0.2,0-0.5,0.1-0.6,0.2
		c-0.2,0.2-0.2,0.4-0.2,0.6v2.1h-0.7v-2.2c0-0.5-0.2-0.8-0.6-0.8c-0.2,0-0.5,0.1-0.5,0.2c-0.2,0.2-0.2,0.4-0.2,0.6v2.1h-0.7V49h0.7
		L155.6,49.5z"/>
	<path class="st0" d="M162.8,48.8c0.1-0.3,0.3-0.6,0.5-0.8c0.3-0.2,0.7-0.3,1.1-0.3s0.8,0.2,1.1,0.4c0.2,0.2,0.4,0.5,0.4,0.8
		c0,0.5-0.3,0.8-0.8,1c0.5,0.2,0.9,0.6,0.9,1.2c0,0.4-0.2,0.8-0.5,1.1c-0.8,0.5-1.7,0.5-2.4-0.1c-0.2-0.1-0.2-0.2-0.3-0.4
		c-0.1-0.2-0.2-0.3-0.2-0.5l0.6-0.2c0.1,0.5,0.6,0.9,1.2,0.8c0.2,0,0.5-0.1,0.7-0.2c0.3-0.4,0.3-0.9-0.1-1.2
		c-0.2-0.2-0.5-0.2-0.7-0.2h-0.5v-0.5h0.5c0.2,0,0.5-0.1,0.7-0.2c0.2-0.2,0.2-0.3,0.2-0.5c0-0.2-0.1-0.5-0.2-0.5
		c-0.2-0.2-0.4-0.2-0.5-0.2c-0.2,0-0.5,0.1-0.6,0.2c-0.2,0.2-0.3,0.4-0.4,0.6L162.8,48.8z"/>
</g>
<circle class="st0" cx="46.7" cy="50.1" r="3.3"/>
<line class="st1" x1="36.4" y1="40.5" x2="187.3" y2="40.5"/>
<line class="st1" x1="36.4" y1="59" x2="187.3" y2="59"/>
<path d="M170.9,19.5l7-7l0,4.1h1.4l0-6.5l-6.5,0v1.4l4.1,0l-7,7L170.9,19.5z"/>
<path d="M54.2,18.5l-7-7l4.1,0v-1.4l-6.5,0l0,6.5h1.4l0-4.1l7,7L54.2,18.5z"/>
<path d="M53.2,44.5l-7,7l0-4.1h-1.4l0,6.5l6.5,0v-1.4l-4.1,0l7-7L53.2,44.5z"/>
<path d="M169.9,45.5l7,7l-4.1,0v1.4l6.5,0l0-6.5h-1.4l0,4.1l-7-7L169.9,45.5z"/>
</svg>
