<?xml version="1.0" encoding="utf-8"?>
<!--
  ~ Copyright (C) 2020 Robert Bosch GmbH Copyright (C) 2020 Robert Bosch Manufacturing Solutions GmbH, Germany. All rights reserved.
  -->
<!-- Generator: Adobe Illustrator 22.1.0, SVG Export Plug-In . SVG Version: 6.00 Build 0)  -->
<svg version="1.1" id="Layer_1" xmlns="http://www.w3.org/2000/svg" xmlns:xlink="http://www.w3.org/1999/xlink" x="0px" y="0px"
	 viewBox="0 0 224 64" style="enable-background:new 0 0 224 64;" xml:space="preserve">
<style type="text/css">
	.st0{fill:#BFC0C2;}
	.st1{fill:#EFEFF0;}
</style>
<title>img-picklist</title>
<polygon class="st0" points="160.4,26 159.9,26.5 165.3,32 159.9,37.4 160.4,37.9 166.4,32 160.4,26 "/>
<rect x="86.9" y="24.7" class="st1" width="58.3" height="15"/>
<polygon class="st0" points="66.9,26 66.4,26.5 71.8,32 66.4,37.4 66.9,37.9 72.9,32 66.9,26 "/>
<rect x="2.8" y="24.7" class="st1" width="48.9" height="15"/>
<path d="M181.1,27h3c0.4,0,0.9,0,1.3,0.1c0.3,0.1,0.6,0.3,0.9,0.5c0.5,0.5,0.8,1.1,0.7,1.8c0,0.7-0.3,1.4-0.8,1.9
	c-0.6,0.4-1.3,0.6-1.9,0.5h-2.2v3.6h-1L181.1,27z M184.2,31.1c0.5,0,1-0.1,1.4-0.4c0.3-0.3,0.5-0.8,0.4-1.2c0-0.5-0.1-1-0.5-1.3
	c-0.4-0.3-0.8-0.4-1.3-0.3h-2.2v3.3L184.2,31.1z"/>
<path d="M193.9,35.5h-0.3c-0.6,0.1-1.1-0.3-1.3-0.9c-0.5,0.6-1.2,0.9-1.9,0.9c-0.5,0-1.1-0.2-1.5-0.5c-0.3-0.3-0.5-0.7-0.5-1.2
	c0-0.5,0.2-0.9,0.5-1.2c0.3-0.3,0.8-0.5,1.2-0.6c0.7-0.2,1.4-0.2,2.1-0.2v-0.4c0-0.4-0.1-0.8-0.3-1.1c-0.2-0.2-0.6-0.3-0.9-0.3
	c-0.3,0-0.6,0.1-0.9,0.2c-0.3,0.2-0.6,0.4-0.9,0.6l-0.6-0.6c0.3-0.3,0.7-0.5,1.1-0.7c0.4-0.2,0.8-0.2,1.3-0.2c0.6,0,1.3,0.2,1.7,0.6
	c0.4,0.4,0.5,1,0.5,1.6v2.8c0,0.2,0,0.3,0.1,0.5c0.2,0.1,0.4,0.2,0.6,0.1L193.9,35.5z M192.3,32.5c-0.8,0-1.5,0.1-2.2,0.4
	c-0.4,0.2-0.6,0.5-0.6,0.9c0,0.3,0.1,0.5,0.3,0.7c0.2,0.2,0.5,0.3,0.8,0.3c0.5,0,0.9-0.1,1.3-0.4c0.3-0.2,0.4-0.6,0.4-0.9
	L192.3,32.5z"/>
<path d="M198.5,34.2c0.6,0,1.2,0.1,1.7,0.5c0.3,0.3,0.5,0.7,0.5,1.2c0,0.6-0.3,1.2-0.9,1.5c-0.6,0.3-1.3,0.5-2,0.5
	c-0.7,0-1.5-0.1-2.1-0.5c-0.4-0.3-0.7-0.7-0.6-1.2c0-0.6,0.4-1,1.1-1.3c-0.4-0.2-0.6-0.6-0.6-1c0-0.5,0.3-0.9,0.7-1
	c-0.5-0.4-0.8-0.9-0.8-1.5c0-0.6,0.2-1.2,0.7-1.5c0.4-0.3,1-0.5,1.6-0.5c0.4,0,0.8,0.1,1.2,0.3l1.8-0.3v0.9h-0.9
	c0.3,0.3,0.4,0.8,0.4,1.2c0,0.6-0.2,1.2-0.7,1.5c-0.5,0.3-1.1,0.5-1.6,0.5c-0.4,0-0.8-0.1-1.1-0.2c-0.2,0.1-0.3,0.3-0.3,0.6
	c0,0.2,0.1,0.3,0.2,0.4c0.2,0.1,0.5,0.1,0.7,0.1H198.5z M197.1,35h-0.4c-0.4,0.1-0.7,0.5-0.8,1c0,0.7,0.6,1,1.8,1s1.8-0.4,1.9-1.2
	c0-0.6-0.4-0.9-1.2-0.9L197.1,35z M197.8,30c-0.4,0-0.8,0.1-1.1,0.4c-0.2,0.2-0.3,0.5-0.3,0.9c0,0.4,0.1,0.8,0.4,1
	c0.3,0.2,0.6,0.3,1,0.3c0.4,0,0.8-0.1,1.1-0.4c0.2-0.2,0.3-0.5,0.3-0.9c0-0.4-0.1-0.8-0.4-1C198.4,30.1,198.1,30,197.8,30L197.8,30z
	"/>
<path d="M204.7,35.6c-0.9,0.1-1.8-0.3-2.4-1c-1-1.4-0.9-3.3,0.1-4.6c0.5-0.5,1.2-0.8,1.9-0.8c0.8,0,1.5,0.3,2,0.9
	c0.4,0.6,0.7,1.4,0.6,2.1v0.3h-4.4c0,0.4,0.1,0.7,0.2,1.1c0.1,0.3,0.3,0.5,0.5,0.7c0.4,0.3,0.9,0.5,1.4,0.4c0.7,0,1.3-0.3,1.7-0.8
	l0.7,0.6C206.5,35.2,205.6,35.6,204.7,35.6z M202.7,31.8h3.4c0-0.5-0.2-1-0.5-1.4c-0.3-0.3-0.7-0.4-1.1-0.4
	C203.5,30,202.9,30.6,202.7,31.8L202.7,31.8z"/>
<path d="M215.7,26.9h0.6v8.6h-1v-7c-0.3,0.2-0.6,0.3-1,0.4c-0.4,0.1-0.9,0.2-1.3,0.2l-0.1-0.6c0.6-0.1,1.2-0.2,1.7-0.5
	C215.1,27.6,215.5,27.3,215.7,26.9z"/>
</svg>
