<?xml version="1.0" encoding="utf-8"?>
<!--
  ~ Copyright (C) 2020 Robert Bosch GmbH Copyright (C) 2020 Robert Bosch Manufacturing Solutions GmbH, Germany. All rights reserved.
  -->
<!-- Generator: Adobe Illustrator 22.1.0, SVG Export Plug-In . SVG Version: 6.00 Build 0)  -->
<svg version="1.1" id="Layer_1" xmlns="http://www.w3.org/2000/svg" xmlns:xlink="http://www.w3.org/1999/xlink" x="0px" y="0px"
	 viewBox="0 0 224 64" style="enable-background:new 0 0 224 64;" xml:space="preserve">
<style type="text/css">
	.st0{fill:#BFC0C2;}
	.st1{fill:#005691;}
</style>
<title>img-tab</title>
<rect x="5.5" y="60.5" class="st0" width="213" height="1.5"/>
<rect x="39.5" y="60.5" class="st1" width="48.1" height="1.5"/>
<path class="st1" d="M48.5,31.4h-3.1v-1h7.4v1h-3.1v9h-1.1v-9H48.5z"/>
<path class="st1" d="M59.4,40.5H59c-0.7,0.1-1.3-0.3-1.5-1c-0.5,0.7-1.4,1.1-2.3,1.1c-0.6,0-1.3-0.2-1.7-0.7
	c-0.4-0.4-0.6-0.9-0.6-1.4s0.2-1.1,0.6-1.4c0.4-0.4,0.9-0.6,1.4-0.8c0.8-0.2,1.6-0.3,2.5-0.3v-0.5c0-0.5-0.1-0.9-0.4-1.3
	c-0.3-0.2-0.6-0.4-1-0.3c-0.4,0-0.7,0.1-1,0.2c-0.4,0.2-0.7,0.4-1,0.7L53.3,34c0.4-0.3,0.8-0.6,1.2-0.8C55,33,55.5,33,56,33
	c0.7-0.1,1.5,0.2,2,0.8c0.4,0.5,0.6,1.2,0.6,1.8v3.3c0,0.2,0,0.4,0.2,0.5s0.4,0.2,0.7,0.2L59.4,40.5z M57.4,36.9
	c-0.9,0-1.8,0.1-2.7,0.5C54.3,37.6,54,38,54,38.5c0,0.3,0.1,0.6,0.3,0.8c0.3,0.2,0.6,0.3,1,0.3c0.5,0,1.1-0.2,1.5-0.5
	c0.3-0.3,0.5-0.7,0.5-1.1L57.4,36.9z"/>
<path class="st1" d="M62.4,34.3c0.5-0.8,1.5-1.3,2.4-1.3s1.8,0.4,2.4,1.2c0.5,0.8,0.8,1.7,0.8,2.6c0.1,1.1-0.3,2.1-1,2.9
	c-0.6,0.6-1.3,0.9-2.2,0.9c-1,0-1.9-0.5-2.4-1.3v1.1h-1.1V29.9h1.2v4.4H62.4z M64.7,33.9c-0.7,0-1.4,0.3-1.8,0.8
	c-0.4,0.6-0.6,1.3-0.5,2c-0.1,0.8,0.2,1.6,0.7,2.2c0.4,0.4,1,0.7,1.6,0.6c1.4,0,2.1-0.9,2.1-2.8c0.1-0.8-0.2-1.6-0.6-2.2
	C65.8,34.2,65.2,33.9,64.7,33.9L64.7,33.9z"/>
<path class="st1" d="M78.2,30.2H79v10.2h-1.2v-8.3c-0.4,0.2-0.8,0.4-1.2,0.5c-0.5,0.1-1,0.2-1.5,0.2L74.9,32
	c0.7-0.1,1.4-0.3,2.1-0.7C77.5,31.1,77.9,30.7,78.2,30.2z"/>
<path d="M145.6,31.4h-3.1v-1h7.4v1h-3.1v9h-1.2L145.6,31.4L145.6,31.4z"/>
<path d="M156.5,40.5h-0.4c-0.7,0.1-1.3-0.3-1.5-1c-0.5,0.7-1.4,1.1-2.3,1.1c-0.6,0-1.3-0.2-1.7-0.6c-0.4-0.4-0.6-0.9-0.6-1.4
	s0.2-1.1,0.6-1.4c0.4-0.4,0.9-0.6,1.4-0.8c0.8-0.2,1.6-0.3,2.5-0.4v-0.5c0-0.5-0.1-0.9-0.4-1.3c-0.3-0.2-0.6-0.4-1-0.3
	c-0.4,0-0.7,0.1-1.1,0.2c-0.4,0.2-0.7,0.4-1,0.7l-0.7-0.8c0.4-0.4,0.8-0.6,1.3-0.8s1-0.3,1.5-0.3c0.7-0.1,1.5,0.2,2,0.8
	c0.4,0.5,0.6,1.2,0.6,1.8v3.3c0,0.2,0,0.4,0.2,0.5s0.4,0.2,0.6,0.2L156.5,40.5z M154.5,36.9c-0.9,0-1.8,0.1-2.6,0.5
	c-0.4,0.2-0.7,0.6-0.7,1.1c0,0.3,0.1,0.6,0.4,0.8c0.3,0.2,0.6,0.3,1,0.3c0.5,0,1.1-0.2,1.5-0.5c0.3-0.3,0.5-0.7,0.5-1.1L154.5,36.9
	L154.5,36.9z"/>
<path d="M159.5,34.3c0.5-0.8,1.5-1.3,2.4-1.3s1.8,0.4,2.4,1.2c0.5,0.8,0.8,1.7,0.8,2.6c0.1,1.1-0.3,2.1-1,2.9
	c-0.6,0.6-1.3,0.9-2.2,0.9c-1,0-1.9-0.5-2.4-1.3v1.1h-1.2V29.9h1.2V34.3z M161.7,33.9c-0.7,0-1.4,0.3-1.8,0.8
	c-0.4,0.6-0.6,1.3-0.5,2c-0.1,0.8,0.2,1.6,0.7,2.2c0.4,0.4,1,0.7,1.6,0.6c1.4,0,2.1-0.9,2.1-2.8c0.1-0.8-0.2-1.6-0.6-2.2
	C162.9,34.2,162.3,33.9,161.7,33.9L161.7,33.9z"/>
<path d="M171.4,39.4c1.5-1.1,2.9-2.3,4.1-3.7c0.6-0.7,1-1.6,1-2.5c0-0.5-0.2-1.1-0.6-1.5c-0.3-0.3-0.8-0.5-1.2-0.5
	c-0.5,0-1,0.1-1.3,0.5c-0.4,0.4-0.7,0.9-0.8,1.5l-1.1-0.2c0.1-0.8,0.6-1.5,1.2-2.1c0.6-0.4,1.3-0.6,1.9-0.6c0.9,0,1.7,0.3,2.3,0.9
	c0.5,0.5,0.8,1.3,0.7,2c0,1.2-0.5,2.3-1.3,3.2c-1.1,1.2-2.3,2.2-3.6,3.1h5v1h-6.4L171.4,39.4z"/>
</svg>
