<?xml version="1.0" encoding="utf-8"?>
<!--
  ~ Copyright (C) 2020 Robert Bosch GmbH Copyright (C) 2020 Robert Bosch Manufacturing Solutions GmbH, Germany. All rights reserved.
  -->
<!-- Generator: Adobe Illustrator 22.1.0, SVG Export Plug-In . SVG Version: 6.00 Build 0)  -->
<svg version="1.1" id="Layer_1" xmlns="http://www.w3.org/2000/svg" xmlns:xlink="http://www.w3.org/1999/xlink" x="0px" y="0px"
	 viewBox="0 0 224 64" style="enable-background:new 0 0 224 64;" xml:space="preserve">
<style type="text/css">
	.st0{fill:#005691;}
	.st1{fill:#FFFFFF;}
	.st2{fill:#DFDFE0;}
</style>
<title>img-radiobutton</title>
<circle class="st0" cx="12.6" cy="32" r="12"/>
<circle class="st1" cx="12.6" cy="32" r="6"/>
<circle class="st2" cx="144.4" cy="31.9" r="12"/>
<g>
	<path d="M34.3,26.6h1.3v10.3h5.7V38h-7V26.6z"/>
	<path d="M50.7,38c-0.1,0-0.3,0-0.5,0c-0.9,0-1.5-0.4-1.7-1.2c-0.7,0.8-1.6,1.3-2.6,1.3c-0.8,0-1.5-0.2-2-0.7
		c-0.4-0.4-0.6-0.9-0.6-1.6c0-0.7,0.2-1.2,0.7-1.6c0.4-0.4,0.9-0.7,1.6-0.9c0.6-0.2,1.6-0.3,2.8-0.3v-0.5c0-0.7-0.2-1.2-0.5-1.5
		s-0.7-0.4-1.2-0.4c-0.4,0-0.8,0.1-1.2,0.2c-0.4,0.2-0.8,0.4-1.2,0.8l-0.8-0.9c0.5-0.5,1-0.8,1.5-1s1.1-0.3,1.7-0.3
		c1,0,1.8,0.3,2.3,0.9c0.4,0.5,0.7,1.2,0.7,2.1v3.7c0,0.3,0.1,0.5,0.2,0.6c0.1,0.1,0.4,0.2,0.7,0.2L50.7,38L50.7,38z M48.4,34
		c-1.4,0.1-2.4,0.2-3,0.6c-0.5,0.3-0.8,0.7-0.8,1.3c0,0.4,0.1,0.7,0.4,1s0.6,0.3,1.1,0.3c0.7,0,1.3-0.2,1.7-0.6
		c0.4-0.3,0.6-0.8,0.6-1.3V34z"/>
	<path d="M52.8,29.6h1.3v1.3c0.5-0.9,1.4-1.4,2.5-1.4c1,0,1.7,0.3,2.1,1c0.4,0.6,0.6,1.3,0.6,2.4V38H58v-5.3c0-0.8-0.2-1.3-0.5-1.6
		c-0.3-0.3-0.7-0.4-1.3-0.4c-0.7,0-1.3,0.2-1.7,0.7C54.2,31.8,54,32.3,54,33v5h-1.3v-8.4H52.8z"/>
	<path d="M68.3,36.7c-0.6,1-1.6,1.5-2.8,1.5c-1.2,0-2.1-0.4-2.7-1.3c-0.6-0.8-0.9-1.8-0.9-3c0-1.4,0.4-2.5,1.1-3.3
		c0.6-0.7,1.5-1,2.5-1c1.2,0,2.1,0.5,2.8,1.5V26h1.3v12h-1.3V36.7z M65.8,30.6c-0.8,0-1.5,0.3-1.9,1c-0.4,0.6-0.6,1.3-0.6,2.3
		c0,2.1,0.8,3.2,2.4,3.2c0.9,0,1.6-0.3,2-1c0.4-0.6,0.6-1.3,0.6-2.3c0-1.1-0.3-1.9-0.8-2.5C67.1,30.8,66.5,30.6,65.8,30.6z"/>
	<path d="M75.4,38.1c-1.4,0-2.6-0.5-3.5-1.6l1-0.8c0.4,0.5,0.7,0.8,1.1,1s0.8,0.3,1.4,0.3c0.7,0,1.1-0.1,1.5-0.4
		c0.3-0.2,0.4-0.5,0.4-0.9s-0.2-0.7-0.5-0.9c-0.2-0.1-0.3-0.2-0.5-0.2s-0.6-0.2-1.2-0.3c-1-0.2-1.7-0.6-2.1-1s-0.5-0.9-0.5-1.5
		c0-0.8,0.3-1.4,0.9-1.8c0.5-0.4,1.2-0.5,2-0.5c0.6,0,1.2,0.1,1.6,0.3s0.9,0.5,1.3,0.9l-0.9,0.9c-0.3-0.4-0.7-0.6-1-0.8
		s-0.7-0.2-1.1-0.2c-0.5,0-0.9,0.1-1.2,0.3c-0.2,0.2-0.4,0.5-0.4,0.8c0,0.4,0.1,0.6,0.4,0.8s0.8,0.3,1.5,0.5
		c0.6,0.2,1.1,0.3,1.4,0.4s0.6,0.3,0.8,0.5c0.4,0.4,0.7,0.9,0.7,1.6c0,0.8-0.3,1.4-1,1.9C77,37.9,76.3,38.1,75.4,38.1z"/>
	<path d="M84.4,38.1c-1.3,0-2.2-0.5-3-1.4c-0.6-0.8-1-1.8-1-3c0-1.4,0.4-2.5,1.2-3.3c0.7-0.7,1.6-1,2.7-1c1.3,0,2.4,0.6,3.1,1.7
		l-1.1,0.7c-0.3-0.5-0.6-0.8-0.9-1s-0.7-0.3-1.1-0.3c-0.8,0-1.5,0.3-1.9,1c-0.4,0.6-0.6,1.3-0.6,2.3c0,1.1,0.3,1.9,0.8,2.5
		c0.4,0.5,1.1,0.7,1.8,0.7c1,0,1.7-0.4,2.2-1.3l1,0.6c-0.4,0.7-0.9,1.1-1.5,1.4C85.7,38,85.1,38.1,84.4,38.1z"/>
	<path d="M96.7,38c-0.1,0-0.3,0-0.5,0c-0.9,0-1.5-0.4-1.7-1.2c-0.7,0.8-1.6,1.3-2.6,1.3c-0.8,0-1.5-0.2-2-0.7
		c-0.4-0.4-0.6-0.9-0.6-1.6c0-0.7,0.2-1.2,0.7-1.6c0.4-0.4,0.9-0.7,1.6-0.9c0.6-0.2,1.6-0.3,2.8-0.3v-0.5c0-0.7-0.2-1.2-0.5-1.5
		s-0.7-0.4-1.2-0.4c-0.4,0-0.8,0.1-1.2,0.2s-0.8,0.4-1.2,0.8l-0.8-0.9c0.5-0.5,1-0.8,1.5-1s1.1-0.3,1.7-0.3c1,0,1.8,0.3,2.3,0.9
		c0.4,0.5,0.7,1.2,0.7,2.1v3.7c0,0.3,0.1,0.5,0.2,0.6s0.4,0.2,0.7,0.2L96.7,38L96.7,38z M94.4,34c-1.4,0.1-2.4,0.2-3,0.6
		c-0.5,0.3-0.8,0.7-0.8,1.3c0,0.4,0.1,0.7,0.4,1s0.6,0.3,1.1,0.3c0.7,0,1.3-0.2,1.7-0.6c0.4-0.3,0.6-0.8,0.6-1.3
		C94.4,35.3,94.4,34,94.4,34z"/>
	<path d="M98.9,29.6h1.3V31c0.7-1,1.6-1.5,2.8-1.5c1.2,0,2.1,0.4,2.7,1.3c0.6,0.8,0.9,1.8,0.9,3c0,1.4-0.4,2.5-1.1,3.3
		c-0.6,0.7-1.5,1-2.5,1c-1.2,0-2.1-0.5-2.8-1.5v4.3h-1.3V29.6z M102.7,30.6c-0.9,0-1.5,0.3-2,1c-0.4,0.6-0.6,1.3-0.6,2.2
		c0,1.1,0.3,1.9,0.8,2.5c0.4,0.5,1.1,0.7,1.8,0.7c1.6,0,2.4-1.1,2.4-3.2c0-1.1-0.2-1.9-0.7-2.5C104,30.8,103.5,30.6,102.7,30.6z"/>
	<path d="M112.6,38.1c-1.4,0-2.5-0.4-3.2-1.3c-0.6-0.8-0.9-1.7-0.9-3c0-1.4,0.4-2.5,1.2-3.3c0.7-0.7,1.6-1.1,2.6-1.1
		c1.2,0,2.1,0.4,2.8,1.3c0.6,0.7,0.8,1.7,0.8,2.9V34h-6c0,0.6,0.1,1.1,0.2,1.4s0.4,0.7,0.7,1c0.4,0.4,1,0.6,1.9,0.6
		c0.5,0,0.9-0.1,1.3-0.3s0.7-0.5,1-0.9l1,0.8C115.1,37.7,114,38.1,112.6,38.1z M109.8,33h4.6c-0.1-0.9-0.3-1.6-0.7-1.9
		c-0.3-0.3-0.8-0.5-1.5-0.5C110.9,30.6,110.1,31.4,109.8,33z"/>
</g>
<g>
	<path d="M166,26.6h4.1c0.7,0,1.3,0.1,1.8,0.2s0.9,0.4,1.2,0.7c0.7,0.6,1,1.4,1,2.5s-0.4,1.9-1.1,2.5c-0.6,0.5-1.5,0.7-2.6,0.7h-3
		V38H166V26.6z M170.1,32.1c0.9,0,1.5-0.2,1.9-0.6s0.6-0.9,0.6-1.7c0-0.8-0.2-1.4-0.7-1.7c-0.4-0.3-1-0.5-1.8-0.5h-2.9V32h2.9V32.1z
		"/>
	<path d="M179.6,29.5c1.2,0,2.2,0.5,2.9,1.4c0.7,0.8,1,1.8,1,2.9c0,1.4-0.4,2.4-1.3,3.3c-0.7,0.7-1.6,1.1-2.7,1.1
		c-1.2,0-2.2-0.5-3-1.4c-0.7-0.8-1-1.8-1-2.9c0-1.4,0.4-2.4,1.3-3.3C177.6,29.8,178.5,29.5,179.6,29.5z M179.6,30.6
		c-0.9,0-1.5,0.3-2,1c-0.4,0.6-0.6,1.3-0.6,2.3s0.3,1.9,0.8,2.4s1.1,0.8,1.8,0.8c0.8,0,1.5-0.3,2-1c0.4-0.6,0.6-1.3,0.6-2.2
		c0-1-0.3-1.9-0.8-2.5C180.9,30.9,180.3,30.6,179.6,30.6z"/>
	<path d="M186.1,29.6h1.3V31c0.5-1,1.3-1.5,2.2-1.5c0.5,0,0.9,0.1,1.4,0.3l-0.5,1.1c-0.3-0.2-0.6-0.3-1-0.3c-0.7,0-1.2,0.3-1.6,0.8
		c-0.3,0.5-0.5,1.1-0.5,1.9V38h-1.3L186.1,29.6L186.1,29.6z"/>
	<path d="M192.3,29.6h1.3v-2.2l1.3-0.3v2.5h2.1v1.1h-2.1v5.1c0,0.8,0.3,1.2,1,1.2c0.4,0,0.8-0.1,1.1-0.4l0.5,0.9
		c-0.5,0.4-1.1,0.6-1.7,0.6c-0.7,0-1.3-0.2-1.7-0.6c-0.3-0.4-0.5-0.8-0.5-1.4v-5.4h-1.3L192.3,29.6L192.3,29.6z"/>
	<path d="M199.4,29.6h1.3V31c0.5-1,1.3-1.5,2.2-1.5c0.5,0,0.9,0.1,1.4,0.3l-0.5,1.1c-0.3-0.2-0.6-0.3-1-0.3c-0.7,0-1.2,0.3-1.6,0.8
		c-0.3,0.5-0.5,1.1-0.5,1.9V38h-1.3L199.4,29.6L199.4,29.6z"/>
	<path d="M212.8,38c-0.1,0-0.3,0-0.5,0c-0.9,0-1.5-0.4-1.7-1.2c-0.7,0.8-1.6,1.3-2.6,1.3c-0.8,0-1.5-0.2-2-0.7
		c-0.4-0.4-0.6-0.9-0.6-1.6c0-0.7,0.2-1.2,0.7-1.6c0.4-0.4,0.9-0.7,1.6-0.9c0.6-0.2,1.6-0.3,2.8-0.3v-0.5c0-0.7-0.2-1.2-0.5-1.5
		s-0.7-0.4-1.2-0.4c-0.4,0-0.8,0.1-1.2,0.2s-0.8,0.4-1.2,0.8l-0.8-0.9c0.5-0.5,1-0.8,1.5-1s1.1-0.3,1.7-0.3c1,0,1.8,0.3,2.3,0.9
		c0.4,0.5,0.7,1.2,0.7,2.1v3.7c0,0.3,0.1,0.5,0.2,0.6s0.4,0.2,0.7,0.2V38H212.8z M210.5,34c-1.4,0.1-2.4,0.2-3,0.6
		c-0.5,0.3-0.8,0.7-0.8,1.3c0,0.4,0.1,0.7,0.4,1s0.6,0.3,1.1,0.3c0.7,0,1.3-0.2,1.7-0.6c0.4-0.3,0.6-0.8,0.6-1.3V34z"/>
	<path d="M215.6,26.1c0.2,0,0.4,0.1,0.6,0.3s0.3,0.4,0.3,0.6s-0.1,0.5-0.3,0.6s-0.4,0.3-0.6,0.3c-0.2,0-0.5-0.1-0.6-0.3
		s-0.3-0.4-0.3-0.6s0.1-0.4,0.3-0.6S215.4,26.1,215.6,26.1z M215,29.6h1.3V38H215V29.6z"/>
	<path d="M218.6,29.6h1.3v-2.2l1.3-0.3v2.5h2.1v1.1h-2.1v5.1c0,0.8,0.3,1.2,1,1.2c0.4,0,0.8-0.1,1.1-0.4l0.5,0.9
		c-0.5,0.4-1.1,0.6-1.7,0.6c-0.7,0-1.3-0.2-1.7-0.6c-0.3-0.4-0.5-0.8-0.5-1.4v-5.4h-1.3L218.6,29.6L218.6,29.6z"/>
</g>
</svg>
