<?xml version="1.0" encoding="utf-8"?>
<!--
  ~ Copyright (C) 2020 Robert Bosch GmbH Copyright (C) 2020 Robert Bosch Manufacturing Solutions GmbH, Germany. All rights reserved.
  -->
<!-- Generator: Adobe Illustrator 22.1.0, SVG Export Plug-In . SVG Version: 6.00 Build 0)  -->
<svg version="1.1" id="Layer_1" xmlns="http://www.w3.org/2000/svg" xmlns:xlink="http://www.w3.org/1999/xlink" x="0px" y="0px"
	 viewBox="0 0 224 64" style="enable-background:new 0 0 224 64;" xml:space="preserve">
<style type="text/css">
	.st0{fill:#BFE3F3;fill-opacity:0;}
	.st1{fill:#005691;}
	.st2{fill:#FFFFFF;}
	.st3{fill:#EFEFF0;}
</style>
<title>img-buttontoggle</title>
<rect y="6.4" class="st0" width="224" height="51.2"/>
<rect x="6.4" y="12.8" class="st1" width="70.4" height="38.4"/>
<g>
	<path class="st2" d="M24,27.7h1v9.1h-1V27.7z"/>
	<path class="st2" d="M27,30.1h1v-1.7l1.1-0.3v2h1.7V31h-1.6v4.1c0,0.7,0.3,1,0.8,1c0.3,0,0.7-0.1,0.9-0.3l0.4,0.7
		c-0.4,0.3-0.9,0.5-1.4,0.5c-0.5,0-1-0.2-1.3-0.5c-0.3-0.3-0.4-0.7-0.4-1.1V31H27V30.1z"/>
	<path class="st2" d="M35.3,37c-1,0.1-1.9-0.3-2.6-1.1c-0.5-0.7-0.8-1.5-0.8-2.4c0-1,0.3-1.9,1-2.6c0.5-0.6,1.2-0.9,2-0.9
		c0.9,0,1.7,0.3,2.2,1c0.5,0.7,0.7,1.5,0.7,2.3v0.3h-4.8c0,0.4,0.1,0.8,0.2,1.2c0.1,0.3,0.3,0.6,0.5,0.8c0.4,0.3,0.9,0.5,1.5,0.5
		c0.7,0,1.4-0.3,1.8-0.9l0.8,0.6C37.3,36.6,36.3,37,35.3,37z M33.1,32.9h3.7c0-0.6-0.2-1.1-0.6-1.5c-0.3-0.3-0.8-0.4-1.2-0.4
		C34,30.9,33.4,31.6,33.1,32.9L33.1,32.9z"/>
	<path class="st2" d="M41,31.2c0.3-0.7,1.1-1.2,1.9-1.2c0.8,0,1.6,0.5,1.9,1.3c0.4-0.8,1.2-1.3,2.1-1.3c0.6,0,1.3,0.3,1.6,0.8
		c0.4,0.6,0.5,1.2,0.5,1.9v4.2h-1.1v-4.2c0-0.5-0.1-0.9-0.3-1.3c-0.2-0.2-0.6-0.4-0.9-0.4c-0.5,0-0.9,0.2-1.3,0.6
		c-0.3,0.4-0.4,0.8-0.4,1.2v4.1h-1.1v-4.2c0-0.5-0.1-0.9-0.3-1.3c-0.2-0.2-0.6-0.4-0.9-0.4c-0.5,0-1,0.2-1.3,0.6
		c-0.3,0.4-0.4,0.8-0.4,1.2v4.1h-1.1v-6.7H41V31.2z"/>
	<path class="st2" d="M58.8,27.5h0.7v9.3h-1.1v-7.5c-0.4,0.2-0.7,0.3-1.1,0.4c-0.5,0.1-0.9,0.2-1.4,0.2l-0.1-0.7
		c0.7-0.1,1.3-0.3,1.9-0.6C58.1,28.3,58.5,28,58.8,27.5z"/>
</g>
<rect x="76.8" y="12.8" class="st3" width="76.8" height="38.4"/>
<g>
	<path d="M96.8,27.7h1.1v9.1h-1.1V27.7z"/>
	<path d="M99.9,30.1h1v-1.7l1.1-0.3v2h1.7V31H102v4.1c0,0.7,0.3,1,0.8,1c0.3,0,0.7-0.1,0.9-0.3l0.4,0.7c-0.4,0.3-0.9,0.5-1.4,0.5
		c-0.5,0-1-0.2-1.3-0.5c-0.3-0.3-0.4-0.7-0.4-1.1V31h-1L99.9,30.1z"/>
	<path d="M108.2,37c-1,0.1-1.9-0.3-2.6-1.1c-0.5-0.7-0.8-1.5-0.8-2.4c0-1,0.3-1.9,1-2.6c0.5-0.6,1.3-0.9,2.1-0.9
		c0.9,0,1.7,0.3,2.2,1c0.5,0.7,0.7,1.5,0.7,2.3v0.3H106c0,0.4,0.1,0.8,0.2,1.2c0.1,0.3,0.3,0.6,0.5,0.8c0.4,0.3,0.9,0.5,1.5,0.5
		c0.7,0,1.4-0.3,1.8-0.9l0.8,0.6C110.2,36.6,109.2,37.1,108.2,37z M106,32.8h3.7c0-0.6-0.2-1.1-0.6-1.5c-0.3-0.3-0.8-0.4-1.2-0.4
		C106.9,30.9,106.2,31.6,106,32.8z"/>
	<path d="M113.9,31.2c0.3-0.7,1.1-1.2,1.9-1.2c0.8,0,1.6,0.5,1.9,1.3c0.4-0.8,1.2-1.3,2.1-1.3c0.6,0,1.3,0.3,1.6,0.8
		c0.3,0.6,0.5,1.2,0.5,1.9v4.2h-1.1v-4.2c0-0.5-0.1-0.9-0.3-1.3c-0.2-0.2-0.6-0.4-0.9-0.4c-0.5,0-0.9,0.2-1.3,0.6
		c-0.3,0.4-0.4,0.8-0.4,1.2v4.1h-1.1v-4.2c0-0.5-0.1-0.9-0.3-1.3c-0.2-0.2-0.6-0.4-0.9-0.4c-0.5,0-0.9,0.2-1.3,0.6
		c-0.3,0.4-0.4,0.8-0.4,1.2v4.1h-1.1v-6.7h1.1V31.2z"/>
	<path d="M128.1,35.9c1.4-1,2.6-2.1,3.7-3.4c0.5-0.7,0.8-1.5,0.9-2.3c0-0.5-0.2-1-0.5-1.3c-0.3-0.3-0.7-0.4-1.1-0.4
		c-0.4,0-0.9,0.1-1.2,0.4c-0.4,0.4-0.6,0.8-0.7,1.3l-1-0.2c0.1-0.7,0.5-1.4,1.1-1.9c0.5-0.4,1.1-0.6,1.8-0.5c0.8,0,1.6,0.3,2.1,0.8
		c0.5,0.5,0.7,1.1,0.7,1.8c0,1.1-0.4,2.1-1.2,2.9c-1,1.1-2.1,2.1-3.3,2.9h4.6v0.9h-5.8L128.1,35.9z"/>
</g>
<rect x="153.6" y="12.8" class="st3" width="64" height="38.4"/>
<g>
	<path d="M164.5,27.7h1.1v9.1h-1.1V27.7z"/>
	<path d="M167.5,30.1h1v-1.7l1.1-0.3v2h1.7V31h-1.7v4.1c0,0.7,0.3,1,0.8,1c0.3,0,0.7-0.1,0.9-0.3l0.4,0.7c-0.4,0.3-0.9,0.5-1.4,0.5
		c-0.5,0-1-0.2-1.3-0.5c-0.3-0.3-0.4-0.7-0.4-1.1V31h-1L167.5,30.1z"/>
	<path d="M175.8,37c-1,0.1-1.9-0.3-2.6-1.1c-0.5-0.7-0.8-1.5-0.8-2.4c0-1,0.3-1.9,1-2.6c0.5-0.6,1.3-0.9,2.1-0.9
		c0.9,0,1.7,0.3,2.2,1c0.5,0.7,0.7,1.5,0.7,2.3v0.3h-4.8c0,0.4,0.1,0.8,0.2,1.2c0.1,0.3,0.3,0.6,0.5,0.8c0.4,0.3,0.9,0.5,1.5,0.5
		c0.7,0,1.4-0.3,1.8-0.9l0.8,0.6C177.8,36.6,176.8,37.1,175.8,37z M173.6,32.9h3.7c0-0.6-0.2-1.1-0.6-1.5c-0.3-0.3-0.8-0.4-1.2-0.4
		C174.5,30.9,173.9,31.6,173.6,32.9L173.6,32.9z"/>
	<path d="M181.5,31.2c0.3-0.7,1.1-1.2,1.9-1.2c0.8,0,1.6,0.5,1.9,1.3c0.4-0.8,1.2-1.3,2.1-1.3c0.6,0,1.3,0.3,1.6,0.8
		c0.3,0.6,0.5,1.2,0.5,1.9v4.2h-1.1v-4.2c0-0.5-0.1-0.9-0.4-1.3c-0.2-0.2-0.6-0.4-0.9-0.4c-0.5,0-1,0.2-1.3,0.6
		c-0.3,0.4-0.4,0.8-0.4,1.2v4.1h-1.1v-4.2c0-0.5-0.1-0.9-0.4-1.3c-0.2-0.2-0.6-0.4-0.9-0.4c-0.5,0-1,0.2-1.3,0.6
		c-0.3,0.4-0.4,0.8-0.4,1.2v4.1h-1.1v-6.7h1.1L181.5,31.2z"/>
	<path d="M195.9,29.8c0.2-0.6,0.5-1.2,1-1.6c0.6-0.4,1.3-0.7,2-0.6c0.7,0,1.5,0.3,2,0.8c0.4,0.4,0.7,1,0.7,1.7c0,0.9-0.6,1.7-1.5,2
		c0.5,0.1,0.9,0.4,1.3,0.8c0.3,0.4,0.5,1,0.5,1.5c0,0.8-0.4,1.5-1,2c-1.4,0.9-3.2,0.8-4.6-0.2c-0.2-0.2-0.5-0.5-0.6-0.7
		c-0.2-0.3-0.3-0.7-0.3-1l1-0.2c0.2,1.1,1.2,1.9,2.3,1.8c0.6,0,1.1-0.1,1.5-0.5c0.7-0.8,0.6-2-0.2-2.7c-0.4-0.3-1-0.4-1.5-0.4h-0.9
		v-0.9h0.9c0.5,0,1-0.1,1.4-0.5c0.6-0.7,0.6-1.7-0.1-2.3c-0.3-0.3-0.7-0.4-1.2-0.4c-0.5,0-0.9,0.1-1.3,0.4c-0.4,0.3-0.6,0.7-0.8,1.2
		L195.9,29.8z"/>
</g>
</svg>
