<?xml version="1.0" encoding="utf-8"?>
<!--
  ~ Copyright (C) 2020 Robert Bosch GmbH Copyright (C) 2020 Robert Bosch Manufacturing Solutions GmbH, Germany. All rights reserved.
  -->
<!-- Generator: Adobe Illustrator 22.1.0, SVG Export Plug-In . SVG Version: 6.00 Build 0)  -->
<svg version="1.1" id="Layer_1" xmlns="http://www.w3.org/2000/svg" xmlns:xlink="http://www.w3.org/1999/xlink" x="0px" y="0px"
	 viewBox="0 0 224 64" style="enable-background:new 0 0 224 64;" xml:space="preserve">
<style type="text/css">
	.st0{fill:#BFE3F3;fill-opacity:0;}
	.st1{fill:#005691;}
	.st2{fill:#FFFFFF;}
</style>
<title>img-button</title>
<rect x="40" class="st0" width="144" height="64"/>
<rect x="48" y="7" class="st1" width="128" height="48"/>
<g>
	<path class="st2" d="M89,25.6h1.3V37H89V25.6z"/>
	<path class="st2" d="M92.8,28.7h1.3v-2.2l1.3-0.3v2.5h2.1v1.1h-2.1v5.1c0,0.8,0.3,1.2,1,1.2c0.4,0,0.8-0.1,1.1-0.4l0.5,0.9
		c-0.5,0.4-1.1,0.6-1.7,0.6c-0.6,0-1.2-0.2-1.7-0.6c-0.4-0.4-0.5-0.9-0.5-1.4v-5.4h-1.3V28.7z"/>
	<path class="st2" d="M103.1,37.2c-1.2,0.1-2.4-0.4-3.2-1.3c-0.7-0.9-1-1.9-0.9-3c-0.1-1.2,0.4-2.4,1.2-3.3c0.7-0.7,1.6-1.1,2.6-1.1
		c1.1-0.1,2.1,0.4,2.8,1.3c0.6,0.8,0.9,1.9,0.8,2.9v0.4h-6c0,0.5,0.1,1,0.2,1.4c0.1,0.4,0.4,0.7,0.7,1c0.5,0.4,1.2,0.6,1.8,0.6
		c0.9,0.1,1.8-0.4,2.2-1.2l1,0.8C105.6,36.7,104.4,37.3,103.1,37.2z M100.4,32.1h4.6c0-0.7-0.3-1.4-0.7-1.9
		c-0.4-0.4-0.9-0.5-1.5-0.5C101.5,29.6,100.7,30.4,100.4,32.1z"/>
	<path class="st2" d="M110.3,30c0.4-0.9,1.4-1.5,2.3-1.4c1,0,2,0.6,2.3,1.6c0.5-1,1.5-1.6,2.7-1.6c0.8,0,1.5,0.3,2,1
		c0.4,0.7,0.6,1.5,0.6,2.3V37h-1.3v-5.2c0.1-0.6-0.1-1.2-0.4-1.6c-0.3-0.3-0.7-0.5-1.2-0.4c-0.6,0-1.2,0.2-1.6,0.7
		c-0.3,0.4-0.5,1-0.5,1.5V37h-1.3v-5.2c0.1-0.6-0.1-1.2-0.4-1.6c-0.3-0.3-0.7-0.5-1.2-0.4c-0.6,0-1.2,0.2-1.6,0.7
		c-0.3,0.4-0.5,1-0.5,1.5V37h-1.3v-8.3h1.3L110.3,30z"/>
	<path class="st2" d="M132.5,25.4h0.9V37h-1.3v-9.4c-0.4,0.3-0.9,0.4-1.4,0.5c-0.6,0.1-1.2,0.2-1.8,0.2l-0.2-0.9
		c0.8-0.1,1.6-0.3,2.3-0.8C131.7,26.4,132.2,26,132.5,25.4z"/>
</g>
</svg>
