<?xml version="1.0" encoding="utf-8"?>
<!--
  ~ Copyright (C) 2020 Robert Bosch GmbH Copyright (C) 2020 Robert Bosch Manufacturing Solutions GmbH, Germany. All rights reserved.
  -->
<!-- Generator: Adobe Illustrator 22.1.0, SVG Export Plug-In . SVG Version: 6.00 Build 0)  -->
<svg version="1.1" id="Layer_1" xmlns="http://www.w3.org/2000/svg" xmlns:xlink="http://www.w3.org/1999/xlink" x="0px" y="0px"
	 viewBox="0 0 224 64" style="enable-background:new 0 0 224 64;" xml:space="preserve">
<style type="text/css">
	.st0{fill:none;stroke:#EFEFF0;stroke-width:0.5;stroke-miterlimit:10;}
	.st1{fill:#EFEFF0;}
</style>
<title>img-productinfo</title>
<rect x="1" y="1" class="st0" width="74" height="62"/>
<rect x="75" y="1" class="st0" width="74" height="62"/>
<rect x="149.2" y="1" class="st0" width="74" height="62"/>
<g>
	<rect x="1" y="33.2" class="st1" width="74" height="16"/>
	<g>
		<path d="M6.6,38.8h0.5V43H6.6V38.8z"/>
		<path d="M8,39.9h0.5v-0.8L9,39v0.9h0.8v0.4H9v1.9c0,0.3,0.1,0.4,0.4,0.4c0.2,0,0.3,0,0.4-0.1l0.2,0.3c-0.2,0.1-0.4,0.2-0.7,0.2
			c-0.3,0-0.5-0.1-0.6-0.2c-0.1-0.1-0.2-0.3-0.2-0.5v-2H8V39.9z"/>
		<path d="M11.9,43.1c-0.5,0-0.9-0.2-1.2-0.5c-0.2-0.3-0.4-0.7-0.4-1.1c0-0.5,0.1-0.9,0.4-1.2c0.3-0.3,0.6-0.4,1-0.4
			c0.4,0,0.8,0.2,1,0.5c0.2,0.3,0.3,0.6,0.3,1.1v0.2h-2.3c0,0.2,0,0.4,0.1,0.5c0.1,0.1,0.1,0.3,0.2,0.4c0.2,0.1,0.4,0.2,0.7,0.2
			c0.2,0,0.4,0,0.5-0.1s0.2-0.2,0.4-0.3l0.4,0.3C12.8,42.9,12.4,43.1,11.9,43.1z M10.9,41.2h1.7c0-0.3-0.1-0.6-0.3-0.7
			c-0.1-0.1-0.3-0.2-0.6-0.2C11.3,40.3,11,40.6,10.9,41.2z"/>
		<path d="M14.6,40.4c0.2-0.4,0.5-0.5,0.9-0.5c0.4,0,0.7,0.2,0.9,0.6c0.2-0.4,0.6-0.6,1-0.6c0.3,0,0.6,0.1,0.8,0.4
			c0.2,0.2,0.2,0.5,0.2,0.9V43h-0.5v-2c0-0.3-0.1-0.5-0.2-0.6c-0.1-0.1-0.2-0.2-0.4-0.2c-0.3,0-0.4,0.1-0.6,0.3
			c-0.1,0.2-0.2,0.3-0.2,0.6V43h-0.5v-2c0-0.3-0.1-0.5-0.2-0.6c-0.1-0.1-0.2-0.2-0.4-0.2c-0.3,0-0.4,0.1-0.6,0.3
			c-0.1,0.2-0.2,0.3-0.2,0.6V43h-0.5v-3.1h0.5V40.4z"/>
		<path d="M21.3,39.8c0.1-0.3,0.2-0.6,0.5-0.8c0.3-0.2,0.6-0.3,0.9-0.3c0.4,0,0.7,0.1,1,0.4c0.2,0.2,0.3,0.5,0.3,0.8
			c0,0.4-0.2,0.7-0.7,0.9c0.3,0.1,0.5,0.2,0.6,0.4c0.1,0.2,0.2,0.4,0.2,0.7c0,0.4-0.2,0.7-0.5,1c-0.3,0.2-0.6,0.3-1,0.3
			c-0.5,0-0.8-0.1-1.1-0.4c-0.1-0.1-0.2-0.2-0.3-0.3s-0.1-0.3-0.2-0.5l0.5-0.1c0.1,0.6,0.5,0.9,1.1,0.9c0.3,0,0.6-0.1,0.7-0.2
			c0.1-0.1,0.2-0.3,0.2-0.6c0-0.3-0.1-0.5-0.3-0.7c-0.2-0.1-0.4-0.2-0.7-0.2h-0.4v-0.4h0.4c0.3,0,0.5-0.1,0.7-0.2
			c0.1-0.1,0.2-0.3,0.2-0.5c0-0.2-0.1-0.4-0.2-0.6c-0.1-0.1-0.3-0.2-0.5-0.2c-0.2,0-0.4,0.1-0.6,0.2c-0.2,0.1-0.3,0.3-0.4,0.6
			L21.3,39.8z"/>
	</g>
</g>
<g>
	<rect x="75.1" y="0.8" class="st1" width="74" height="16"/>
	<g>
		<path d="M80.7,6.4h0.5v4.3h-0.5V6.4z"/>
		<path d="M82.1,7.6h0.5V6.7l0.5-0.1v0.9h0.8V8h-0.8v1.9c0,0.3,0.1,0.4,0.4,0.4c0.2,0,0.3,0,0.4-0.1l0.2,0.3
			c-0.2,0.1-0.4,0.2-0.7,0.2c-0.3,0-0.5-0.1-0.6-0.2c-0.1-0.1-0.2-0.3-0.2-0.5V8h-0.5V7.6z"/>
		<path d="M86,10.7c-0.5,0-0.9-0.2-1.2-0.5c-0.2-0.3-0.4-0.7-0.4-1.1c0-0.5,0.1-0.9,0.4-1.2c0.3-0.3,0.6-0.4,1-0.4
			c0.4,0,0.8,0.2,1,0.5c0.2,0.3,0.3,0.6,0.3,1.1v0.2H85c0,0.2,0,0.4,0.1,0.5c0.1,0.1,0.1,0.3,0.2,0.4c0.2,0.1,0.4,0.2,0.7,0.2
			c0.2,0,0.4,0,0.5-0.1s0.2-0.2,0.4-0.3l0.4,0.3C86.9,10.6,86.5,10.7,86,10.7z M85,8.8h1.7c0-0.3-0.1-0.6-0.3-0.7
			c-0.1-0.1-0.3-0.2-0.6-0.2C85.4,7.9,85.1,8.2,85,8.8z"/>
		<path d="M88.7,8c0.2-0.4,0.5-0.5,0.9-0.5c0.4,0,0.7,0.2,0.9,0.6c0.2-0.4,0.6-0.6,1-0.6c0.3,0,0.6,0.1,0.8,0.4
			c0.2,0.2,0.2,0.5,0.2,0.9v1.9h-0.5v-2c0-0.3-0.1-0.5-0.2-0.6c-0.1-0.1-0.2-0.2-0.4-0.2c-0.3,0-0.4,0.1-0.6,0.3
			c-0.1,0.2-0.2,0.3-0.2,0.6v1.9H90v-2c0-0.3-0.1-0.5-0.2-0.6c-0.1-0.1-0.2-0.2-0.4-0.2c-0.3,0-0.4,0.1-0.6,0.3
			c-0.1,0.2-0.2,0.3-0.2,0.6v1.9h-0.5V7.6h0.5V8z"/>
		<path d="M95.4,7.4c0.1-0.3,0.2-0.6,0.5-0.8c0.3-0.2,0.6-0.3,0.9-0.3c0.4,0,0.7,0.1,1,0.4c0.2,0.2,0.3,0.5,0.3,0.8
			c0,0.4-0.2,0.7-0.7,0.9c0.3,0.1,0.5,0.2,0.6,0.4c0.1,0.2,0.2,0.4,0.2,0.7c0,0.4-0.2,0.7-0.5,1c-0.3,0.2-0.6,0.3-1,0.3
			c-0.5,0-0.8-0.1-1.1-0.4c-0.1-0.1-0.2-0.2-0.3-0.3s-0.1-0.3-0.2-0.5l0.5-0.1c0.1,0.6,0.5,0.9,1.1,0.9c0.3,0,0.6-0.1,0.7-0.2
			c0.1-0.1,0.2-0.3,0.2-0.6c0-0.3-0.1-0.5-0.3-0.7c-0.2-0.1-0.4-0.2-0.7-0.2h-0.4V8.2h0.4c0.3,0,0.5-0.1,0.7-0.2
			c0.1-0.1,0.2-0.3,0.2-0.5c0-0.2-0.1-0.4-0.2-0.6c-0.1-0.1-0.3-0.2-0.5-0.2c-0.2,0-0.4,0.1-0.6,0.2c-0.2,0.1-0.3,0.3-0.4,0.6
			L95.4,7.4z"/>
		<path d="M99.5,9.9c0.1,0,0.2,0,0.3,0.1s0.1,0.2,0.1,0.3s0,0.2-0.1,0.3c-0.1,0.1-0.2,0.1-0.3,0.1c-0.1,0-0.2,0-0.3-0.1
			s-0.1-0.2-0.1-0.3s0-0.2,0.1-0.3S99.4,9.9,99.5,9.9z"/>
		<path d="M102.6,6.3h0.3v4.4h-0.5V7.1c-0.1,0.1-0.3,0.1-0.5,0.2c-0.2,0.1-0.5,0.1-0.7,0.1l-0.1-0.3c0.3,0,0.6-0.1,0.9-0.3
			C102.2,6.7,102.4,6.5,102.6,6.3z"/>
	</g>
</g>
<rect x="6.9" y="5.8" class="st1" width="22.4" height="6"/>
<rect x="6.9" y="21.8" class="st1" width="47.1" height="6"/>
<rect x="80.8" y="21.8" class="st1" width="33.5" height="6"/>
<rect x="154.9" y="6.1" class="st1" width="41.1" height="6"/>
<rect x="154.9" y="21.8" class="st1" width="55.4" height="6"/>
<rect x="154.9" y="38" class="st1" width="25.9" height="6"/>
</svg>
