<?xml version="1.0" encoding="utf-8"?>
<!--
  ~ Copyright (C) 2020 Robert Bosch GmbH Copyright (C) 2020 Robert Bosch Manufacturing Solutions GmbH, Germany. All rights reserved.
  -->
<!-- Generator: Adobe Illustrator 24.1.0, SVG Export Plug-In . SVG Version: 6.00 Build 0)  -->
<svg version="1.1" id="Ebene_1" xmlns="http://www.w3.org/2000/svg" xmlns:xlink="http://www.w3.org/1999/xlink" x="0px" y="0px"
	 viewBox="0 0 224 64" style="enable-background:new 0 0 224 64;" xml:space="preserve">
<style type="text/css">
	.st0{fill:#EFEFF0;}
	.st1{fill:#FFFFFF;stroke:#606061;stroke-width:0.5;stroke-miterlimit:10;}
	.st2{fill:#FFFFFF;stroke:#8F9091;stroke-width:0.5;stroke-miterlimit:10;}
	.st3{fill:none;}
</style>
<g>
	<rect x="96.5" y="-0.3" class="st0" width="58.9" height="18.3"/>
</g>
<path class="st1" d="M138.8,20.4c-0.6-0.7-1.4-1.1-2-0.5c-0.5,0.5-0.2,1.3,0.2,1.9c0.8,1.4,1.2,1.6,1.9,2.8c0.5,0.8,1,1.5,1.4,2.3
	c0.2,0.5,0.7,1.5,1,2.1h8.2c0.3-1,1-3.4,1.1-5.2c0.1-1,0.3-4.5,0.3-4.5c0-0.6-0.5-1.2-1.2-1.2c-0.6,0-1.2,0.5-1.2,1.2v1.4
	c0,0.1-0.1,0.2-0.2,0.2c-0.1,0-0.2-0.1-0.2-0.2v-2.4c0-0.6-0.5-1.2-1.2-1.2s-1.2,0.5-1.2,1.2v1.4c0,0.1-0.1,0.2-0.2,0.2
	s-0.2-0.1-0.2-0.2v-2.4c0-0.6-0.5-1.2-1.2-1.2c-0.6,0-1.2,0.5-1.2,1.2v1.5c0,0.1-0.1,0.2-0.2,0.2c-0.1,0-0.2-0.1-0.2-0.2v-5.3
	c0-0.6-0.5-1.2-1.2-1.2s-1.2,0.5-1.2,1.2c0,0,0,6.5,0,8.7c0,0.1-0.1,0.2-0.1,0.2c-0.1,0-0.2,0-0.2,0s-0.4-0.5-0.5-0.5
	C139.4,21.1,139.3,21,138.8,20.4z"/>
<g>
	<rect x="66.5" y="15.5" class="st2" width="60.3" height="47.9"/>
	<rect x="71.1" y="20.6" class="st0" width="33.5" height="6"/>
	<rect x="71.1" y="35.9" class="st0" width="45.2" height="6"/>
	<rect x="71.1" y="51.3" class="st0" width="21.1" height="6"/>
</g>
<g>
	<rect x="121.8" y="-7.8" class="st3" width="33.4" height="33.4"/>
	<circle cx="133" cy="8.9" r="1.4"/>
	<circle cx="138.5" cy="8.9" r="1.4"/>
	<circle cx="144.1" cy="8.9" r="1.4"/>
</g>
</svg>
