<?xml version="1.0" encoding="UTF-8" standalone="no"?>
<!--
  ~ Copyright (C) 2020 Robert Bosch GmbH Copyright (C) 2020 Robert Bosch Manufacturing Solutions GmbH, Germany. All rights reserved.
  -->
<svg
   xmlns:dc="http://purl.org/dc/elements/1.1/"
   xmlns:cc="http://creativecommons.org/ns#"
   xmlns:rdf="http://www.w3.org/1999/02/22-rdf-syntax-ns#"
   xmlns:svg="http://www.w3.org/2000/svg"
   xmlns="http://www.w3.org/2000/svg"
   id="svg130"
   version="1.1"
   viewBox="0 0 220 64">
  <metadata
     id="metadata136">
    <rdf:RDF>
      <cc:Work
         rdf:about="">
        <dc:format>image/svg+xml</dc:format>
        <dc:type
           rdf:resource="http://purl.org/dc/dcmitype/StillImage" />
        <dc:title>img-divider</dc:title>
      </cc:Work>
    </rdf:RDF>
  </metadata>
  <defs
     id="defs134" />
  <title
     id="title74">img-divider</title>
  <line
     id="line76"
     stroke-miterlimit="10"
     stroke="#dfdfe0"
     fill="none"
     y2="30.75"
     x2="217"
     y1="30.75"
     x1="3" />
  <g
     id="g102"
     style="isolation:isolate">
    <path
       id="path78"
       d="M20.64,2.06h3.71a5.17,5.17,0,0,1,4.2,1.72,6,6,0,0,1,1.27,4A5.68,5.68,0,0,1,28.2,12.2a5.52,5.52,0,0,1-3.87,1.3H20.64Zm3.8,10.34A3.59,3.59,0,0,0,27.52,11a5.38,5.38,0,0,0,.89-3.29A4.87,4.87,0,0,0,27.24,4.2a3.75,3.75,0,0,0-2.81-1H22V12.4Z" />
    <path
       id="path80"
       d="M33.35,1.65a.88.88,0,0,1,.88.88.88.88,0,1,1-1.76,0,.88.88,0,0,1,.88-.87Zm-.64,3.48H34V13.5H32.71Z" />
    <path
       id="path82"
       d="M36,5.13H37.4l2.24,7,2.2-7h1.38L40.39,13.5H38.83Z" />
    <path
       id="path84"
       d="M45.79,1.65a.88.88,0,0,1,.88.88.88.88,0,1,1-1.76,0,.88.88,0,0,1,.88-.87Zm-.64,3.48h1.33V13.5H45.15Z" />
    <path
       id="path86"
       d="M55.43,12.16a3.09,3.09,0,0,1-2.77,1.48,3.2,3.2,0,0,1-2.73-1.34,5,5,0,0,1-.85-3A4.58,4.58,0,0,1,50.19,6a3.23,3.23,0,0,1,2.46-1,3.12,3.12,0,0,1,2.78,1.52V1.45h1.33v12H55.43ZM52.9,6.09a2.12,2.12,0,0,0-1.89,1,4.11,4.11,0,0,0-.55,2.3q0,3.18,2.4,3.18a2.34,2.34,0,0,0,2-1,3.83,3.83,0,0,0,.59-2.27,3.57,3.57,0,0,0-.78-2.47A2.3,2.3,0,0,0,52.9,6.09Z" />
    <path
       id="path88"
       d="M63.49,13.64a3.93,3.93,0,0,1-3.2-1.34,4.51,4.51,0,0,1-.94-3,4.48,4.48,0,0,1,1.2-3.28A3.5,3.5,0,0,1,63.15,5,3.25,3.25,0,0,1,65.9,6.25a4.65,4.65,0,0,1,.84,2.9v.43h-6A4.54,4.54,0,0,0,61,11a2.43,2.43,0,0,0,.65,1,2.69,2.69,0,0,0,1.85.56,2.46,2.46,0,0,0,2.24-1.15l1,.78A3.62,3.62,0,0,1,63.49,13.64ZM60.77,8.51h4.61a3.06,3.06,0,0,0-.72-1.92,2.08,2.08,0,0,0-1.49-.49Q61.22,6.09,60.77,8.51Z" />
    <path
       id="path90"
       d="M69.27,5.13H70.6V6.48A2.47,2.47,0,0,1,72.84,5a2.83,2.83,0,0,1,1.36.34l-.55,1.12a2.11,2.11,0,0,0-1-.25A1.8,1.8,0,0,0,71.09,7a3.28,3.28,0,0,0-.48,1.88V13.5H69.27Z" />
    <path
       id="path92"
       d="M81.66,1.65a.88.88,0,0,1,.88.88.88.88,0,1,1-1.76,0,.88.88,0,0,1,.88-.87ZM81,5.13h1.33V13.5H81Z" />
    <path
       id="path94"
       d="M84.63,5.13h1.28V3l1.33-.32V5.13h2.11v1.1H87.24v5.11q0,1.2,1,1.2a1.86,1.86,0,0,0,1.13-.4l.52.91a2.8,2.8,0,0,1-1.73.59A2.2,2.2,0,0,1,86.43,13a2,2,0,0,1-.52-1.42V6.23H84.63Z" />
    <path
       id="path96"
       d="M95,13.64a3.93,3.93,0,0,1-3.2-1.34,4.51,4.51,0,0,1-.94-3A4.48,4.48,0,0,1,92,6.05,3.5,3.5,0,0,1,94.63,5a3.25,3.25,0,0,1,2.75,1.26,4.65,4.65,0,0,1,.84,2.9v.43h-6A4.54,4.54,0,0,0,92.43,11a2.43,2.43,0,0,0,.65,1,2.69,2.69,0,0,0,1.85.56,2.46,2.46,0,0,0,2.24-1.15l1,.78A3.62,3.62,0,0,1,95,13.64ZM92.25,8.51h4.61a3.06,3.06,0,0,0-.72-1.92,2.08,2.08,0,0,0-1.49-.49Q92.7,6.09,92.25,8.51Z" />
    <path
       id="path98"
       d="M102.09,6.41A2.52,2.52,0,0,1,104.44,5a2.37,2.37,0,0,1,2.34,1.56A2.91,2.91,0,0,1,109.43,5a2.34,2.34,0,0,1,2,1,4,4,0,0,1,.6,2.34V13.5h-1.33V8.22a2.46,2.46,0,0,0-.44-1.64,1.44,1.44,0,0,0-1.15-.44,1.94,1.94,0,0,0-1.58.7,2.36,2.36,0,0,0-.5,1.55V13.5h-1.33V8.22a2.46,2.46,0,0,0-.44-1.64,1.44,1.44,0,0,0-1.15-.44,1.94,1.94,0,0,0-1.58.7,2.36,2.36,0,0,0-.5,1.55V13.5h-1.33V5.13h1.33Z" />
    <path
       id="path100"
       d="M124.37,1.85h.87V13.5h-1.33V4.06a4.73,4.73,0,0,1-1.41.53,7.58,7.58,0,0,1-1.75.22L120.56,4a5.81,5.81,0,0,0,2.34-.75A4.18,4.18,0,0,0,124.37,1.85Z" />
  </g>
  <g
     id="g128"
     style="isolation:isolate">
    <path
       id="path104"
       d="M20.64,50.06h3.71a5.17,5.17,0,0,1,4.2,1.72,6,6,0,0,1,1.27,4A5.68,5.68,0,0,1,28.2,60.2a5.52,5.52,0,0,1-3.87,1.3H20.64Zm3.8,10.34A3.59,3.59,0,0,0,27.52,59a5.38,5.38,0,0,0,.89-3.29,4.87,4.87,0,0,0-1.16-3.55,3.75,3.75,0,0,0-2.81-1H22V60.4Z" />
    <path
       id="path106"
       d="M33.35,49.65a.88.88,0,1,1-.62.26A.84.84,0,0,1,33.35,49.65Zm-.64,3.48H34V61.5H32.71Z" />
    <path
       id="path108"
       d="M36,53.13H37.4l2.24,7,2.2-7h1.38L40.39,61.5H38.83Z" />
    <path
       id="path110"
       d="M45.79,49.65a.88.88,0,1,1-.62.26A.84.84,0,0,1,45.79,49.65Zm-.64,3.48h1.33V61.5H45.15Z" />
    <path
       id="path112"
       d="M55.43,60.16a3.09,3.09,0,0,1-2.77,1.48,3.2,3.2,0,0,1-2.73-1.34,5,5,0,0,1-.85-3A4.58,4.58,0,0,1,50.19,54a3.23,3.23,0,0,1,2.46-1,3.12,3.12,0,0,1,2.78,1.52V49.45h1.33v12H55.43ZM52.9,54.09a2.12,2.12,0,0,0-1.89,1,4.11,4.11,0,0,0-.55,2.3q0,3.18,2.4,3.18a2.34,2.34,0,0,0,2-1,3.83,3.83,0,0,0,.59-2.27,3.57,3.57,0,0,0-.78-2.47A2.3,2.3,0,0,0,52.9,54.09Z" />
    <path
       id="path114"
       d="M63.49,61.64a3.93,3.93,0,0,1-3.2-1.34,5.12,5.12,0,0,1,.26-6.24A3.5,3.5,0,0,1,63.15,53a3.25,3.25,0,0,1,2.75,1.26,4.65,4.65,0,0,1,.84,2.9v.43h-6A4.54,4.54,0,0,0,61,59a2.43,2.43,0,0,0,.65,1,2.69,2.69,0,0,0,1.85.56,2.46,2.46,0,0,0,2.24-1.15l1,.78A3.62,3.62,0,0,1,63.49,61.64Zm-2.72-5.13h4.61a3.06,3.06,0,0,0-.72-1.92,2.08,2.08,0,0,0-1.49-.49Q61.22,54.09,60.77,56.51Z" />
    <path
       id="path116"
       d="M69.27,53.13H70.6v1.34A2.47,2.47,0,0,1,72.84,53a2.83,2.83,0,0,1,1.36.34l-.55,1.12a2.11,2.11,0,0,0-1-.25,1.8,1.8,0,0,0-1.59.83,3.28,3.28,0,0,0-.48,1.88V61.5H69.27Z" />
    <path
       id="path118"
       d="M81.66,49.65a.88.88,0,1,1-.62.26A.84.84,0,0,1,81.66,49.65ZM81,53.13h1.33V61.5H81Z" />
    <path
       id="path120"
       d="M84.63,53.13h1.28V51l1.33-.32v2.49h2.11v1.1H87.24v5.11q0,1.2,1,1.2a1.86,1.86,0,0,0,1.13-.4l.52.91a2.8,2.8,0,0,1-1.73.59A2.2,2.2,0,0,1,86.43,61a2,2,0,0,1-.52-1.42V54.23H84.63Z" />
    <path
       id="path122"
       d="M95,61.64a3.93,3.93,0,0,1-3.2-1.34A5.12,5.12,0,0,1,92,54.05,3.5,3.5,0,0,1,94.63,53a3.25,3.25,0,0,1,2.75,1.26,4.65,4.65,0,0,1,.84,2.9v.43h-6A4.54,4.54,0,0,0,92.43,59a2.43,2.43,0,0,0,.65,1,2.69,2.69,0,0,0,1.85.56,2.46,2.46,0,0,0,2.24-1.15l1,.78A3.62,3.62,0,0,1,95,61.64Zm-2.72-5.13h4.61a3.06,3.06,0,0,0-.72-1.92,2.08,2.08,0,0,0-1.49-.49Q92.7,54.09,92.25,56.51Z" />
    <path
       id="path124"
       d="M102.09,54.41A2.52,2.52,0,0,1,104.44,53a2.37,2.37,0,0,1,2.34,1.56A2.91,2.91,0,0,1,109.43,53a2.34,2.34,0,0,1,2,1,4,4,0,0,1,.6,2.34V61.5h-1.33V56.22a2.46,2.46,0,0,0-.44-1.64,1.44,1.44,0,0,0-1.15-.44,1.94,1.94,0,0,0-1.58.7,2.36,2.36,0,0,0-.5,1.55V61.5h-1.33V56.22a2.46,2.46,0,0,0-.44-1.64,1.44,1.44,0,0,0-1.15-.44,1.94,1.94,0,0,0-1.58.7,2.36,2.36,0,0,0-.5,1.55V61.5h-1.33V53.13h1.33Z" />
    <path
       id="path126"
       d="M119.92,60.35a25.35,25.35,0,0,0,4.68-4.22,4.78,4.78,0,0,0,1.09-2.91,2.19,2.19,0,0,0-.62-1.68,2,2,0,0,0-1.42-.52,2.14,2.14,0,0,0-1.51.52,3.45,3.45,0,0,0-.88,1.66L120,52.95a3.89,3.89,0,0,1,1.39-2.35,3.61,3.61,0,0,1,2.23-.67,3.45,3.45,0,0,1,2.63,1,3.13,3.13,0,0,1,.84,2.24,5.65,5.65,0,0,1-1.45,3.63,22.66,22.66,0,0,1-4.15,3.59h5.71v1.1h-7.28Z" />
  </g>
</svg>
