<?xml version="1.0" encoding="utf-8"?>
<!--
  ~ Copyright (C) 2020 Robert Bosch GmbH Copyright (C) 2020 Robert Bosch Manufacturing Solutions GmbH, Germany. All rights reserved.
  -->
<!-- Generator: Adobe Illustrator 22.1.0, SVG Export Plug-In . SVG Version: 6.00 Build 0)  -->
<svg version="1.1" id="Ebene_1" xmlns="http://www.w3.org/2000/svg" xmlns:xlink="http://www.w3.org/1999/xlink" x="0px" y="0px"
	 viewBox="0 0 224 64" style="enable-background:new 0 0 224 64;" xml:space="preserve">
<style type="text/css">
	.st0{fill:none;stroke:#EFEFF0;}
	.st1{fill:#EFEFF0;}
	.st2{fill:#7FAAC8;}
	.st3{fill:#AEAEAE;}
	.st4{fill:#D6D6D6;}
</style>
<path class="st0" d="M34.7,1.1h154.6V63H34.7V1.1z"/>
<rect x="34.7" y="1.1" class="st1" width="154.6" height="32.4"/>
<g>
	<path class="st2" d="M180.8,47.8V58h-30.4V47.8H180.8 M181.8,46.8h-32.4V59h32.4L181.8,46.8L181.8,46.8z"/>
</g>
<rect x="43.1" y="48.9" class="st1" width="77.4" height="6.9"/>
<polyline class="st3" points="153,4 115.3,19.9 128.8,26.2 141.8,32.3 188.3,32.3 188.3,19 "/>
<polygon class="st4" points="128.5,26.1 92.1,9 35.7,32.3 141.8,32.3 "/>
<g>
	<path d="M49.9,43.2c-0.2,0.5-0.5,1-0.9,1.3c-0.5,0.4-1.1,0.5-1.8,0.5c-1,0-1.8-0.4-2.4-1.1c-0.5-0.7-0.8-1.5-0.8-2.5
		c0-1.2,0.3-2.1,1-2.8c0.6-0.6,1.3-0.9,2.2-0.9c0.8,0,1.4,0.2,1.9,0.7c0.3,0.3,0.5,0.6,0.6,1L49,39.7c-0.1-0.3-0.3-0.6-0.5-0.8
		c-0.3-0.4-0.8-0.5-1.4-0.5c-0.8,0-1.4,0.3-1.8,0.9c-0.4,0.5-0.5,1.2-0.5,2.1c0,1,0.2,1.8,0.7,2.3c0.4,0.5,1,0.7,1.6,0.7
		s1.1-0.2,1.5-0.6c0.2-0.2,0.3-0.5,0.4-0.8L49.9,43.2z"/>
	<path d="M55.8,44.9c-0.1,0-0.2,0-0.3,0c-0.6,0-0.9-0.2-1.1-0.7c-0.4,0.5-1,0.8-1.6,0.8c-0.5,0-0.9-0.2-1.2-0.5s-0.4-0.6-0.4-1
		s0.1-0.8,0.4-1c0.2-0.2,0.6-0.4,1-0.5s1-0.2,1.8-0.2v-0.3c0-0.4-0.1-0.7-0.3-0.9s-0.4-0.2-0.7-0.2s-0.5,0-0.8,0.1
		c-0.2,0.1-0.5,0.3-0.7,0.5l-0.5-0.5c0.3-0.3,0.6-0.5,0.9-0.6s0.7-0.2,1.1-0.2c0.6,0,1.1,0.2,1.4,0.5c0.3,0.3,0.4,0.8,0.4,1.3v2.3
		c0,0.2,0,0.3,0.1,0.4c0.1,0.1,0.2,0.1,0.5,0.1C55.8,44.3,55.8,44.9,55.8,44.9z M54.4,42.3c-0.9,0-1.5,0.1-1.9,0.3
		C52.2,42.8,52,43,52,43.4c0,0.3,0.1,0.5,0.2,0.6s0.4,0.2,0.7,0.2c0.4,0,0.8-0.1,1.1-0.4c0.2-0.2,0.4-0.5,0.4-0.8V42.3z"/>
	<path d="M57.2,39.6H58v0.8c0.3-0.6,0.8-0.9,1.4-0.9c0.3,0,0.6,0.1,0.8,0.2l-0.3,0.7c-0.2-0.1-0.4-0.2-0.6-0.2c-0.4,0-0.8,0.2-1,0.5
		C58.1,41.1,58,41.5,58,42v2.9h-0.8V39.6z"/>
	<path d="M64.7,44c-0.4,0.6-1,0.9-1.7,0.9s-1.3-0.3-1.7-0.8s-0.5-1.1-0.5-1.9c0-0.9,0.2-1.5,0.7-2c0.4-0.4,0.9-0.6,1.5-0.6
		c0.8,0,1.3,0.3,1.7,0.9v-3.2h0.8v7.5h-0.8V44z M63.1,40.2c-0.5,0-0.9,0.2-1.2,0.6c-0.2,0.3-0.3,0.8-0.3,1.4c0,1.3,0.5,2,1.5,2
		c0.6,0,1-0.2,1.3-0.6c0.2-0.3,0.4-0.8,0.4-1.4c0-0.7-0.2-1.2-0.5-1.5S63.6,40.2,63.1,40.2z"/>
	<path d="M70.2,39.6H71v-1.4l0.8-0.2v1.6h1.3v0.7h-1.3v3.2c0,0.5,0.2,0.7,0.6,0.7c0.3,0,0.5-0.1,0.7-0.2l0.3,0.6
		c-0.3,0.2-0.7,0.4-1.1,0.4c-0.5,0-0.8-0.1-1-0.4c-0.2-0.2-0.3-0.5-0.3-0.9v-3.3h-0.8V39.6z"/>
	<path d="M75.1,37.5c0.1,0,0.3,0.1,0.4,0.2s0.2,0.2,0.2,0.4s-0.1,0.3-0.2,0.4s-0.2,0.2-0.4,0.2c-0.2,0-0.3-0.1-0.4-0.2
		s-0.2-0.2-0.2-0.4c0-0.1,0.1-0.3,0.2-0.4S74.9,37.5,75.1,37.5z M74.7,39.6h0.8v5.2h-0.8V39.6z"/>
	<path d="M76.9,39.6h0.8v-1.4l0.8-0.2v1.6h1.3v0.7h-1.3v3.2c0,0.5,0.2,0.7,0.6,0.7c0.3,0,0.5-0.1,0.7-0.2l0.3,0.6
		C79.8,44.8,79.4,45,79,45c-0.5,0-0.8-0.1-1-0.4c-0.2-0.2-0.3-0.5-0.3-0.9v-3.3h-0.8C76.9,40.4,76.9,39.6,76.9,39.6z"/>
	<path d="M82.7,45c-0.8,0-1.3-0.5-1.3-1.4v-6.2h0.8v6.3c0,0.4,0.2,0.6,0.6,0.6c0.2,0,0.4-0.1,0.5-0.2l0.3,0.6
		C83.4,44.9,83.1,45,82.7,45z"/>
	<path d="M86.8,45c-0.9,0-1.5-0.3-2-0.8c-0.4-0.5-0.6-1.1-0.6-1.9c0-0.9,0.2-1.5,0.7-2.1c0.4-0.4,1-0.7,1.6-0.7
		c0.7,0,1.3,0.3,1.7,0.8c0.3,0.5,0.5,1.1,0.5,1.8v0.3h-3.8c0,0.4,0.1,0.7,0.1,0.9c0.1,0.2,0.2,0.4,0.4,0.6c0.3,0.2,0.6,0.4,1.2,0.4
		c0.3,0,0.6-0.1,0.8-0.2s0.4-0.3,0.6-0.6l0.6,0.5C88.4,44.7,87.7,45,86.8,45z M85.1,41.8H88c-0.1-0.6-0.2-1-0.4-1.2
		c-0.2-0.2-0.5-0.3-0.9-0.3C85.8,40.2,85.3,40.7,85.1,41.8z"/>
	<path d="M96.1,37.6h0.5v7.3h-0.8V39c-0.2,0.1-0.5,0.2-0.9,0.3s-0.8,0.1-1.1,0.1l-0.1-0.5c0.5-0.1,1-0.2,1.5-0.5
		C95.6,38.2,95.9,37.9,96.1,37.6z"/>
</g>
</svg>
