<?xml version="1.0" encoding="utf-8"?>
<!--
  ~ Copyright (C) 2020 Robert Bosch GmbH Copyright (C) 2020 Robert Bosch Manufacturing Solutions GmbH, Germany. All rights reserved.
  -->
<!-- Generator: Adobe Illustrator 22.1.0, SVG Export Plug-In . SVG Version: 6.00 Build 0)  -->
<svg version="1.1" id="Layer_1" xmlns="http://www.w3.org/2000/svg" xmlns:xlink="http://www.w3.org/1999/xlink" x="0px" y="0px"
	 viewBox="0 0 224 64" style="enable-background:new 0 0 224 64;" xml:space="preserve">
<style type="text/css">
	.st0{fill:#EFEFF0;}
	.st1{fill:#BFC0C2;}
	.st2{filter:url(#Adobe_OpacityMaskFilter);}
	.st3{fill:#FFFFFF;}
	.st4{mask:url(#mask-2_2_);}
	.st5{enable-background:new    ;}
</style>
<title>img-selectbox</title>
<title>Dropdown/Menu Label on/Dropdown Menu + Label Default</title>
<desc>Created with Sketch.</desc>
<polygon id="Base" class="st0" points="12,7.5 212,7.5 212,56.5 12,56.5 "/>
<polygon id="Line" class="st1" points="12,55.5 212,55.5 212,56.5 12,56.5 "/>
<defs>
	<filter id="Adobe_OpacityMaskFilter" filterUnits="userSpaceOnUse" x="176" y="19.5" width="24" height="24">
		<feColorMatrix  type="matrix" values="1 0 0 0 0  0 1 0 0 0  0 0 1 0 0  0 0 0 1 0"/>
	</filter>
</defs>
<mask maskUnits="userSpaceOnUse" x="176" y="19.5" width="24" height="24" id="mask-2_2_">
	<g class="st2">
		<polygon id="path-1_2_" class="st3" points="178.2,28.4 178.8,27.6 188,34.4 197.2,27.6 197.8,28.4 188,35.6 		"/>
	</g>
</mask>
<g id="Color_x2F_Black" class="st4">
	<rect id="Base_1_" x="176" y="19.5" width="24" height="24"/>
</g>
<g class="st5">
	<path d="M34.5,31.9c1,0,1.9,0.3,2.7,0.8c0.8,0.5,1.4,1.2,1.9,2.1c0.5,0.9,0.7,1.9,0.7,3c0,1.1-0.2,2.1-0.7,3
		c-0.4,0.9-1.1,1.6-1.9,2.1c-0.8,0.5-1.7,0.8-2.7,0.8c-1,0-1.9-0.3-2.7-0.8c-0.8-0.5-1.4-1.2-1.9-2.1c-0.5-0.9-0.7-1.9-0.7-3.1
		c0-1.1,0.2-2.1,0.7-3c0.5-0.9,1.1-1.6,1.9-2.1C32.6,32.2,33.5,31.9,34.5,31.9z M34.5,33c-1.2,0-2.2,0.5-2.9,1.5
		c-0.6,0.9-0.9,1.9-0.9,3.2c0,1.5,0.4,2.8,1.2,3.7c0.7,0.8,1.6,1.2,2.7,1.2c1.2,0,2.2-0.5,2.9-1.5c0.6-0.9,0.9-2,0.9-3.3
		c0-1.5-0.4-2.7-1.2-3.6C36.5,33.4,35.6,33,34.5,33z"/>
	<path d="M42.7,35.1H44v1.3c0.5-1,1.3-1.5,2.2-1.5c0.5,0,0.9,0.1,1.4,0.3l-0.5,1.1c-0.3-0.2-0.6-0.3-1-0.3c-0.7,0-1.2,0.3-1.6,0.8
		c-0.3,0.5-0.5,1.1-0.5,1.9v4.6h-1.3V35.1z"/>
	<path d="M56.1,43.5c-0.1,0-0.3,0-0.5,0c-0.9,0-1.5-0.4-1.7-1.2c-0.7,0.8-1.6,1.3-2.6,1.3c-0.8,0-1.5-0.2-2-0.7
		c-0.4-0.4-0.6-0.9-0.6-1.6c0-0.7,0.2-1.2,0.7-1.6c0.4-0.4,0.9-0.7,1.6-0.9c0.6-0.2,1.6-0.3,2.8-0.3V38c0-0.7-0.2-1.2-0.5-1.5
		c-0.3-0.3-0.7-0.4-1.2-0.4c-0.4,0-0.8,0.1-1.2,0.2c-0.4,0.2-0.8,0.4-1.2,0.8L49,36.3c0.5-0.5,1-0.8,1.5-1c0.5-0.2,1.1-0.3,1.7-0.3
		c1,0,1.8,0.3,2.3,0.9c0.4,0.5,0.7,1.2,0.7,2.1v3.7c0,0.3,0.1,0.5,0.2,0.6c0.1,0.1,0.4,0.2,0.7,0.2V43.5z M53.8,39.5
		c-1.4,0.1-2.4,0.2-3,0.6c-0.5,0.3-0.8,0.7-0.8,1.3c0,0.4,0.1,0.7,0.4,1s0.6,0.3,1.1,0.3c0.7,0,1.3-0.2,1.7-0.6
		c0.4-0.3,0.6-0.8,0.6-1.3V39.5z"/>
	<path d="M58.2,35.1h1.3v1.3c0.5-0.9,1.4-1.4,2.5-1.4c1,0,1.7,0.3,2.1,1c0.4,0.6,0.6,1.3,0.6,2.4v5.2h-1.3v-5.3
		c0-0.8-0.2-1.3-0.5-1.6c-0.3-0.3-0.7-0.4-1.3-0.4c-0.7,0-1.3,0.2-1.7,0.7c-0.3,0.4-0.5,0.9-0.5,1.6v5.1h-1.3V35.1z"/>
	<path d="M71.7,41.7c1,0,1.8,0.2,2.3,0.7c0.4,0.4,0.7,0.9,0.7,1.6c0,0.9-0.4,1.6-1.2,2.1c-0.7,0.4-1.6,0.6-2.8,0.6
		c-1.2,0-2.1-0.2-2.8-0.7C67.3,45.5,67,45,67,44.3c0-0.8,0.5-1.3,1.4-1.8c-0.5-0.3-0.8-0.7-0.8-1.3c0-0.6,0.3-1.1,0.9-1.4
		c-0.7-0.6-1-1.2-1-2c0-0.9,0.3-1.5,1-2.1c0.6-0.4,1.3-0.7,2.1-0.7c0.6,0,1.1,0.1,1.7,0.4l2.4-0.3v1.2h-1.3c0.4,0.5,0.5,1,0.5,1.6
		c0,0.9-0.3,1.6-1,2c-0.6,0.4-1.3,0.6-2.2,0.6c-0.6,0-1.1-0.1-1.5-0.3c-0.3,0.2-0.4,0.5-0.4,0.8c0,0.3,0.1,0.5,0.3,0.6
		c0.2,0.1,0.5,0.2,1,0.2H71.7z M69.9,42.8c-0.2,0-0.4,0-0.5,0c-0.7,0.3-1.1,0.8-1.1,1.4c0,0.9,0.8,1.4,2.4,1.4
		c1.8,0,2.6-0.5,2.6-1.6c0-0.8-0.6-1.2-1.7-1.2H69.9z M70.7,36c-0.6,0-1.1,0.2-1.4,0.5c-0.3,0.3-0.4,0.7-0.4,1.2
		c0,0.6,0.2,1,0.6,1.3c0.3,0.3,0.8,0.4,1.4,0.4c0.6,0,1.1-0.2,1.4-0.5c0.3-0.3,0.4-0.7,0.4-1.2c0-0.6-0.2-1-0.6-1.3
		C71.7,36.2,71.2,36,70.7,36z"/>
	<path d="M80.1,43.6c-1.4,0-2.5-0.4-3.2-1.3c-0.6-0.8-0.9-1.7-0.9-3c0-1.4,0.4-2.5,1.2-3.3c0.7-0.7,1.6-1.1,2.6-1.1
		c1.2,0,2.1,0.4,2.8,1.3c0.6,0.7,0.8,1.7,0.8,2.9v0.4h-6c0,0.6,0.1,1.1,0.2,1.4c0.1,0.4,0.4,0.7,0.7,1c0.4,0.4,1,0.6,1.9,0.6
		c0.5,0,0.9-0.1,1.3-0.3s0.7-0.5,1-0.9l1,0.8C82.6,43.2,81.6,43.6,80.1,43.6z M77.4,38.5H82c-0.1-0.9-0.3-1.6-0.7-1.9
		c-0.3-0.3-0.8-0.5-1.5-0.5C78.5,36.1,77.7,36.9,77.4,38.5z"/>
	<path d="M92.4,44.2c0,0.8-0.2,1.4-0.6,1.8c-0.4,0.3-0.9,0.5-1.5,0.5c-0.4,0-0.7-0.1-1.1-0.3l0.3-1c0.2,0.1,0.4,0.2,0.6,0.2
		c0.7,0,1-0.4,1-1.1v-9.3h1.3V44.2z M91.7,31.6c0.2,0,0.4,0.1,0.6,0.3c0.2,0.2,0.3,0.4,0.3,0.6c0,0.2-0.1,0.5-0.3,0.6
		c-0.2,0.2-0.4,0.3-0.6,0.3c-0.2,0-0.4-0.1-0.6-0.3s-0.3-0.4-0.3-0.6c0-0.2,0.1-0.4,0.3-0.6S91.4,31.6,91.7,31.6z"/>
	<path d="M100.7,42.2c-0.5,0.9-1.4,1.4-2.5,1.4c-0.9,0-1.6-0.3-2.1-1c-0.4-0.6-0.6-1.3-0.6-2.4v-5.2h1.3v5.3c0,0.8,0.2,1.3,0.5,1.6
		c0.3,0.3,0.7,0.4,1.2,0.4c0.7,0,1.3-0.2,1.7-0.7c0.3-0.4,0.5-0.9,0.5-1.6v-5.1h1.3v8.4h-1.3V42.2z"/>
	<path d="M106,31.6c0.2,0,0.4,0.1,0.6,0.3s0.3,0.4,0.3,0.6c0,0.2-0.1,0.5-0.3,0.6s-0.4,0.3-0.6,0.3c-0.2,0-0.5-0.1-0.6-0.3
		s-0.3-0.4-0.3-0.6c0-0.2,0.1-0.4,0.3-0.6S105.8,31.6,106,31.6z M105.4,35.1h1.3v8.4h-1.3V35.1z"/>
	<path d="M113.3,43.6c-1.3,0-2.2-0.5-3-1.4c-0.6-0.8-1-1.8-1-3c0-1.4,0.4-2.5,1.2-3.3c0.7-0.7,1.6-1,2.7-1c1.3,0,2.4,0.6,3.1,1.7
		l-1.1,0.7c-0.3-0.5-0.6-0.8-0.9-1c-0.3-0.2-0.7-0.3-1.1-0.3c-0.8,0-1.5,0.3-1.9,1c-0.4,0.6-0.6,1.3-0.6,2.3c0,1.1,0.3,1.9,0.8,2.5
		c0.4,0.5,1.1,0.7,1.8,0.7c1,0,1.7-0.4,2.2-1.3l1,0.6c-0.4,0.7-0.9,1.1-1.5,1.4C114.5,43.5,113.9,43.6,113.3,43.6z"/>
	<path d="M122,43.6c-1.4,0-2.5-0.4-3.2-1.3c-0.6-0.8-0.9-1.7-0.9-3c0-1.4,0.4-2.5,1.2-3.3c0.7-0.7,1.6-1.1,2.6-1.1
		c1.2,0,2.1,0.4,2.8,1.3c0.6,0.7,0.8,1.7,0.8,2.9v0.4h-6c0,0.6,0.1,1.1,0.2,1.4c0.1,0.4,0.4,0.7,0.7,1c0.4,0.4,1,0.6,1.9,0.6
		c0.5,0,0.9-0.1,1.3-0.3s0.7-0.5,1-0.9l1,0.8C124.6,43.2,123.5,43.6,122,43.6z M119.3,38.5h4.6c-0.1-0.9-0.3-1.6-0.7-1.9
		c-0.3-0.3-0.8-0.5-1.5-0.5C120.4,36.1,119.6,36.9,119.3,38.5z"/>
</g>
<g class="st5">
	<path d="M29.2,14.9h2.9c1.4,0,2.4,0.4,3.2,1.3c0.6,0.7,1,1.7,1,3c0,1.5-0.4,2.6-1.2,3.3c-0.7,0.7-1.7,1-2.9,1h-2.9V14.9z
		 M32.1,22.5c1,0,1.7-0.3,2.1-0.9c0.4-0.6,0.6-1.3,0.6-2.3c0-1.1-0.3-2-0.8-2.5c-0.5-0.5-1.1-0.7-2-0.7h-1.7v6.5H32.1z"/>
	<path d="M38.2,17.2h1.3v1c0.4-0.8,0.9-1.1,1.7-1.1c0.3,0,0.7,0.1,1,0.3l-0.4,1.1c-0.2-0.1-0.5-0.2-0.7-0.2c-0.5,0-0.9,0.2-1.1,0.6
		c-0.2,0.3-0.4,0.8-0.4,1.3v3.4h-1.3V17.2z"/>
	<path d="M43.9,14.5c0.2,0,0.4,0.1,0.5,0.2s0.2,0.3,0.2,0.5s-0.1,0.4-0.2,0.5s-0.3,0.2-0.5,0.2c-0.2,0-0.4-0.1-0.6-0.2
		s-0.2-0.3-0.2-0.5c0-0.2,0.1-0.4,0.2-0.6S43.7,14.5,43.9,14.5z M43.3,17.2h1.3v6.3h-1.3V17.2z"/>
	<path d="M46.8,17.2h1.3v1c0.4-0.7,1-1.1,1.9-1.1c0.7,0,1.2,0.2,1.6,0.7c0.3,0.4,0.5,1,0.5,1.7v3.9h-1.3v-3.9c0-0.5-0.1-0.9-0.3-1.2
		c-0.2-0.2-0.5-0.3-0.9-0.3c-0.5,0-0.9,0.2-1.1,0.5c-0.2,0.3-0.4,0.6-0.4,1.1v3.8h-1.3V17.2z"/>
	<path d="M56.3,20.6l-0.8,1v1.9h-1.3v-9h1.3v5.6l2.4-2.8h1.4l-2.1,2.5l2.4,3.8h-1.4L56.3,20.6z"/>
</g>
</svg>
