<?xml version="1.0" encoding="utf-8"?>
<!--
  ~ Copyright (C) 2020 Robert Bosch GmbH Copyright (C) 2020 Robert Bosch Manufacturing Solutions GmbH, Germany. All rights reserved.
  -->
<!-- Generator: Adobe Illustrator 22.1.0, SVG Export Plug-In . SVG Version: 6.00 Build 0)  -->
<svg version="1.1" id="Layer_1" xmlns="http://www.w3.org/2000/svg" xmlns:xlink="http://www.w3.org/1999/xlink" x="0px" y="0px"
	 viewBox="0 0 224 64" style="enable-background:new 0 0 224 64;" xml:space="preserve">
<style type="text/css">
	.st0{fill:#EFEFF0;}
	.st1{fill:#BFC0C2;}
	.st2{filter:url(#Adobe_OpacityMaskFilter);}
	.st3{fill:#FFFFFF;}
	.st4{mask:url(#mask-2_2_);}
	.st5{enable-background:new    ;}
</style>
<title>img-datapicker</title>
<g id="Date-Picker_x2F_Input-Default">
	<polygon id="Base" class="st0" points="11.4,7.5 211.4,7.5 211.4,56.5 11.4,56.5 	"/>
	<polygon id="Line" class="st1" points="11.4,55.5 211.4,55.5 211.4,56.5 11.4,56.5 	"/>
	<g id="Icons_x2F_General_x2F_C_x2F_calendar" transform="translate(164.000000, 12.000000)">
		<defs>
			<filter id="Adobe_OpacityMaskFilter" filterUnits="userSpaceOnUse" x="11.4" y="7.5" width="24" height="24">
				<feColorMatrix  type="matrix" values="1 0 0 0 0  0 1 0 0 0  0 0 1 0 0  0 0 0 1 0"/>
			</filter>
		</defs>
		<mask maskUnits="userSpaceOnUse" x="11.4" y="7.5" width="24" height="24" id="mask-2_2_">
			<g class="st2">
				<path id="path-1_2_" class="st3" d="M28.4,11.5V10h-1v1.5h-8V10h-1v1.5h-5v16h20v-16H28.4z M32.4,26.5h-18v-10h18V26.5z
					 M14.4,15.5v-3h4v0.9h1v-0.9h8v0.9h1v-0.9h4v3H14.4z"/>
			</g>
		</mask>
		<g id="Color_x2F_Black" class="st4">
			<rect id="Base_1_" x="11.4" y="7.5" width="24" height="24"/>
		</g>
	</g>
	<g class="st5">
		<path d="M28.5,42.4c2.3-1.7,3.9-3.1,4.7-4.2c0.7-1,1.1-1.9,1.1-2.9c0-0.7-0.2-1.3-0.6-1.7c-0.4-0.3-0.8-0.5-1.4-0.5
			c-0.6,0-1.1,0.2-1.5,0.5c-0.4,0.3-0.7,0.9-0.9,1.7l-1.3-0.3c0.2-1.1,0.7-1.8,1.4-2.4c0.6-0.4,1.3-0.7,2.2-0.7c1.1,0,2,0.3,2.6,1
			c0.6,0.6,0.8,1.3,0.8,2.2c0,1.2-0.5,2.5-1.5,3.6c-0.9,1-2.2,2.2-4.1,3.6h5.7v1.1h-7.3V42.4z"/>
		<path d="M42.8,31.9h0.9v11.6h-1.3v-9.4c-0.3,0.2-0.8,0.4-1.4,0.5c-0.6,0.1-1.2,0.2-1.8,0.2L39,34c0.9-0.1,1.6-0.3,2.3-0.8
			C42,32.8,42.5,32.4,42.8,31.9z"/>
		<path d="M52.1,31.1h1.2l-4.7,14.8h-1.2L52.1,31.1z"/>
		<path d="M59,31.9c1.3,0,2.3,0.6,3.1,1.8c0.7,1.1,1,2.4,1,4c0,1.9-0.4,3.3-1.3,4.4c-0.7,1-1.7,1.4-2.8,1.4c-1.3,0-2.3-0.6-3.1-1.8
			c-0.7-1.1-1-2.4-1-4.1c0-1.8,0.4-3.3,1.3-4.4C56.9,32.4,57.8,31.9,59,31.9z M59,33c-0.9,0-1.5,0.5-2,1.4c-0.4,0.8-0.6,1.9-0.6,3.3
			c0,1.6,0.3,2.8,0.8,3.7c0.5,0.8,1.1,1.1,1.9,1.1c0.9,0,1.6-0.5,2-1.5c0.4-0.8,0.6-1.9,0.6-3.3c0-1.6-0.3-2.8-0.8-3.6
			C60.3,33.4,59.7,33,59,33z"/>
		<path d="M69.4,31.9h0.9v11.6h-1.3v-9.4c-0.3,0.2-0.8,0.4-1.4,0.5c-0.6,0.1-1.2,0.2-1.8,0.2L65.6,34c0.9-0.1,1.6-0.3,2.3-0.8
			C68.6,32.8,69.1,32.4,69.4,31.9z"/>
		<path d="M78.8,31.1H80l-4.7,14.8h-1.2L78.8,31.1z"/>
		<path d="M81.8,42.4c2.3-1.7,3.9-3.1,4.7-4.2c0.7-1,1.1-1.9,1.1-2.9c0-0.7-0.2-1.3-0.6-1.7c-0.4-0.3-0.8-0.5-1.4-0.5
			c-0.6,0-1.1,0.2-1.5,0.5c-0.4,0.3-0.7,0.9-0.9,1.7l-1.3-0.3c0.2-1.1,0.7-1.8,1.4-2.4c0.6-0.4,1.3-0.7,2.2-0.7c1.1,0,2,0.3,2.6,1
			c0.6,0.6,0.8,1.3,0.8,2.2c0,1.2-0.5,2.5-1.5,3.6c-0.9,1-2.2,2.2-4.1,3.6h5.7v1.1h-7.3V42.4z"/>
		<path d="M95.4,31.9c1.3,0,2.3,0.6,3.1,1.8c0.7,1.1,1,2.4,1,4c0,1.9-0.4,3.3-1.3,4.4c-0.7,1-1.7,1.4-2.8,1.4
			c-1.3,0-2.3-0.6-3.1-1.8c-0.7-1.1-1-2.4-1-4.1c0-1.8,0.4-3.3,1.3-4.4C93.3,32.4,94.2,31.9,95.4,31.9z M95.4,33
			c-0.9,0-1.5,0.5-2,1.4c-0.4,0.8-0.6,1.9-0.6,3.3c0,1.6,0.3,2.8,0.8,3.7c0.5,0.8,1.1,1.1,1.9,1.1c0.9,0,1.6-0.5,2-1.5
			c0.4-0.8,0.6-1.9,0.6-3.3c0-1.6-0.3-2.8-0.8-3.6C96.7,33.4,96.1,33,95.4,33z"/>
		<path d="M101.4,42.4c2.3-1.7,3.9-3.1,4.7-4.2c0.7-1,1.1-1.9,1.1-2.9c0-0.7-0.2-1.3-0.6-1.7c-0.4-0.3-0.8-0.5-1.4-0.5
			c-0.6,0-1.1,0.2-1.5,0.5c-0.4,0.3-0.7,0.9-0.9,1.7l-1.3-0.3c0.2-1.1,0.7-1.8,1.4-2.4c0.6-0.4,1.3-0.7,2.2-0.7c1.1,0,2,0.3,2.6,1
			c0.6,0.6,0.8,1.3,0.8,2.2c0,1.2-0.5,2.5-1.5,3.6c-0.9,1-2.2,2.2-4.1,3.6h5.7v1.1h-7.3V42.4z"/>
		<path d="M114.9,31.9c1.3,0,2.3,0.6,3.1,1.8c0.7,1.1,1,2.4,1,4c0,1.9-0.4,3.3-1.3,4.4c-0.7,1-1.7,1.4-2.8,1.4
			c-1.3,0-2.3-0.6-3.1-1.8c-0.7-1.1-1-2.4-1-4.1c0-1.8,0.4-3.3,1.3-4.4C112.8,32.4,113.8,31.9,114.9,31.9z M114.9,33
			c-0.9,0-1.5,0.5-2,1.4c-0.4,0.8-0.6,1.9-0.6,3.3c0,1.6,0.3,2.8,0.8,3.7c0.5,0.8,1.1,1.1,1.9,1.1c0.9,0,1.6-0.5,2-1.5
			c0.4-0.8,0.6-1.9,0.6-3.3c0-1.6-0.3-2.8-0.8-3.6C116.3,33.4,115.7,33,114.9,33z"/>
	</g>
	<g class="st5">
		<path d="M28.6,14.9h2.9c1.4,0,2.4,0.4,3.2,1.3c0.6,0.7,1,1.7,1,3c0,1.5-0.4,2.6-1.2,3.3c-0.7,0.7-1.7,1-2.9,1h-2.9V14.9z
			 M31.6,22.5c1,0,1.7-0.3,2.1-0.9c0.4-0.6,0.6-1.3,0.6-2.3c0-1.1-0.3-2-0.8-2.5c-0.5-0.5-1.1-0.7-2-0.7h-1.7v6.5H31.6z"/>
		<path d="M42.8,23.5c-0.2,0-0.4,0-0.4,0c-0.7,0-1.2-0.3-1.4-0.9c-0.5,0.7-1.1,1-1.9,1c-0.6,0-1.1-0.2-1.5-0.6
			c-0.3-0.3-0.5-0.7-0.5-1.2c0-0.9,0.5-1.5,1.6-1.9c0.5-0.1,1.3-0.2,2.2-0.3v-0.3c0-0.5-0.1-0.8-0.3-1c-0.2-0.2-0.5-0.3-0.9-0.3
			c-0.6,0-1.2,0.2-1.8,0.7L37.2,18c0.4-0.3,0.8-0.6,1.2-0.7s0.9-0.2,1.4-0.2c0.8,0,1.4,0.2,1.8,0.7c0.4,0.4,0.5,0.9,0.5,1.6V22
			c0,0.4,0.2,0.6,0.5,0.6c0.1,0,0.1,0,0.1,0V23.5z M40.8,20.6c-1.7,0-2.6,0.4-2.6,1.2c0,0.3,0.1,0.5,0.3,0.6s0.4,0.2,0.8,0.2
			c0.5,0,0.9-0.1,1.2-0.4c0.3-0.2,0.4-0.5,0.4-0.9V20.6z"/>
		<path d="M43.4,17.2h0.9v-1.5l1.3-0.4v1.9h1.5v1h-1.5v3.5c0,0.6,0.2,0.8,0.7,0.8c0.3,0,0.5-0.1,0.8-0.3l0.4,0.8
			c-0.4,0.3-0.8,0.5-1.3,0.5c-0.6,0-1-0.2-1.3-0.5c-0.3-0.3-0.4-0.7-0.4-1.2v-3.7h-0.9V17.2z"/>
		<path d="M51.2,23.6c-1,0-1.8-0.3-2.3-1c-0.5-0.6-0.7-1.3-0.7-2.2c0-1,0.3-1.9,0.9-2.5c0.5-0.5,1.2-0.8,2-0.8c0.9,0,1.6,0.3,2.1,1
			c0.4,0.6,0.6,1.3,0.6,2.2v0.4h-4.4c0,0.4,0.1,0.7,0.2,1s0.3,0.4,0.5,0.6c0.3,0.2,0.7,0.4,1.2,0.4c0.4,0,0.7-0.1,0.9-0.2
			s0.5-0.3,0.7-0.7l0.9,0.7C53.2,23.2,52.4,23.6,51.2,23.6z M49.5,19.7h3.2c-0.1-0.6-0.2-1.1-0.5-1.3c-0.2-0.2-0.6-0.3-1-0.3
			C50.2,18.1,49.7,18.6,49.5,19.7z"/>
	</g>
</g>
</svg>
