<?xml version="1.0" encoding="utf-8"?>
<!--
  ~ Copyright (C) 2020 Robert Bosch GmbH Copyright (C) 2020 Robert Bosch Manufacturing Solutions GmbH, Germany. All rights reserved.
  -->
<!-- Generator: Adobe Illustrator 22.1.0, SVG Export Plug-In . SVG Version: 6.00 Build 0)  -->
<svg version="1.1" id="Layer_1" xmlns="http://www.w3.org/2000/svg" xmlns:xlink="http://www.w3.org/1999/xlink" x="0px" y="0px"
	 viewBox="0 0 224 64" style="enable-background:new 0 0 224 64;" xml:space="preserve">
<style type="text/css">
	.st0{fill:#EFEFF0;}
	.st1{fill:#BFC0C2;}
	.st2{enable-background:new    ;}
</style>
<title>img-inputfield</title>
<title>Text Field/Standard Label on/Text Field + Label Default</title>
<desc>Created with Sketch.</desc>
<g id="Text-Field_x2F_Standard-Label-on_x2F_Text-Field-_x2B_-Label-Default">
	<polygon id="Base" class="st0" points="12,7.5 212,7.5 212,56.5 12,56.5 	"/>
	<polygon id="Line" class="st1" points="12,55.5 212,55.5 212,56.5 12,56.5 	"/>
	<g class="st2">
		<path d="M33.4,43.6c-2.3,0-3.7-0.9-4.3-2.6l1.2-0.5c0.2,0.8,0.6,1.3,1.2,1.6c0.5,0.3,1.1,0.4,1.9,0.4c0.9,0,1.6-0.2,2.1-0.7
			c0.4-0.4,0.6-0.9,0.6-1.5c0-0.6-0.2-1-0.6-1.3c-0.2-0.2-0.5-0.4-0.8-0.5s-0.9-0.3-1.7-0.5c-1.2-0.3-2.1-0.6-2.6-1
			c-0.6-0.5-1-1.2-1-2.1c0-1,0.4-1.8,1.1-2.3c0.6-0.5,1.5-0.7,2.5-0.7c1.1,0,1.9,0.2,2.5,0.5c0.6,0.3,1,0.8,1.4,1.5l-1.1,0.6
			c-0.3-0.6-0.7-1-1.1-1.3c-0.4-0.2-0.9-0.3-1.6-0.3c-0.8,0-1.4,0.2-1.8,0.6c-0.4,0.3-0.5,0.8-0.5,1.3c0,0.6,0.3,1.1,0.8,1.4
			c0.4,0.2,1,0.4,2,0.6c1.3,0.3,2.3,0.7,2.8,1.1c0.7,0.6,1.1,1.4,1.1,2.3c0,1.1-0.4,1.9-1.2,2.5C35.5,43.4,34.6,43.6,33.4,43.6z"/>
		<path d="M47,43.5c-0.1,0-0.3,0-0.5,0c-0.9,0-1.5-0.4-1.7-1.2c-0.7,0.8-1.6,1.3-2.6,1.3c-0.8,0-1.5-0.2-2-0.7
			c-0.4-0.4-0.6-0.9-0.6-1.6c0-0.7,0.2-1.2,0.7-1.6c0.4-0.4,0.9-0.7,1.6-0.9c0.6-0.2,1.6-0.3,2.8-0.3V38c0-0.7-0.2-1.2-0.5-1.5
			c-0.3-0.3-0.7-0.4-1.2-0.4c-0.4,0-0.8,0.1-1.2,0.2c-0.4,0.2-0.8,0.4-1.2,0.8l-0.8-0.9c0.5-0.5,1-0.8,1.5-1
			c0.5-0.2,1.1-0.3,1.7-0.3c1,0,1.8,0.3,2.3,0.9c0.4,0.5,0.7,1.2,0.7,2.1v3.7c0,0.3,0.1,0.5,0.2,0.6c0.1,0.1,0.4,0.2,0.7,0.2V43.5z
			 M44.7,39.5c-1.4,0.1-2.4,0.2-3,0.6c-0.5,0.3-0.8,0.7-0.8,1.3c0,0.4,0.1,0.7,0.4,1s0.6,0.3,1.1,0.3c0.7,0,1.3-0.2,1.7-0.6
			c0.4-0.3,0.6-0.8,0.6-1.3V39.5z"/>
		<path d="M49.1,35.1h1.3v1.3C51,35.5,51.8,35,53,35c1,0,1.7,0.3,2.1,1c0.4,0.6,0.6,1.3,0.6,2.4v5.2h-1.3v-5.3
			c0-0.8-0.2-1.3-0.5-1.6c-0.3-0.3-0.7-0.4-1.3-0.4c-0.7,0-1.3,0.2-1.7,0.7c-0.3,0.4-0.5,0.9-0.5,1.6v5.1h-1.3V35.1z"/>
		<path d="M64.1,32.1h7.2v1.1h-5.8v4.3h4.7v1.1h-4.7v5h-1.3V32.1z"/>
		<path d="M73,35.1h1.3v1.3c0.5-1,1.3-1.5,2.2-1.5c0.5,0,0.9,0.1,1.4,0.3l-0.5,1.1c-0.3-0.2-0.6-0.3-1-0.3c-0.7,0-1.2,0.3-1.6,0.8
			c-0.3,0.5-0.5,1.1-0.5,1.9v4.6H73V35.1z"/>
		<path d="M86.4,43.5c-0.1,0-0.3,0-0.5,0c-0.9,0-1.5-0.4-1.7-1.2c-0.7,0.8-1.6,1.3-2.6,1.3c-0.8,0-1.5-0.2-2-0.7
			C79.2,42.5,79,42,79,41.3c0-0.7,0.2-1.2,0.7-1.6c0.4-0.4,0.9-0.7,1.6-0.9c0.6-0.2,1.6-0.3,2.8-0.3V38c0-0.7-0.2-1.2-0.5-1.5
			c-0.3-0.3-0.7-0.4-1.2-0.4c-0.4,0-0.8,0.1-1.2,0.2c-0.4,0.2-0.8,0.4-1.2,0.8l-0.8-0.9c0.5-0.5,1-0.8,1.5-1
			c0.5-0.2,1.1-0.3,1.7-0.3c1,0,1.8,0.3,2.3,0.9c0.4,0.5,0.7,1.2,0.7,2.1v3.7c0,0.3,0.1,0.5,0.2,0.6c0.1,0.1,0.4,0.2,0.7,0.2V43.5z
			 M84.1,39.5c-1.4,0.1-2.4,0.2-3,0.6c-0.5,0.3-0.8,0.7-0.8,1.3c0,0.4,0.1,0.7,0.4,1s0.6,0.3,1.1,0.3c0.7,0,1.3-0.2,1.7-0.6
			c0.4-0.3,0.6-0.8,0.6-1.3V39.5z"/>
		<path d="M88.5,35.1h1.3v1.3c0.5-0.9,1.4-1.4,2.5-1.4c1,0,1.7,0.3,2.1,1c0.4,0.6,0.6,1.3,0.6,2.4v5.2h-1.3v-5.3
			c0-0.8-0.2-1.3-0.5-1.6c-0.3-0.3-0.7-0.4-1.3-0.4c-0.7,0-1.3,0.2-1.7,0.7c-0.3,0.4-0.5,0.9-0.5,1.6v5.1h-1.3V35.1z"/>
		<path d="M101.6,43.6c-1.3,0-2.2-0.5-3-1.4c-0.6-0.8-1-1.8-1-3c0-1.4,0.4-2.5,1.2-3.3c0.7-0.7,1.6-1,2.7-1c1.3,0,2.4,0.6,3.1,1.7
			l-1.1,0.7c-0.3-0.5-0.6-0.8-0.9-1c-0.3-0.2-0.7-0.3-1.1-0.3c-0.8,0-1.5,0.3-1.9,1c-0.4,0.6-0.6,1.3-0.6,2.3c0,1.1,0.3,1.9,0.8,2.5
			c0.4,0.5,1.1,0.7,1.8,0.7c1,0,1.7-0.4,2.2-1.3l1,0.6c-0.4,0.7-0.9,1.1-1.5,1.4C102.9,43.5,102.3,43.6,101.6,43.6z"/>
		<path d="M107.8,31.6c0.2,0,0.4,0.1,0.6,0.3s0.3,0.4,0.3,0.6c0,0.2-0.1,0.5-0.3,0.6s-0.4,0.3-0.6,0.3c-0.2,0-0.5-0.1-0.6-0.3
			s-0.3-0.4-0.3-0.6c0-0.2,0.1-0.4,0.3-0.6S107.5,31.6,107.8,31.6z M107.1,35.1h1.3v8.4h-1.3V35.1z"/>
		<path d="M114.3,43.6c-1.4,0-2.6-0.5-3.5-1.6l1-0.8c0.4,0.5,0.7,0.8,1.1,1c0.3,0.2,0.8,0.3,1.4,0.3c0.7,0,1.1-0.1,1.5-0.4
			c0.3-0.2,0.4-0.5,0.4-0.9c0-0.4-0.2-0.7-0.5-0.9c-0.2-0.1-0.3-0.2-0.5-0.2c-0.2-0.1-0.6-0.2-1.2-0.3c-1-0.2-1.7-0.6-2.1-1
			c-0.4-0.4-0.5-0.9-0.5-1.5c0-0.8,0.3-1.4,0.9-1.8c0.5-0.4,1.2-0.5,2-0.5c0.6,0,1.2,0.1,1.6,0.3c0.4,0.2,0.9,0.5,1.3,0.9l-0.9,0.9
			c-0.3-0.4-0.7-0.6-1-0.8s-0.7-0.2-1.1-0.2c-0.5,0-0.9,0.1-1.2,0.3c-0.2,0.2-0.4,0.5-0.4,0.8c0,0.4,0.1,0.6,0.4,0.8
			c0.3,0.2,0.8,0.3,1.5,0.5c0.6,0.2,1.1,0.3,1.4,0.4s0.6,0.3,0.8,0.5c0.4,0.4,0.7,0.9,0.7,1.6c0,0.8-0.3,1.4-1,1.9
			C115.9,43.4,115.2,43.6,114.3,43.6z"/>
		<path d="M123.3,43.6c-1.3,0-2.2-0.5-3-1.4c-0.6-0.8-1-1.8-1-3c0-1.4,0.4-2.5,1.2-3.3c0.7-0.7,1.6-1,2.7-1c1.3,0,2.4,0.6,3.1,1.7
			l-1.1,0.7c-0.3-0.5-0.6-0.8-0.9-1c-0.3-0.2-0.7-0.3-1.1-0.3c-0.8,0-1.5,0.3-1.9,1c-0.4,0.6-0.6,1.3-0.6,2.3c0,1.1,0.3,1.9,0.8,2.5
			c0.4,0.5,1.1,0.7,1.8,0.7c1,0,1.7-0.4,2.2-1.3l1,0.6c-0.4,0.7-0.9,1.1-1.5,1.4C124.5,43.5,123.9,43.6,123.3,43.6z"/>
		<path d="M131.9,35c1.2,0,2.2,0.5,2.9,1.4c0.7,0.8,1,1.8,1,2.9c0,1.4-0.4,2.4-1.3,3.3c-0.7,0.7-1.6,1.1-2.7,1.1
			c-1.2,0-2.2-0.5-3-1.4c-0.7-0.8-1-1.8-1-2.9c0-1.4,0.4-2.4,1.3-3.3C129.9,35.3,130.8,35,131.9,35z M131.9,36.1c-0.9,0-1.5,0.3-2,1
			c-0.4,0.6-0.6,1.3-0.6,2.3c0,1,0.3,1.9,0.8,2.4c0.5,0.5,1.1,0.8,1.8,0.8c0.8,0,1.5-0.3,2-1c0.4-0.6,0.6-1.3,0.6-2.2
			c0-1-0.3-1.9-0.8-2.5C133.2,36.4,132.6,36.1,131.9,36.1z"/>
	</g>
	<g class="st2">
		<path d="M32.7,23.6c-1.3,0-2.3-0.5-3-1.4c-0.6-0.8-0.9-1.8-0.9-3c0-1.4,0.4-2.5,1.2-3.4c0.7-0.7,1.6-1.1,2.7-1.1
			c1,0,1.8,0.3,2.4,0.9c0.3,0.3,0.6,0.7,0.8,1.2l-1.1,0.5c-0.2-0.6-0.5-1-0.9-1.2c-0.3-0.2-0.7-0.3-1.2-0.3c-0.9,0-1.5,0.3-2,1
			c-0.4,0.6-0.6,1.4-0.6,2.4c0,1.1,0.3,2,0.8,2.6c0.5,0.5,1.1,0.8,1.8,0.8c0.6,0,1-0.1,1.4-0.4c0.3-0.3,0.5-0.7,0.7-1.2l1.2,0.5
			c-0.3,0.7-0.7,1.2-1.1,1.5C34.4,23.4,33.6,23.6,32.7,23.6z"/>
		<path d="M38.6,14.5c0.2,0,0.4,0.1,0.5,0.2s0.2,0.3,0.2,0.5s-0.1,0.4-0.2,0.5s-0.3,0.2-0.5,0.2c-0.2,0-0.4-0.1-0.6-0.2
			s-0.2-0.3-0.2-0.5c0-0.2,0.1-0.4,0.2-0.6S38.4,14.5,38.6,14.5z M38,17.2h1.3v6.3H38V17.2z"/>
		<path d="M40.8,17.2h0.9v-1.5l1.3-0.4v1.9h1.5v1H43v3.5c0,0.6,0.2,0.8,0.7,0.8c0.3,0,0.5-0.1,0.8-0.3l0.4,0.8
			c-0.4,0.3-0.8,0.5-1.3,0.5c-0.6,0-1-0.2-1.3-0.5c-0.3-0.3-0.4-0.7-0.4-1.2v-3.7h-0.9V17.2z"/>
		<path d="M48.8,24.3c-0.4,1-1,1.5-1.8,1.5c-0.5,0-0.9-0.1-1.3-0.4l0.4-0.9c0.2,0.2,0.5,0.3,0.8,0.3c0.4,0,0.8-0.3,0.9-0.8l0.2-0.6
			l-2.4-6.2h1.3l1.6,4.5l1.5-4.5h1.3L48.8,24.3z"/>
	</g>
</g>
</svg>
