<?xml version="1.0" encoding="utf-8"?>
<!--
  ~ Copyright (C) 2020 Robert Bosch GmbH Copyright (C) 2020 Robert Bosch Manufacturing Solutions GmbH, Germany. All rights reserved.
  -->
<!-- Generator: Adobe Illustrator 22.1.0, SVG Export Plug-In . SVG Version: 6.00 Build 0)  -->
<svg version="1.1" id="Layer_1" xmlns="http://www.w3.org/2000/svg" xmlns:xlink="http://www.w3.org/1999/xlink" x="0px" y="0px"
	 viewBox="0 0 224 64" style="enable-background:new 0 0 224 64;" xml:space="preserve">
<style type="text/css">
	.st0{fill:#BFE3F3;fill-opacity:0;}
	.st1{fill:none;stroke:#005691;stroke-width:2;stroke-miterlimit:10;}
	.st2{fill:none;stroke:#EFEFF0;stroke-width:2;stroke-miterlimit:10;}
	.st3{fill:#005691;}
	.st4{fill:#EFEFF0;}
	.st5{fill:#FFFFFF;}
</style>
<title>img-stepper</title>
<rect class="st0" width="224" height="64"/>
<line class="st1" x1="46.8" y1="32.2" x2="101.3" y2="32.2"/>
<line class="st2" x1="122.8" y1="32.2" x2="177.3" y2="32.2"/>
<circle class="st3" cx="35.8" cy="32" r="12"/>
<circle class="st3" cx="111.8" cy="32" r="12"/>
<circle class="st4" cx="187.8" cy="32" r="12"/>
<g>
	<g>
		<path class="st5" d="M36.7,26.7h0.8v10.2h-1.2v-8.3c-0.4,0.2-0.8,0.4-1.2,0.5c-0.5,0.1-1,0.2-1.5,0.2l-0.2-0.8
			c0.7-0.1,1.4-0.3,2-0.7C36,27.6,36.4,27.2,36.7,26.7z"/>
	</g>
</g>
<g>
	<g>
		<path class="st5" d="M108.8,35.9c1.5-1.1,2.9-2.3,4.1-3.7c0.6-0.7,1-1.6,1-2.5c0-0.5-0.2-1.1-0.6-1.5c-0.3-0.3-0.8-0.5-1.2-0.5
			c-0.5,0-1,0.1-1.3,0.5c-0.4,0.4-0.7,0.9-0.8,1.5l-1.1-0.2c0.1-0.8,0.6-1.5,1.2-2.1c0.6-0.4,1.3-0.6,1.9-0.6c0.9,0,1.7,0.3,2.3,0.9
			c0.5,0.5,0.8,1.3,0.7,2c0,1.2-0.5,2.3-1.3,3.2c-1.1,1.2-2.3,2.2-3.6,3.1h5v1h-6.4L108.8,35.9z"/>
	</g>
</g>
</svg>
