<?xml version="1.0" encoding="utf-8"?>
<!--
  ~ Copyright (C) 2020 Robert Bosch GmbH Copyright (C) 2020 Robert Bosch Manufacturing Solutions GmbH, Germany. All rights reserved.
  -->
<!-- Generator: Adobe Illustrator 22.1.0, SVG Export Plug-In . SVG Version: 6.00 Build 0)  -->
<svg version="1.1" id="Layer_1" xmlns="http://www.w3.org/2000/svg" xmlns:xlink="http://www.w3.org/1999/xlink" x="0px" y="0px"
	 viewBox="0 0 224 64" style="enable-background:new 0 0 224 64;" xml:space="preserve">
<style type="text/css">
	.st0{fill:#EFEFF0;}
	.st1{fill:none;stroke:#EFEFF0;stroke-miterlimit:10;}
	.st2{fill:#BFC0C2;}
	.st3{fill:#005691;}
</style>
<title>img-tab</title>
<circle class="st0" cx="27.3" cy="59.7" r="4.3"/>
<circle class="st0" cx="27.3" cy="36.3" r="4.3"/>
<rect x="48" y="56.2" class="st0" width="32" height="7.1"/>
<rect x="101.8" y="56.2" class="st0" width="22.7" height="7.1"/>
<rect x="155.1" y="56.2" class="st0" width="38.6" height="7.1"/>
<rect x="48" y="32.7" class="st0" width="19.7" height="7.1"/>
<rect x="101.8" y="32.7" class="st0" width="32.6" height="7.1"/>
<rect x="155.1" y="32.7" class="st0" width="45.1" height="7.1"/>
<line class="st1" x1="11.6" y1="23.9" x2="212.4" y2="23.9"/>
<rect x="11.6" y="23.4" class="st2" width="200.8" height="0.9"/>
<rect x="27" y="23.4" class="st3" width="30.4" height="0.9"/>
<g>
	<path class="st3" d="M39.6,10.8h-0.3c-0.4,0.1-0.8-0.2-0.9-0.6c-0.3,0.4-0.9,0.7-1.5,0.7c-0.4,0-0.8-0.1-1.1-0.4
		c-0.3-0.3-0.4-0.6-0.4-0.9s0.1-0.7,0.4-0.9c0.3-0.3,0.6-0.4,0.9-0.5c0.5-0.1,1-0.2,1.6-0.2V7.6c0-0.3-0.1-0.6-0.3-0.8
		c-0.2-0.1-0.4-0.3-0.6-0.2c-0.3,0-0.4,0.1-0.6,0.1c-0.3,0.1-0.4,0.3-0.6,0.4l-0.4-0.5c0.3-0.2,0.5-0.4,0.8-0.5
		C36.8,6,37.1,6,37.4,6c0.4-0.1,0.9,0.1,1.3,0.5c0.3,0.3,0.4,0.8,0.4,1.1v2.1c0,0.1,0,0.3,0.1,0.3s0.3,0.1,0.4,0.1L39.6,10.8z
		 M38.3,8.5c-0.6,0-1.1,0.1-1.7,0.3c-0.3,0.1-0.4,0.4-0.4,0.7c0,0.2,0.1,0.4,0.2,0.5c0.2,0.1,0.4,0.2,0.6,0.2c0.3,0,0.7-0.1,0.9-0.3
		c0.2-0.2,0.3-0.4,0.3-0.7L38.3,8.5z"/>
	<path class="st3" d="M41.5,6.8C41.8,6.3,42.4,6,43,6c0.6,0,1.1,0.3,1.5,0.8C44.8,7.3,45,7.8,45,8.4c0.1,0.7-0.2,1.3-0.6,1.8
		c-0.4,0.4-0.8,0.6-1.4,0.6c-0.6,0-1.2-0.3-1.5-0.8v0.7h-0.7V4.1h0.8L41.5,6.8L41.5,6.8z M42.9,6.6c-0.4,0-0.9,0.2-1.1,0.5
		c-0.3,0.4-0.4,0.8-0.3,1.3c-0.1,0.5,0.1,1,0.4,1.4c0.3,0.3,0.6,0.4,1,0.4c0.9,0,1.3-0.6,1.3-1.8c0.1-0.5-0.1-1-0.4-1.4
		C43.6,6.8,43.3,6.6,42.9,6.6L42.9,6.6z"/>
	<path class="st3" d="M51.5,4.2H52v6.5h-0.8V5.4c-0.3,0.1-0.5,0.3-0.8,0.3c-0.3,0.1-0.6,0.1-0.9,0.1l-0.1-0.5
		c0.4-0.1,0.9-0.2,1.3-0.4C51,4.8,51.3,4.6,51.5,4.2z"/>
	<path class="st3" d="M32.7,5h-2V4.4h4.7V5h-2v5.7h-0.7L32.7,5C32.8,5,32.7,5,32.7,5z"/>
</g>
<g>
	<path d="M79.8,5h-2V4.4h4.7V5h-2v5.7h-0.8L79.8,5L79.8,5z"/>
	<path d="M86.7,10.8h-0.3c-0.4,0.1-0.8-0.2-0.9-0.6c-0.3,0.4-0.9,0.7-1.5,0.7c-0.4,0-0.8-0.1-1.1-0.4c-0.3-0.3-0.4-0.6-0.4-0.9
		s0.1-0.7,0.4-0.9c0.3-0.3,0.6-0.4,0.9-0.5c0.5-0.1,1-0.2,1.6-0.3V7.6c0-0.3-0.1-0.6-0.3-0.8c-0.2-0.1-0.4-0.3-0.6-0.2
		c-0.3,0-0.4,0.1-0.7,0.1c-0.3,0.1-0.4,0.3-0.6,0.4l-0.4-0.5c0.3-0.3,0.5-0.4,0.8-0.5s0.6-0.2,0.9-0.2c0.4-0.1,0.9,0.1,1.3,0.5
		c0.3,0.3,0.4,0.8,0.4,1.1v2.1c0,0.1,0,0.3,0.1,0.3c0.1,0.1,0.3,0.1,0.4,0.1L86.7,10.8z M85.4,8.5c-0.6,0-1.1,0.1-1.6,0.3
		c-0.3,0.1-0.4,0.4-0.4,0.7c0,0.2,0.1,0.4,0.3,0.5c0.2,0.1,0.4,0.2,0.6,0.2c0.3,0,0.7-0.1,0.9-0.3c0.2-0.2,0.3-0.4,0.3-0.7L85.4,8.5
		L85.4,8.5z"/>
	<path d="M88.6,6.8C88.9,6.3,89.5,6,90.1,6s1.1,0.3,1.5,0.8c0.3,0.5,0.5,1.1,0.5,1.6c0.1,0.7-0.2,1.3-0.6,1.8
		c-0.4,0.4-0.8,0.6-1.4,0.6c-0.6,0-1.2-0.3-1.5-0.8v0.7h-0.8V4.1h0.8V6.8z M90,6.6c-0.4,0-0.9,0.2-1.1,0.5c-0.3,0.4-0.4,0.8-0.3,1.3
		c-0.1,0.5,0.1,1,0.4,1.4c0.3,0.3,0.6,0.4,1,0.4c0.9,0,1.3-0.6,1.3-1.8c0.1-0.5-0.1-1-0.4-1.4C90.7,6.8,90.3,6.6,90,6.6L90,6.6z"/>
	<path d="M96.1,10.1c0.9-0.7,1.8-1.5,2.6-2.3c0.4-0.4,0.6-1,0.6-1.6c0-0.3-0.1-0.7-0.4-0.9c-0.2-0.2-0.5-0.3-0.8-0.3
		c-0.3,0-0.6,0.1-0.8,0.3c-0.3,0.3-0.4,0.6-0.5,0.9L96.2,6c0.1-0.5,0.4-0.9,0.8-1.3c0.4-0.3,0.8-0.4,1.2-0.4c0.6,0,1.1,0.2,1.5,0.6
		c0.3,0.3,0.5,0.8,0.4,1.3c0,0.8-0.3,1.5-0.8,2c-0.7,0.8-1.5,1.4-2.3,2h3.2v0.6h-4L96.1,10.1z"/>
</g>
<g>
	<path d="M127,5h-2V4.4h4.7V5h-2v5.7H127L127,5L127,5z"/>
	<path d="M133.9,10.8h-0.3c-0.4,0.1-0.8-0.2-0.9-0.6c-0.3,0.4-0.9,0.7-1.5,0.7c-0.4,0-0.8-0.1-1.1-0.4c-0.3-0.3-0.4-0.6-0.4-0.9
		s0.1-0.7,0.4-0.9c0.3-0.3,0.6-0.4,0.9-0.5c0.5-0.1,1-0.2,1.6-0.3V7.6c0-0.3-0.1-0.6-0.3-0.8c-0.2-0.1-0.4-0.3-0.6-0.2
		c-0.3,0-0.4,0.1-0.7,0.1c-0.3,0.1-0.4,0.3-0.6,0.4L130,6.6c0.3-0.3,0.5-0.4,0.8-0.5c0.3-0.1,0.6-0.2,0.9-0.2
		c0.4-0.1,0.9,0.1,1.3,0.5c0.3,0.3,0.4,0.8,0.4,1.1v2.1c0,0.1,0,0.3,0.1,0.3c0.1,0.1,0.3,0.1,0.4,0.1L133.9,10.8z M132.6,8.5
		c-0.6,0-1.1,0.1-1.6,0.3c-0.3,0.1-0.4,0.4-0.4,0.7c0,0.2,0.1,0.4,0.3,0.5s0.4,0.2,0.6,0.2c0.3,0,0.7-0.1,0.9-0.3
		c0.2-0.2,0.3-0.4,0.3-0.7L132.6,8.5L132.6,8.5z"/>
	<path d="M135.8,6.8c0.3-0.5,0.9-0.8,1.5-0.8s1.1,0.3,1.5,0.8c0.3,0.5,0.5,1.1,0.5,1.6c0.1,0.7-0.2,1.3-0.6,1.8
		c-0.4,0.4-0.8,0.6-1.4,0.6c-0.6,0-1.2-0.3-1.5-0.8v0.7H135V4.1h0.8V6.8z M137.2,6.6c-0.4,0-0.9,0.2-1.1,0.5
		c-0.3,0.4-0.4,0.8-0.3,1.3c-0.1,0.5,0.1,1,0.4,1.4c0.3,0.3,0.6,0.4,1,0.4c0.9,0,1.3-0.6,1.3-1.8c0.1-0.5-0.1-1-0.4-1.4
		C137.9,6.8,137.5,6.6,137.2,6.6L137.2,6.6z"/>
	<g>
		<path d="M144.6,7.7V7h0.6c0.4,0,0.7-0.1,0.9-0.4c0.1-0.2,0.2-0.4,0.2-0.7c0-0.3-0.1-0.5-0.2-0.7c-0.2-0.3-0.5-0.4-0.8-0.4
			c-0.4,0-0.7,0.1-1,0.4c-0.1,0.1-0.2,0.4-0.3,0.6l-0.7-0.2c0.1-0.5,0.4-0.9,0.7-1.1c0.3-0.3,0.8-0.4,1.3-0.4c0.6,0,1.1,0.2,1.4,0.5
			c0.3,0.3,0.5,0.7,0.5,1.2c0,0.4-0.1,0.8-0.4,1c-0.1,0.1-0.3,0.3-0.6,0.4c0.4,0.1,0.7,0.3,0.8,0.6c0.2,0.3,0.3,0.6,0.3,1
			c0,0.6-0.2,1-0.5,1.3c-0.4,0.4-0.9,0.5-1.6,0.5c-0.7,0-1.2-0.2-1.6-0.6c-0.2-0.2-0.4-0.4-0.5-0.6c-0.1-0.1-0.1-0.3-0.2-0.6
			l0.8-0.2c0.2,0.8,0.7,1.3,1.5,1.3c0.4,0,0.8-0.1,1-0.4c0.2-0.2,0.2-0.5,0.2-0.8c0-0.4-0.1-0.7-0.3-0.9c-0.2-0.2-0.5-0.3-1-0.3
			H144.6z"/>
	</g>
</g>
</svg>
