<?xml version="1.0" encoding="utf-8"?>
<!--
  ~ Copyright (C) 2020 Robert Bosch GmbH Copyright (C) 2020 Robert Bosch Manufacturing Solutions GmbH, Germany. All rights reserved.
  -->
<!-- Generator: Adobe Illustrator 22.1.0, SVG Export Plug-In . SVG Version: 6.00 Build 0)  -->
<svg version="1.1" id="Layer_1" xmlns="http://www.w3.org/2000/svg" xmlns:xlink="http://www.w3.org/1999/xlink" x="0px" y="0px"
	 viewBox="0 0 224 64" style="enable-background:new 0 0 224 64;" xml:space="preserve">
<style type="text/css">
	.st0{fill:#DFDFE0;}
	.st1{fill:#005691;}
	.st2{fill:none;stroke:#FFFFFF;stroke-width:2;stroke-miterlimit:10;}
</style>
<title>img-checkbox</title>
<rect x="121.9" y="20" class="st0" width="24" height="24"/>
<g>
	<path d="M155.8,26.6h1.3V38h-1.3V26.6z"/>
	<path d="M159.6,29.7h1.3v-2.2l1.3-0.3v2.5h2.1v1.1h-2.1v5.1c0,0.8,0.3,1.2,1,1.2c0.4,0,0.8-0.1,1.1-0.4l0.5,0.9
		c-0.5,0.4-1.1,0.6-1.7,0.6c-0.6,0-1.2-0.2-1.7-0.6c-0.4-0.4-0.5-0.9-0.5-1.4v-5.4h-1.3L159.6,29.7z"/>
	<path d="M170,38.2c-1.2,0.1-2.4-0.4-3.2-1.3c-0.7-0.9-1-1.9-0.9-3c-0.1-1.2,0.4-2.4,1.2-3.3c0.7-0.7,1.6-1.1,2.6-1.1
		c1.1-0.1,2.1,0.4,2.8,1.3c0.6,0.8,0.9,1.9,0.8,2.9v0.4h-6c0,0.5,0.1,1,0.2,1.4c0.1,0.4,0.4,0.7,0.6,1c0.5,0.4,1.2,0.6,1.9,0.6
		c0.9,0.1,1.8-0.4,2.2-1.2l1,0.8C172.5,37.7,171.3,38.3,170,38.2z M167.3,33h4.6c0-0.7-0.3-1.4-0.7-1.9c-0.4-0.4-0.9-0.5-1.5-0.5
		C168.4,30.6,167.6,31.4,167.3,33z"/>
	<path d="M177.1,30.9c0.4-0.9,1.4-1.5,2.4-1.4c1,0,2,0.6,2.3,1.6c0.5-1,1.5-1.6,2.7-1.6c0.8,0,1.5,0.3,2,1c0.4,0.7,0.6,1.5,0.6,2.3
		V38h-1.3v-5.3c0.1-0.6-0.1-1.2-0.4-1.6c-0.3-0.3-0.7-0.5-1.1-0.4c-0.6,0-1.2,0.2-1.6,0.7c-0.3,0.4-0.5,1-0.5,1.6V38h-1.3v-5.3
		c0.1-0.6-0.1-1.2-0.4-1.6c-0.3-0.3-0.7-0.5-1.1-0.4c-0.6,0-1.2,0.2-1.6,0.7c-0.3,0.4-0.5,1-0.5,1.6V38h-1.3v-8.3h1.3L177.1,30.9z"
		/>
	<path d="M194.9,36.9c1.7-1.2,3.3-2.6,4.7-4.2c0.7-0.8,1.1-1.8,1.1-2.9c0-0.6-0.2-1.2-0.6-1.7c-0.4-0.4-0.9-0.5-1.4-0.5
		c-0.6,0-1.1,0.2-1.5,0.5c-0.4,0.5-0.7,1-0.9,1.7l-1.3-0.3c0.2-0.9,0.7-1.8,1.4-2.4c0.6-0.5,1.4-0.7,2.2-0.7c1-0.1,1.9,0.3,2.6,1
		c0.6,0.6,0.9,1.4,0.8,2.2c0,1.3-0.6,2.6-1.4,3.6c-1.2,1.4-2.6,2.6-4.1,3.6h5.7V38h-7.3L194.9,36.9z"/>
</g>
<rect x="20.7" y="20.4" class="st1" width="24" height="24"/>
<path class="st2" d="M25.2,32.4l5,5l10-10"/>
<g>
	<path d="M54.6,27H56v11.4h-1.4V27z"/>
	<path d="M58.5,30h1.3v-2.1l1.3-0.3V30h2.1v1.1h-2.1v5.1c0,0.8,0.3,1.2,1,1.2c0.4,0,0.8-0.1,1.1-0.4l0.5,0.9
		c-0.5,0.4-1.1,0.6-1.7,0.6c-0.6,0-1.2-0.2-1.7-0.6c-0.4-0.4-0.5-0.9-0.5-1.4v-5.4h-1.3V30z"/>
	<path d="M68.8,38.5c-1.2,0.1-2.4-0.4-3.2-1.3c-0.7-0.9-1-1.9-0.9-3c-0.1-1.2,0.4-2.4,1.2-3.3c0.7-0.7,1.6-1.1,2.6-1.1
		c1.1-0.1,2.1,0.4,2.8,1.3c0.6,0.8,0.9,1.9,0.8,2.9v0.4H66c0,0.5,0.1,1,0.2,1.4c0.1,0.4,0.4,0.7,0.7,1c0.5,0.4,1.2,0.6,1.8,0.6
		c0.9,0.1,1.8-0.4,2.3-1.2l1,0.8C71.3,38.1,70,38.6,68.8,38.5z M66.1,33.4h4.6c0-0.7-0.2-1.4-0.7-1.9c-0.4-0.4-1-0.5-1.5-0.5
		C67.2,31,66.4,31.8,66.1,33.4L66.1,33.4z"/>
	<path d="M75.9,31.3c0.4-0.9,1.4-1.5,2.3-1.4c1,0,2,0.6,2.3,1.6c0.5-1,1.5-1.6,2.7-1.6c0.8,0,1.5,0.3,2,1c0.4,0.7,0.6,1.5,0.6,2.3
		v5.2h-1.3v-5.3c0.1-0.6-0.1-1.2-0.4-1.6C83.8,31.1,83.4,31,83,31c-0.6,0-1.2,0.2-1.6,0.7c-0.3,0.4-0.5,1-0.5,1.5v5.1h-1.3v-5.3
		c0.1-0.6-0.1-1.2-0.4-1.6C78.8,31.1,78.4,31,78,31c-0.6,0-1.2,0.2-1.6,0.7c-0.3,0.4-0.5,1-0.5,1.5v5.1h-1.3V30h1.3V31.3z"/>
	<path d="M98.2,26.7h0.9v11.6h-1.3V29c-0.4,0.3-0.9,0.4-1.4,0.5c-0.6,0.1-1.2,0.2-1.8,0.2l-0.2-0.9c0.8-0.1,1.6-0.3,2.3-0.8
		C97.3,27.8,97.8,27.3,98.2,26.7z"/>
</g>
</svg>
