<?xml version="1.0" encoding="utf-8"?>
<!--
  ~ Copyright (C) 2020 Robert Bosch GmbH Copyright (C) 2020 Robert Bosch Manufacturing Solutions GmbH, Germany. All rights reserved.
  -->
<!-- Generator: Adobe Illustrator 22.1.0, SVG Export Plug-In . SVG Version: 6.00 Build 0)  -->
<svg version="1.1" id="Ebene_1" xmlns="http://www.w3.org/2000/svg" xmlns:xlink="http://www.w3.org/1999/xlink" x="0px" y="0px"
	 viewBox="0 0 224 64" style="enable-background:new 0 0 224 64;" xml:space="preserve">
<style type="text/css">
	.st0{fill:none;stroke:#EFEFF0;}
	.st1{fill:none;stroke:#333333;stroke-width:0.6924;stroke-miterlimit:10;}
	.st2{fill:#EFEFF0;}
	.st3{fill:#BFC0C2;}
</style>
<line class="st0" x1="169" y1="0.3" x2="169" y2="63.3"/>
<line class="st0" x1="169" y1="32.6" x2="0" y2="32.6"/>
<line class="st0" x1="169" y1="58.6" x2="0" y2="58.6"/>
<g>
	<line class="st1" x1="150" y1="20" x2="160" y2="10"/>
	<line class="st1" x1="160" y1="20" x2="150" y2="10"/>
</g>
<rect x="14.3" y="40.8" class="st2" width="60.6" height="8.4"/>
<polygon class="st3" points="160.7,42.4 160.2,42 155.2,47 150.2,42 149.7,42.4 155.2,48 "/>
<g>
	<path d="M15.2,19.3h-1l3.1-8.6h1l3.1,8.6h-1l-0.7-2.1h-3.7L15.2,19.3z M19.3,16.3l-1.5-4.5l-1.5,4.5H19.3z"/>
	<path d="M22.8,13h1v1c0.5-0.8,1.2-1.1,2.1-1.1c0.9,0,1.5,0.3,2,1c0.4,0.6,0.6,1.3,0.6,2.2c0,1.1-0.3,1.9-0.8,2.5
		c-0.5,0.5-1.1,0.8-1.9,0.8c-0.9,0-1.6-0.4-2.1-1.1v3.2h-1V13z M25.7,13.7c-0.7,0-1.2,0.2-1.5,0.7c-0.3,0.4-0.5,1-0.5,1.7
		c0,0.8,0.2,1.4,0.6,1.9c0.3,0.4,0.8,0.6,1.4,0.6c1.2,0,1.8-0.8,1.8-2.4c0-0.8-0.2-1.5-0.5-1.9C26.7,13.9,26.3,13.7,25.7,13.7z"/>
	<path d="M30.5,13h1v1c0.5-0.8,1.2-1.1,2.1-1.1c0.9,0,1.5,0.3,2,1c0.4,0.6,0.6,1.3,0.6,2.2c0,1.1-0.3,1.9-0.8,2.5
		c-0.5,0.5-1.1,0.8-1.9,0.8c-0.9,0-1.6-0.4-2.1-1.1v3.2h-1V13z M33.4,13.7c-0.7,0-1.2,0.2-1.5,0.7c-0.3,0.4-0.5,1-0.5,1.7
		c0,0.8,0.2,1.4,0.6,1.9c0.3,0.4,0.8,0.6,1.4,0.6c1.2,0,1.8-0.8,1.8-2.4c0-0.8-0.2-1.5-0.5-1.9C34.4,13.9,34,13.7,33.4,13.7z"/>
	<path d="M39.7,19.4c-1,0-1.5-0.6-1.5-1.7v-7.5h1v7.6c0,0.5,0.2,0.7,0.7,0.7c0.2,0,0.4-0.1,0.6-0.2l0.3,0.7
		C40.5,19.3,40.1,19.4,39.7,19.4z"/>
	<path d="M42.5,10.4c0.2,0,0.3,0.1,0.5,0.2s0.2,0.3,0.2,0.5c0,0.2-0.1,0.3-0.2,0.5s-0.3,0.2-0.5,0.2c-0.2,0-0.3-0.1-0.5-0.2
		s-0.2-0.3-0.2-0.5c0-0.2,0.1-0.3,0.2-0.5S42.4,10.4,42.5,10.4z M42.1,13h1v6.3h-1V13z"/>
	<path d="M48,19.4c-0.9,0-1.7-0.3-2.2-1C45.2,17.8,45,17,45,16.2c0-1,0.3-1.9,0.9-2.5c0.5-0.5,1.2-0.8,2-0.8c1,0,1.8,0.4,2.4,1.2
		l-0.8,0.5c-0.2-0.4-0.5-0.6-0.7-0.7s-0.5-0.2-0.8-0.2c-0.6,0-1.1,0.2-1.4,0.7c-0.3,0.4-0.4,1-0.4,1.7c0,0.8,0.2,1.4,0.6,1.8
		c0.3,0.4,0.8,0.5,1.4,0.5c0.7,0,1.3-0.3,1.7-0.9l0.8,0.4c-0.3,0.5-0.7,0.9-1.1,1.1C48.9,19.3,48.5,19.4,48,19.4z"/>
	<path d="M57.2,19.3c-0.1,0-0.2,0-0.3,0c-0.7,0-1.1-0.3-1.3-0.9c-0.5,0.6-1.2,1-1.9,1c-0.6,0-1.1-0.2-1.5-0.6
		c-0.3-0.3-0.5-0.7-0.5-1.2c0-0.5,0.2-0.9,0.5-1.2c0.3-0.3,0.7-0.5,1.2-0.6c0.5-0.1,1.2-0.2,2.1-0.2v-0.4c0-0.5-0.1-0.9-0.3-1.1
		c-0.2-0.2-0.5-0.3-0.9-0.3c-0.3,0-0.6,0.1-0.9,0.2s-0.6,0.3-0.9,0.6l-0.6-0.7c0.4-0.3,0.7-0.6,1.1-0.7s0.8-0.2,1.3-0.2
		c0.8,0,1.3,0.2,1.7,0.7c0.3,0.4,0.5,0.9,0.5,1.6v2.8c0,0.2,0.1,0.4,0.2,0.5s0.3,0.1,0.6,0.1V19.3z M55.5,16.3
		c-1.1,0-1.8,0.2-2.3,0.4c-0.4,0.2-0.6,0.5-0.6,0.9c0,0.3,0.1,0.6,0.3,0.7s0.5,0.3,0.8,0.3c0.5,0,1-0.1,1.3-0.4
		c0.3-0.3,0.4-0.6,0.4-0.9V16.3z"/>
	<path d="M57.9,13h1v-1.6l1-0.2V13h1.6v0.8h-1.6v3.8c0,0.6,0.2,0.9,0.7,0.9c0.3,0,0.6-0.1,0.8-0.3l0.4,0.7c-0.4,0.3-0.8,0.4-1.3,0.4
		c-0.5,0-1-0.2-1.3-0.5c-0.3-0.3-0.4-0.6-0.4-1.1v-4h-1V13z"/>
	<path d="M63.8,10.4c0.2,0,0.3,0.1,0.5,0.2s0.2,0.3,0.2,0.5c0,0.2-0.1,0.3-0.2,0.5s-0.3,0.2-0.5,0.2c-0.2,0-0.3-0.1-0.5-0.2
		s-0.2-0.3-0.2-0.5c0-0.2,0.1-0.3,0.2-0.5S63.6,10.4,63.8,10.4z M63.3,13h1v6.3h-1V13z"/>
	<path d="M69.2,12.9c0.9,0,1.7,0.3,2.2,1c0.5,0.6,0.7,1.3,0.7,2.2c0,1-0.3,1.8-0.9,2.4c-0.5,0.5-1.2,0.8-2,0.8c-0.9,0-1.7-0.3-2.2-1
		c-0.5-0.6-0.7-1.3-0.7-2.2c0-1,0.3-1.8,0.9-2.4C67.7,13.2,68.4,12.9,69.2,12.9z M69.2,13.7c-0.6,0-1.1,0.2-1.5,0.7
		c-0.3,0.4-0.5,1-0.5,1.7c0,0.8,0.2,1.4,0.6,1.8c0.3,0.4,0.8,0.6,1.3,0.6c0.6,0,1.1-0.2,1.5-0.7c0.3-0.4,0.5-1,0.5-1.7
		c0-0.8-0.2-1.4-0.6-1.8C70.2,13.9,69.8,13.7,69.2,13.7z"/>
	<path d="M74.1,13h1v1c0.4-0.7,1-1.1,1.9-1.1c0.7,0,1.3,0.2,1.6,0.7c0.3,0.4,0.5,1,0.5,1.8v3.9h-1v-4c0-0.6-0.1-1-0.4-1.2
		c-0.2-0.2-0.5-0.3-1-0.3c-0.5,0-1,0.2-1.3,0.5c-0.3,0.3-0.4,0.7-0.4,1.2v3.8h-1V13z"/>
	<path d="M86.9,10.7l2.6,7.4l2.6-7.4h1.5v8.6h-1v-7.6L90,19.3h-0.9l-2.8-7.6v7.6h-0.9v-8.6H86.9z"/>
	<path d="M98.7,19.4c-1,0-1.8-0.3-2.4-1c-0.5-0.6-0.7-1.3-0.7-2.2c0-1,0.3-1.9,0.9-2.5c0.5-0.5,1.2-0.8,2-0.8c0.9,0,1.6,0.3,2.1,0.9
		c0.4,0.5,0.6,1.3,0.6,2.2v0.3h-4.5c0,0.4,0.1,0.8,0.2,1.1s0.3,0.5,0.5,0.7c0.3,0.3,0.8,0.4,1.4,0.4c0.4,0,0.7-0.1,1-0.2
		s0.5-0.4,0.7-0.7l0.7,0.6C100.6,19,99.8,19.4,98.7,19.4z M96.7,15.5h3.5c-0.1-0.7-0.3-1.2-0.5-1.4c-0.3-0.2-0.6-0.4-1.1-0.4
		C97.5,13.7,96.9,14.3,96.7,15.5z"/>
	<path d="M103.1,13h1v1c0.4-0.7,1-1.1,1.9-1.1c0.7,0,1.3,0.2,1.6,0.7c0.3,0.4,0.5,1,0.5,1.8v3.9h-1v-4c0-0.6-0.1-1-0.4-1.2
		c-0.2-0.2-0.5-0.3-1-0.3c-0.5,0-1,0.2-1.3,0.5c-0.3,0.3-0.4,0.7-0.4,1.2v3.8h-1V13z"/>
	<path d="M114.3,18.3c-0.4,0.7-1,1.1-1.9,1.1c-0.7,0-1.2-0.2-1.6-0.7c-0.3-0.4-0.5-1-0.5-1.8V13h1v4c0,0.6,0.1,1,0.4,1.2
		c0.2,0.2,0.5,0.3,0.9,0.3c0.5,0,1-0.2,1.3-0.5c0.3-0.3,0.4-0.7,0.4-1.2V13h1v6.3h-1V18.3z"/>
</g>
</svg>
