<?xml version="1.0" encoding="utf-8"?>
<!--
  ~ Copyright (C) 2020 Robert Bosch GmbH Copyright (C) 2020 Robert Bosch Manufacturing Solutions GmbH, Germany. All rights reserved.
  -->
<!-- Generator: Adobe Illustrator 21.0.0, SVG Export Plug-In . SVG Version: 6.00 Build 0)  -->
<svg version="1.1" id="Ebene_1" xmlns="http://www.w3.org/2000/svg" xmlns:xlink="http://www.w3.org/1999/xlink" x="0px" y="0px"
	 viewBox="0 0 224 64" style="enable-background:new 0 0 224 64;" xml:space="preserve">
<style type="text/css">
	.st0{fill:none;stroke:#EFEFF0;}
	.st1{fill:#191919;}
	.st2{fill:#EFEFF0;}
</style>
<rect x="1.5" y="20.1" class="st0" width="221.1" height="23.9"/>
<g>
	<path class="st1" d="M37.7,27.8h0.9v7.4h-0.9V27.8z"/>
	<path class="st1" d="M40.2,29.8h0.8v-1.4l0.9-0.2v1.6h1.4v0.7h-1.4v3.3c0,0.5,0.2,0.8,0.6,0.8c0.3,0,0.5-0.1,0.7-0.3l0.3,0.6
		c-0.3,0.2-0.7,0.4-1.1,0.4c-0.4,0-0.8-0.1-1.1-0.4C41.2,34.7,41,34.3,41,34v-3.5h-0.8L40.2,29.8z"/>
	<path class="st1" d="M46.9,35.3c-0.8,0.1-1.6-0.3-2.1-0.9c-0.8-1.2-0.8-2.9,0.2-4c0.4-0.5,1.1-0.7,1.7-0.7c0.7,0,1.4,0.3,1.8,0.8
		c0.4,0.5,0.5,1.2,0.5,1.8v0.3h-3.9c0,0.3,0.1,0.6,0.2,0.9c0.1,0.2,0.2,0.5,0.4,0.6c0.3,0.3,0.8,0.4,1.2,0.4c0.6,0,1.1-0.3,1.5-0.8
		l0.6,0.5C48.5,35,47.7,35.4,46.9,35.3z M45.2,32h3c0-0.5-0.2-0.9-0.5-1.3c-0.3-0.2-0.6-0.4-1-0.3C45.9,30.4,45.4,31,45.2,32z"/>
	<path class="st1" d="M51.5,30.6c0.3-0.6,0.9-0.9,1.5-0.9c0.7,0,1.3,0.4,1.5,1c0.3-0.6,1-1,1.7-1c0.5,0,1,0.2,1.3,0.6
		c0.3,0.5,0.4,1,0.4,1.5v3.4h-0.9v-3.4c0-0.4-0.1-0.8-0.3-1.1c-0.2-0.2-0.5-0.3-0.8-0.3c-0.4,0-0.8,0.2-1,0.5
		c-0.2,0.3-0.3,0.6-0.3,1v3.3h-0.9v-3.4c0-0.4-0.1-0.8-0.3-1.1c-0.2-0.2-0.5-0.3-0.8-0.3c-0.4,0-0.8,0.2-1,0.5
		c-0.2,0.3-0.3,0.6-0.3,1v3.3h-0.9v-5.4h0.9L51.5,30.6z"/>
	<path class="st1" d="M61.7,35.3c-0.9,0-1.7-0.3-2.3-1l0.6-0.5c0.2,0.3,0.4,0.5,0.7,0.7c0.3,0.1,0.6,0.2,0.9,0.2
		c0.4,0,0.7-0.1,1-0.3c0.2-0.1,0.3-0.4,0.3-0.6c0-0.2-0.1-0.5-0.3-0.6c-0.1-0.1-0.2-0.1-0.3-0.2l-0.8-0.2c-0.5-0.1-1-0.3-1.4-0.6
		c-0.5-0.6-0.4-1.6,0.2-2.1c0,0,0,0,0,0c0.4-0.2,0.8-0.4,1.3-0.4c0.3,0,0.7,0.1,1,0.2c0.3,0.1,0.6,0.4,0.8,0.6L63,31.1
		c-0.2-0.2-0.4-0.4-0.6-0.5c-0.2-0.1-0.5-0.1-0.7-0.1c-0.3,0-0.6,0.1-0.8,0.2c-0.2,0.1-0.2,0.3-0.2,0.5c0,0.2,0.1,0.4,0.3,0.5
		c0.3,0.2,0.7,0.3,1,0.3c0.3,0.1,0.6,0.2,0.9,0.3c0.2,0.1,0.4,0.2,0.5,0.3c0.3,0.3,0.4,0.7,0.4,1.1c0,0.5-0.2,1-0.6,1.2
		C62.7,35.3,62.2,35.4,61.7,35.3z"/>
	<path class="st1" d="M73.1,35.3h-0.3c-0.5,0-1-0.3-1.1-0.8c-0.4,0.5-1,0.8-1.7,0.8c-0.5,0-0.9-0.1-1.3-0.5c-0.3-0.3-0.4-0.6-0.4-1
		c0-0.4,0.2-0.8,0.4-1.1c0.3-0.3,0.7-0.5,1.1-0.6c0.6-0.1,1.2-0.2,1.8-0.2v-0.3c0-0.4-0.1-0.7-0.3-1c-0.2-0.2-0.5-0.3-0.8-0.3
		c-0.3,0-0.5,0-0.8,0.1c-0.3,0.1-0.5,0.3-0.8,0.5l-0.5-0.6c0.3-0.3,0.6-0.5,1-0.6c0.3-0.1,0.7-0.2,1.1-0.2c0.6,0,1.1,0.2,1.5,0.6
		c0.3,0.4,0.5,0.9,0.4,1.4v2.4c0,0.1,0,0.3,0.1,0.4c0.1,0.1,0.3,0.1,0.5,0.1L73.1,35.3z M71.7,32.6c-0.7,0-1.4,0.1-2,0.4
		c-0.3,0.2-0.5,0.5-0.5,0.8c0,0.2,0.1,0.5,0.3,0.6c0.2,0.2,0.5,0.2,0.7,0.2c0.4,0,0.8-0.1,1.1-0.4c0.2-0.2,0.4-0.5,0.4-0.8
		L71.7,32.6z"/>
	<path class="st1" d="M78.2,34.4c-0.4,0.6-1.1,1-1.8,1c-0.7,0-1.4-0.3-1.8-0.9c-0.4-0.6-0.6-1.3-0.6-2c0-0.8,0.2-1.5,0.7-2.1
		c0.4-0.4,1-0.7,1.6-0.7c0.7,0,1.4,0.4,1.8,1v-3.3h0.9v7.8h-0.9L78.2,34.4z M76.6,30.4c-0.5,0-1,0.2-1.2,0.6c-0.2,0.5-0.4,1-0.3,1.5
		c0,1.4,0.5,2.1,1.6,2.1c0.5,0,1-0.2,1.3-0.6c0.3-0.4,0.4-1,0.4-1.5c0-0.6-0.1-1.1-0.5-1.6C77.4,30.6,77,30.4,76.6,30.4L76.6,30.4z"
		/>
	<path class="st1" d="M84.8,34.4c-0.4,0.6-1.1,1-1.8,1c-0.7,0-1.4-0.3-1.8-0.9c-0.4-0.6-0.6-1.3-0.6-2c0-0.8,0.2-1.5,0.7-2.1
		c0.4-0.4,1-0.7,1.6-0.7c0.7,0,1.4,0.4,1.8,1v-3.3h0.9v7.8h-0.9L84.8,34.4z M83.2,30.4c-0.5,0-1,0.2-1.2,0.6c-0.3,0.5-0.4,1-0.4,1.5
		c0,1.4,0.5,2.1,1.6,2.1c0.5,0,1-0.2,1.3-0.6c0.3-0.4,0.4-1,0.4-1.5c0-0.6-0.1-1.1-0.5-1.6C84.1,30.6,83.7,30.4,83.2,30.4L83.2,30.4
		z"/>
	<path class="st1" d="M90.1,35.3c-0.8,0-1.6-0.3-2.1-0.9c-0.8-1.2-0.8-2.9,0.2-4c0.4-0.5,1.1-0.7,1.7-0.7c0.7,0,1.4,0.3,1.8,0.8
		c0.4,0.5,0.6,1.2,0.5,1.9v0.3h-3.9c0,0.3,0,0.6,0.2,0.9c0.1,0.2,0.2,0.5,0.4,0.6c0.3,0.3,0.8,0.4,1.2,0.4c0.6,0,1.1-0.3,1.4-0.8
		l0.6,0.5C91.6,35.1,90.9,35.4,90.1,35.3z M88.3,32h3c0-0.5-0.2-0.9-0.5-1.3c-0.3-0.2-0.6-0.4-1-0.3C89,30.4,88.5,31,88.3,32z"/>
	<path class="st1" d="M97.5,34.4c-0.4,0.6-1.1,1-1.8,1c-0.7,0-1.4-0.3-1.8-0.9c-0.4-0.6-0.6-1.3-0.6-2c0-0.8,0.2-1.5,0.7-2.1
		c0.4-0.4,1-0.7,1.6-0.7c0.7,0,1.4,0.4,1.8,1v-3.3h0.9v7.8h-0.9L97.5,34.4z M95.8,30.4c-0.5,0-1,0.2-1.2,0.6c-0.3,0.5-0.4,1-0.4,1.5
		c0,1.4,0.5,2.1,1.6,2.1c0.5,0,1-0.2,1.3-0.6c0.3-0.4,0.4-1,0.4-1.5c0-0.6-0.1-1.1-0.5-1.6C96.7,30.6,96.3,30.4,95.8,30.4L95.8,30.4
		z"/>
	<path class="st1" d="M105.4,35.3c-0.9,0-1.7-0.3-2.3-1l0.6-0.5c0.2,0.3,0.4,0.5,0.7,0.7c0.3,0.1,0.6,0.2,0.9,0.2
		c0.4,0,0.7-0.1,1-0.3c0.2-0.1,0.3-0.4,0.3-0.6c0-0.2-0.1-0.5-0.3-0.6c-0.1-0.1-0.2-0.2-0.4-0.2l-0.8-0.2c-0.5-0.1-1-0.3-1.4-0.6
		c-0.5-0.6-0.4-1.6,0.2-2.1c0,0,0,0,0,0c0.4-0.2,0.8-0.4,1.3-0.4c0.3,0,0.7,0.1,1,0.2c0.3,0.1,0.6,0.4,0.8,0.6l-0.6,0.6
		c-0.2-0.2-0.4-0.4-0.6-0.5c-0.2-0.1-0.5-0.1-0.7-0.1c-0.3,0-0.6,0.1-0.8,0.2c-0.2,0.1-0.2,0.3-0.2,0.5c0,0.2,0.1,0.4,0.3,0.5
		c0.3,0.2,0.7,0.3,1,0.3c0.3,0.1,0.6,0.2,0.9,0.3c0.2,0.1,0.4,0.2,0.5,0.3c0.3,0.3,0.4,0.7,0.4,1.1c0,0.5-0.2,1-0.6,1.2
		C106.4,35.2,105.9,35.3,105.4,35.3z"/>
	<path class="st1" d="M112.5,34.4c-0.3,0.6-1,1-1.7,0.9c-0.5,0-1-0.2-1.4-0.6c-0.3-0.5-0.4-1-0.4-1.5v-3.4h0.9v3.4
		c0,0.4,0.1,0.8,0.3,1.1c0.2,0.2,0.5,0.3,0.8,0.3c0.4,0,0.8-0.1,1.1-0.5c0.2-0.3,0.4-0.6,0.3-1v-3.3h0.9v5.4h-0.9L112.5,34.4z"/>
	<path class="st1" d="M117.6,35.3c-0.7,0-1.5-0.3-1.9-0.9c-0.4-0.5-0.6-1.2-0.6-1.9c0-0.8,0.2-1.6,0.8-2.1c1-0.9,2.6-0.9,3.5,0.1
		c0.1,0.1,0.2,0.2,0.2,0.3l-0.7,0.5c-0.2-0.3-0.4-0.5-0.6-0.6c-0.2-0.1-0.5-0.2-0.7-0.2c-0.5,0-1,0.2-1.3,0.6
		c-0.3,0.4-0.4,1-0.4,1.5c0,0.6,0.1,1.1,0.5,1.6c0.3,0.3,0.7,0.5,1.2,0.5c0.6,0,1.1-0.3,1.4-0.8l0.7,0.4c-0.2,0.4-0.6,0.7-1,0.9
		C118.3,35.3,117.9,35.3,117.6,35.3z"/>
	<path class="st1" d="M123.1,35.3c-0.7,0-1.5-0.3-1.9-0.9c-0.4-0.5-0.6-1.2-0.6-1.9c0-0.8,0.2-1.6,0.8-2.1c1-0.9,2.6-0.9,3.5,0.1
		c0.1,0.1,0.2,0.2,0.2,0.3l-0.7,0.5c-0.2-0.3-0.4-0.5-0.6-0.6c-0.2-0.1-0.5-0.2-0.7-0.2c-0.5,0-1,0.2-1.3,0.6
		c-0.3,0.4-0.4,1-0.4,1.5c0,0.6,0.1,1.1,0.5,1.6c0.3,0.3,0.7,0.5,1.2,0.5c0.6,0,1.1-0.3,1.4-0.8l0.7,0.4c-0.2,0.4-0.6,0.7-1,0.9
		C123.9,35.3,123.5,35.3,123.1,35.3z"/>
	<path class="st1" d="M128.8,35.3c-0.8,0-1.6-0.3-2.1-0.9c-0.8-1.2-0.8-2.9,0.2-4c0.4-0.5,1.1-0.7,1.7-0.7c0.7,0,1.4,0.3,1.8,0.8
		c0.4,0.5,0.6,1.2,0.5,1.9v0.3H127c0,0.3,0,0.6,0.2,0.9c0.1,0.2,0.2,0.5,0.4,0.6c0.3,0.3,0.8,0.4,1.2,0.4c0.6,0,1.1-0.3,1.4-0.8
		l0.6,0.5C130.4,35.1,129.6,35.4,128.8,35.3z M127.1,32h3c0-0.5-0.2-0.9-0.5-1.3c-0.3-0.2-0.6-0.4-1-0.3
		C127.8,30.4,127.3,31,127.1,32z"/>
	<path class="st1" d="M134.3,35.3c-0.9,0-1.7-0.3-2.3-1l0.6-0.5c0.2,0.3,0.4,0.5,0.7,0.7c0.3,0.1,0.6,0.2,0.9,0.2
		c0.4,0,0.7-0.1,1-0.3c0.2-0.1,0.3-0.4,0.3-0.6c0-0.2-0.1-0.5-0.3-0.6c-0.1-0.1-0.2-0.1-0.3-0.2l-0.8-0.2c-0.5-0.1-1-0.3-1.4-0.6
		c-0.5-0.6-0.4-1.6,0.2-2.1c0,0,0,0,0,0c0.4-0.2,0.8-0.4,1.3-0.4c0.3,0,0.7,0.1,1,0.2c0.3,0.1,0.6,0.4,0.8,0.6l-0.6,0.6
		c-0.2-0.2-0.4-0.4-0.6-0.5c-0.2-0.1-0.5-0.1-0.7-0.1c-0.3,0-0.6,0.1-0.8,0.2c-0.2,0.1-0.2,0.3-0.2,0.5c0,0.2,0.1,0.4,0.3,0.5
		c0.3,0.2,0.7,0.3,1,0.3c0.3,0.1,0.6,0.2,0.9,0.3c0.2,0.1,0.4,0.2,0.5,0.3c0.3,0.3,0.4,0.7,0.4,1.1c0,0.5-0.2,1-0.6,1.2
		C135.2,35.3,134.8,35.4,134.3,35.3z"/>
	<path class="st1" d="M139.6,35.3c-0.9,0-1.7-0.3-2.3-1l0.6-0.5c0.2,0.3,0.4,0.5,0.7,0.7c0.3,0.1,0.6,0.2,0.9,0.2
		c0.4,0,0.7-0.1,1-0.3c0.2-0.1,0.3-0.4,0.3-0.6c0-0.2-0.1-0.5-0.3-0.6c-0.1-0.1-0.2-0.1-0.3-0.2l-0.8-0.2c-0.5-0.1-1-0.3-1.4-0.6
		c-0.5-0.6-0.4-1.6,0.2-2.1c0,0,0,0,0,0c0.4-0.2,0.8-0.4,1.3-0.4c0.3,0,0.7,0.1,1,0.2c0.3,0.1,0.6,0.4,0.8,0.6l-0.6,0.6
		c-0.2-0.2-0.4-0.4-0.6-0.5c-0.2-0.1-0.5-0.1-0.7-0.1c-0.3,0-0.5,0.1-0.8,0.2c-0.2,0.1-0.2,0.3-0.2,0.5c0,0.2,0.1,0.4,0.3,0.5
		c0.3,0.2,0.7,0.3,1,0.3c0.3,0.1,0.6,0.2,0.9,0.3c0.2,0.1,0.4,0.2,0.5,0.3c0.3,0.3,0.4,0.7,0.4,1.1c0,0.5-0.2,1-0.6,1.2
		C140.6,35.3,140.1,35.4,139.6,35.3z"/>
	<path class="st1" d="M142.7,29.8h0.8v-0.8c0-0.5,0.1-1,0.5-1.4c0.3-0.3,0.7-0.4,1.1-0.4c0.3,0,0.7,0.1,1,0.3l-0.2,0.7
		c-0.2-0.1-0.5-0.2-0.7-0.2c-0.2,0-0.4,0.1-0.6,0.3c-0.2,0.2-0.2,0.4-0.2,0.7v0.9h1.2v0.7h-1.2v4.7h-0.9v-4.7h-0.8L142.7,29.8z"/>
	<path class="st1" d="M150.2,34.4c-0.3,0.6-1,1-1.6,0.9c-0.5,0-1-0.2-1.4-0.6c-0.3-0.5-0.4-1-0.4-1.5v-3.4h0.9v3.4
		c0,0.4,0.1,0.8,0.3,1.1c0.2,0.2,0.5,0.3,0.8,0.3c0.4,0,0.8-0.1,1.1-0.5c0.2-0.3,0.4-0.6,0.3-1v-3.3h0.9v5.4h-0.9V34.4z"/>
	<path class="st1" d="M154.6,35.3c-0.9,0-1.3-0.5-1.3-1.4v-6.5h0.9V34c0,0.4,0.2,0.6,0.6,0.6c0.2,0,0.4-0.1,0.5-0.2l0.3,0.6
		C155.2,35.3,154.9,35.3,154.6,35.3z"/>
	<path class="st1" d="M157.9,35.3c-0.9,0-1.3-0.5-1.3-1.4v-6.5h0.9V34c0,0.4,0.2,0.6,0.6,0.6c0.2,0,0.4-0.1,0.5-0.2l0.3,0.6
		C158.5,35.3,158.2,35.3,157.9,35.3z"/>
	<path class="st1" d="M161.3,36.1c-0.2,0.6-0.7,1.1-1.4,1.1c-0.4,0-0.7-0.1-1-0.3l0.3-0.6c0.2,0.1,0.4,0.2,0.7,0.2
		c0.4,0,0.7-0.3,0.8-0.6l0.2-0.7l-2-5.4h0.9l1.5,4.1l1.4-4.1h0.9L161.3,36.1z"/>
	<path class="st1" d="M165,34c0.4,0,0.7,0.3,0.7,0.7c0,0.2-0.1,0.4-0.2,0.5c-0.1,0.1-0.3,0.2-0.5,0.2c-0.4,0-0.7-0.3-0.7-0.7
		S164.6,34,165,34z"/>
</g>
<circle class="st2" cx="18.4" cy="31.6" r="7.8"/>
</svg>
