<?xml version="1.0" encoding="utf-8"?>
<!--
  ~ Copyright (C) 2020 Robert Bosch GmbH Copyright (C) 2020 Robert Bosch Manufacturing Solutions GmbH, Germany. All rights reserved.
  -->
<!-- Generator: Adobe Illustrator 22.1.0, SVG Export Plug-In . SVG Version: 6.00 Build 0)  -->
<svg version="1.1" id="Ebene_1" xmlns="http://www.w3.org/2000/svg" xmlns:xlink="http://www.w3.org/1999/xlink" x="0px" y="0px"
	 viewBox="0 0 224 64" style="enable-background:new 0 0 224 64;" xml:space="preserve">
<style type="text/css">
	.st0{fill:none;stroke:#EFEFF0;}
	.st1{enable-background:new    ;}
	.st2{fill:#7FAAC8;}
	.st3{fill:#FFFFFF;}
	.st4{fill:#EFEFF0;}
</style>
<g>
	<path class="st0" d="M26.9,38h176v24h-176C26.9,62,26.9,38,26.9,38z"/>
	<g class="st1">
		<path d="M41.4,45.6h-2.9v-0.9h6.8v0.9h-2.9V54h-1.1v-8.4H41.4z"/>
		<path d="M48.8,47.1c1,0,1.8,0.4,2.4,1.1c0.5,0.6,0.8,1.4,0.8,2.4c0,1.1-0.3,2-1,2.7c-0.6,0.6-1.3,0.9-2.2,0.9
			c-1,0-1.8-0.4-2.4-1.1c-0.5-0.6-0.8-1.4-0.8-2.4c0-1.1,0.3-2,1-2.6C47.2,47.4,48,47.1,48.8,47.1z M48.8,48c-0.7,0-1.2,0.3-1.6,0.8
			c-0.3,0.5-0.5,1.1-0.5,1.8c0,0.9,0.2,1.5,0.6,2c0.4,0.4,0.9,0.6,1.4,0.6c0.7,0,1.2-0.3,1.6-0.8c0.3-0.5,0.5-1.1,0.5-1.8
			c0-0.8-0.2-1.5-0.6-2C49.9,48.2,49.4,48,48.8,48z"/>
		<path d="M56.8,47.1c1,0,1.8,0.4,2.4,1.1c0.5,0.6,0.8,1.4,0.8,2.4c0,1.1-0.3,2-1,2.7c-0.6,0.6-1.3,0.9-2.2,0.9
			c-1,0-1.8-0.4-2.4-1.1c-0.5-0.6-0.8-1.4-0.8-2.4c0-1.1,0.3-2,1-2.6C55.2,47.4,55.9,47.1,56.8,47.1z M56.8,48
			c-0.7,0-1.2,0.3-1.6,0.8c-0.3,0.5-0.5,1.1-0.5,1.8c0,0.9,0.2,1.5,0.6,2c0.4,0.4,0.9,0.6,1.4,0.6c0.7,0,1.2-0.3,1.6-0.8
			c0.3-0.5,0.5-1.1,0.5-1.8c0-0.8-0.2-1.5-0.6-2C57.9,48.2,57.4,48,56.8,48z"/>
		<path d="M63.7,54.1c-1.1,0-1.7-0.6-1.7-1.8v-8.1h1.1v8.2c0,0.5,0.2,0.8,0.7,0.8c0.3,0,0.5-0.1,0.7-0.2l0.4,0.8
			C64.6,54,64.2,54.1,63.7,54.1z"/>
		<path d="M65.4,47.2h1v-1.8l1.1-0.3v2h1.7V48h-1.7v4.2c0,0.6,0.3,1,0.8,1c0.3,0,0.6-0.1,0.9-0.3l0.4,0.7c-0.4,0.3-0.9,0.5-1.4,0.5
			c-0.6,0-1-0.2-1.4-0.5c-0.3-0.3-0.4-0.7-0.4-1.2V48h-1V47.2z"/>
		<path d="M71.8,44.4c0.2,0,0.4,0.1,0.5,0.2s0.2,0.3,0.2,0.5s-0.1,0.4-0.2,0.5s-0.3,0.2-0.5,0.2s-0.4-0.1-0.5-0.2S71,45.3,71,45.1
			s0.1-0.4,0.2-0.5S71.6,44.4,71.8,44.4z M71.2,47.2h1.1V54h-1.1V47.2z"/>
		<path d="M75,47.2h1.1v1.1c0.5-0.8,1.3-1.2,2.3-1.2c0.9,0,1.7,0.4,2.2,1.1c0.5,0.6,0.7,1.4,0.7,2.4c0,1.2-0.3,2.1-0.9,2.7
			c-0.5,0.6-1.2,0.9-2,0.9c-1,0-1.7-0.4-2.2-1.2v3.5H75V47.2z M78.2,48c-0.7,0-1.3,0.3-1.6,0.8c-0.3,0.5-0.5,1.1-0.5,1.8
			c0,0.9,0.2,1.6,0.6,2s0.9,0.6,1.5,0.6c1.3,0,2-0.9,2-2.6c0-0.9-0.2-1.6-0.6-2C79.2,48.2,78.7,48,78.2,48z"/>
		<path d="M93,54c-0.1,0-0.2,0-0.4,0c-0.7,0-1.2-0.3-1.4-1c-0.6,0.7-1.3,1-2.1,1c-0.7,0-1.2-0.2-1.6-0.6c-0.4-0.3-0.5-0.8-0.5-1.3
			s0.2-1,0.5-1.3s0.8-0.5,1.3-0.7c0.5-0.1,1.3-0.2,2.3-0.3v-0.4c0-0.6-0.1-1-0.4-1.2c-0.2-0.2-0.5-0.3-1-0.3c-0.4,0-0.7,0.1-1,0.2
			c-0.3,0.1-0.6,0.3-1,0.7l-0.6-0.7c0.4-0.4,0.8-0.6,1.2-0.8s0.9-0.2,1.4-0.2c0.8,0,1.5,0.2,1.9,0.7c0.4,0.4,0.5,1,0.5,1.7v3
			c0,0.2,0.1,0.4,0.2,0.5s0.3,0.1,0.6,0.1L93,54L93,54z M91.1,50.7c-1.2,0-2,0.2-2.5,0.5c-0.4,0.2-0.6,0.6-0.6,1
			c0,0.3,0.1,0.6,0.3,0.8c0.2,0.2,0.5,0.3,0.9,0.3c0.6,0,1-0.2,1.4-0.5c0.3-0.3,0.5-0.6,0.5-1C91.1,51.8,91.1,50.7,91.1,50.7z"/>
		<path d="M95.8,48.3c0.5-0.8,1.3-1.2,2.3-1.2c0.9,0,1.7,0.4,2.2,1.1c0.5,0.6,0.7,1.4,0.7,2.4c0,1.2-0.3,2.1-0.9,2.7
			c-0.5,0.6-1.2,0.9-2,0.9c-1,0-1.7-0.4-2.2-1.2v1h-1.1v-9.8h1.1L95.8,48.3L95.8,48.3z M97.9,48c-0.7,0-1.3,0.3-1.6,0.8
			c-0.3,0.5-0.5,1.1-0.5,1.8c0,0.9,0.2,1.6,0.6,2s0.9,0.6,1.5,0.6c1.3,0,2-0.9,2-2.6c0-0.9-0.2-1.6-0.6-2C98.9,48.2,98.5,48,97.9,48
			z"/>
		<path d="M105.7,47.1c1,0,1.8,0.4,2.4,1.1c0.5,0.6,0.8,1.4,0.8,2.4c0,1.1-0.3,2-1,2.7c-0.6,0.6-1.3,0.9-2.2,0.9
			c-1,0-1.8-0.4-2.4-1.1c-0.5-0.6-0.8-1.4-0.8-2.4c0-1.1,0.3-2,1-2.6C104.1,47.4,104.9,47.1,105.7,47.1z M105.7,48
			c-0.7,0-1.2,0.3-1.6,0.8c-0.3,0.5-0.5,1.1-0.5,1.8c0,0.9,0.2,1.5,0.6,2c0.4,0.4,0.9,0.6,1.4,0.6c0.7,0,1.2-0.3,1.6-0.8
			c0.3-0.5,0.5-1.1,0.5-1.8c0-0.8-0.2-1.5-0.6-2C106.8,48.2,106.3,48,105.7,48z"/>
		<path d="M115.2,53c-0.4,0.8-1.1,1.2-2.1,1.2c-0.8,0-1.3-0.3-1.7-0.8c-0.3-0.5-0.5-1.1-0.5-1.9v-4.2h1.1v4.3c0,0.6,0.1,1.1,0.4,1.3
			c0.2,0.2,0.6,0.4,1,0.4c0.6,0,1-0.2,1.4-0.6c0.3-0.3,0.4-0.7,0.4-1.3v-4.2h1.1V54h-1.1C115.2,54,115.2,53,115.2,53z"/>
		<path d="M118.1,47.2h1v-1.8l1.1-0.3v2h1.7V48h-1.7v4.2c0,0.6,0.3,1,0.8,1c0.3,0,0.6-0.1,0.9-0.3l0.4,0.7c-0.4,0.3-0.9,0.5-1.4,0.5
			c-0.6,0-1-0.2-1.4-0.5c-0.3-0.3-0.4-0.7-0.4-1.2V48h-1V47.2z"/>
		<path d="M127.4,47.2h1v-1.8l1.1-0.3v2h1.7V48h-1.7v4.2c0,0.6,0.3,1,0.8,1c0.3,0,0.6-0.1,0.9-0.3l0.4,0.7c-0.4,0.3-0.9,0.5-1.4,0.5
			c-0.6,0-1-0.2-1.4-0.5c-0.3-0.3-0.4-0.7-0.4-1.2V48h-1C127.4,48,127.4,47.2,127.4,47.2z"/>
		<path d="M133.2,44.2h1.1v4c0.4-0.8,1.1-1.2,2.1-1.2c0.8,0,1.4,0.3,1.7,0.8s0.5,1.1,0.5,1.9V54h-1.1v-4.3c0-0.6-0.1-1.1-0.4-1.3
			c-0.2-0.2-0.6-0.4-1-0.4c-0.6,0-1,0.2-1.4,0.6c-0.3,0.3-0.4,0.7-0.4,1.3V54h-1.1L133.2,44.2L133.2,44.2z"/>
		<path d="M144,54.1c-1.1,0-2-0.4-2.6-1.1c-0.5-0.6-0.8-1.4-0.8-2.4c0-1.1,0.3-2,1-2.7c0.6-0.6,1.3-0.9,2.1-0.9c1,0,1.7,0.3,2.2,1
			c0.5,0.6,0.7,1.4,0.7,2.4v0.3h-4.9c0,0.5,0.1,0.9,0.2,1.2c0.1,0.3,0.3,0.6,0.5,0.8c0.3,0.3,0.8,0.5,1.5,0.5c0.4,0,0.8-0.1,1-0.2
			c0.3-0.1,0.5-0.4,0.8-0.7l0.8,0.6C146,53.7,145.1,54.1,144,54.1z M141.8,49.9h3.7c-0.1-0.7-0.3-1.3-0.6-1.6s-0.7-0.4-1.2-0.4
			C142.7,48,142,48.6,141.8,49.9z"/>
		<path d="M153.4,44.4c0.2,0,0.4,0.1,0.5,0.2c0.1,0.1,0.2,0.3,0.2,0.5s-0.1,0.4-0.2,0.5c-0.1,0.1-0.3,0.2-0.5,0.2s-0.4-0.1-0.5-0.2
			s-0.2-0.3-0.2-0.5s0.1-0.4,0.2-0.5S153.2,44.4,153.4,44.4z M152.9,47.2h1.1V54h-1.1V47.2z"/>
		<path d="M155.8,47.2h1v-1.8l1.1-0.3v2h1.7V48h-1.7v4.2c0,0.6,0.3,1,0.8,1c0.3,0,0.6-0.1,0.9-0.3l0.4,0.7c-0.4,0.3-0.9,0.5-1.4,0.5
			c-0.6,0-1-0.2-1.4-0.5c-0.3-0.3-0.4-0.7-0.4-1.2V48h-1L155.8,47.2L155.8,47.2z"/>
		<path d="M164.2,54.1c-1.1,0-2-0.4-2.6-1.1c-0.5-0.6-0.8-1.4-0.8-2.4c0-1.1,0.3-2,1-2.7c0.6-0.6,1.3-0.9,2.1-0.9c1,0,1.7,0.3,2.2,1
			c0.5,0.6,0.7,1.4,0.7,2.4v0.3H162c0,0.5,0.1,0.9,0.2,1.2c0.1,0.3,0.3,0.6,0.5,0.8c0.3,0.3,0.8,0.5,1.5,0.5c0.4,0,0.8-0.1,1-0.2
			c0.3-0.1,0.5-0.4,0.8-0.7l0.8,0.6C166.3,53.7,165.4,54.1,164.2,54.1z M162,49.9h3.7c-0.1-0.7-0.3-1.3-0.6-1.6s-0.7-0.4-1.2-0.4
			C162.9,48,162.3,48.6,162,49.9z"/>
		<path d="M170,48.2c0.4-0.8,1.1-1.2,1.9-1.2c0.9,0,1.5,0.4,1.9,1.3c0.5-0.8,1.2-1.3,2.2-1.3c0.7,0,1.3,0.3,1.7,0.8
			c0.3,0.5,0.5,1.1,0.5,1.9V54h-1.1v-4.3c0-0.6-0.1-1.1-0.4-1.3c-0.2-0.2-0.5-0.4-0.9-0.4c-0.5,0-1,0.2-1.3,0.6
			c-0.3,0.3-0.4,0.7-0.4,1.3V54H173v-4.3c0-0.6-0.1-1.1-0.4-1.3c-0.2-0.2-0.5-0.4-0.9-0.4c-0.5,0-1,0.2-1.3,0.6
			c-0.3,0.3-0.4,0.7-0.4,1.3V54h-1.1v-6.8h1.1L170,48.2L170,48.2z"/>
		<path d="M188.1,44.5h0.7V54h-1.1v-7.7c-0.3,0.2-0.6,0.3-1.1,0.4s-1,0.2-1.4,0.2l-0.1-0.7c0.7-0.1,1.3-0.3,1.9-0.6
			C187.5,45.3,187.8,45,188.1,44.5z"/>
	</g>
</g>
<g>
	<rect x="55.5" y="1.2" class="st2" width="58.9" height="22"/>
	<g>
		<path class="st3" d="M65.1,6.2h1.2v10h-1.2V6.2z"/>
		<path class="st3" d="M68.4,8.9h1.1V7l1.2-0.3v2.2h1.8v1h-1.8v4.5c0,0.7,0.3,1,0.8,1c0.4,0,0.7-0.1,1-0.3l0.5,0.8
			c-0.5,0.3-1,0.5-1.5,0.5c-0.6,0-1.1-0.2-1.5-0.5c-0.3-0.3-0.5-0.7-0.5-1.2V9.9h-1.1V8.9z"/>
		<path class="st3" d="M77.5,16.4c-1.2,0-2.2-0.4-2.8-1.2c-0.5-0.7-0.8-1.5-0.8-2.6c0-1.2,0.3-2.2,1-2.9c0.6-0.6,1.4-0.9,2.3-0.9
			c1,0,1.8,0.4,2.4,1.1c0.5,0.6,0.7,1.5,0.7,2.5v0.4H75c0,0.5,0.1,0.9,0.2,1.3c0.1,0.3,0.3,0.6,0.6,0.8c0.4,0.3,0.9,0.5,1.6,0.5
			c0.4,0,0.8-0.1,1.1-0.2s0.6-0.4,0.8-0.8l0.9,0.7C79.7,15.9,78.7,16.4,77.5,16.4z M75.1,11.9h4c-0.1-0.8-0.3-1.4-0.6-1.7
			c-0.3-0.3-0.7-0.4-1.3-0.4C76,9.8,75.4,10.5,75.1,11.9z"/>
		<path class="st3" d="M83.7,10c0.5-0.8,1.1-1.2,2.1-1.2s1.6,0.5,2,1.4c0.5-0.9,1.3-1.4,2.3-1.4c0.8,0,1.4,0.3,1.8,0.9
			c0.4,0.5,0.5,1.2,0.5,2v4.5h-1.2v-4.6c0-0.7-0.1-1.1-0.4-1.4c-0.2-0.3-0.6-0.4-1-0.4c-0.6,0-1,0.2-1.4,0.6
			c-0.3,0.4-0.4,0.8-0.4,1.4v4.5h-1.2v-4.6c0-0.7-0.1-1.1-0.4-1.4c-0.2-0.3-0.6-0.4-1-0.4c-0.6,0-1,0.2-1.4,0.6
			c-0.3,0.4-0.4,0.8-0.4,1.4v4.5h-1.2V8.9h1.2L83.7,10L83.7,10z"/>
		<path class="st3" d="M103.2,6.1h0.8v10.2h-1.2V8c-0.3,0.2-0.7,0.3-1.2,0.5c-0.6,0.1-1.1,0.1-1.6,0.1l-0.2-0.8
			c0.7-0.1,1.4-0.3,2.1-0.7C102.5,6.9,102.9,6.5,103.2,6.1z"/>
	</g>
</g>
<path class="st4" d="M114.7,25.7c-0.7-0.8-1.6-1.2-2.2-0.6c-0.5,0.5-0.2,1.4,0.2,2.1c0.9,1.5,1.3,1.8,2.1,3.1
	c0.6,0.9,1.1,1.7,1.6,2.5c0.2,0.5,0.8,1.7,1.1,2.3h9.1c0.3-1.1,1.1-3.8,1.2-5.7c0.1-1.1,0.3-5,0.3-5c0-0.7-0.6-1.3-1.3-1.3
	c-0.7,0-1.3,0.6-1.3,1.3v1.5c0,0.1-0.1,0.2-0.2,0.2s-0.2-0.1-0.2-0.2v-2.6c0-0.7-0.6-1.3-1.3-1.3c-0.7,0-1.3,0.6-1.3,1.3v1.6
	c0,0.1-0.1,0.2-0.2,0.2s-0.2-0.1-0.2-0.2v-2.6c0-0.7-0.6-1.3-1.3-1.3s-1.3,0.6-1.3,1.3V24c0,0.1-0.1,0.2-0.2,0.2s-0.2-0.1-0.2-0.2
	v-5.8c0-0.7-0.6-1.3-1.3-1.3s-1.3,0.6-1.3,1.3c0,0,0,7.2,0,9.6c0,0.1-0.1,0.2-0.1,0.2c-0.1,0-0.2,0-0.2,0s-0.4-0.6-0.5-0.6
	C115.4,26.5,115.3,26.4,114.7,25.7z"/>
</svg>
