<?xml version="1.0" encoding="utf-8"?>
<!--
  ~ Copyright (C) 2020 Robert Bosch GmbH Copyright (C) 2020 Robert Bosch Manufacturing Solutions GmbH, Germany. All rights reserved.
  -->
<!-- Generator: Adobe Illustrator 22.1.0, SVG Export Plug-In . SVG Version: 6.00 Build 0)  -->
<svg version="1.1" id="Layer_1" xmlns="http://www.w3.org/2000/svg" xmlns:xlink="http://www.w3.org/1999/xlink" x="0px" y="0px"
	 viewBox="0 0 224 64" style="enable-background:new 0 0 224 64;" xml:space="preserve">
<style type="text/css">
	.st0{fill:#BFE3F3;fill-opacity:0;}
	.st1{fill:none;stroke:#BFC0C2;stroke-width:2;stroke-miterlimit:10;}
	.st2{fill:none;stroke:#005691;stroke-width:2;stroke-miterlimit:10;}
	.st3{fill:#005691;}
	.st4{fill:none;}
</style>
<title>img-slider</title>
<rect x="12.7" y="5.7" class="st0" width="210.7" height="52.7"/>
<line class="st1" x1="32.4" y1="32" x2="203.6" y2="32"/>
<line class="st2" x1="32.4" y1="32" x2="86.7" y2="32"/>
<circle class="st3" cx="85.1" cy="32" r="9.9"/>
<g>
	<rect x="4" y="22" class="st4" width="20" height="20"/>
	<path d="M17.8,35.8l-0.6-0.6c0.9-0.9,1.3-2,1.3-3.2s-0.5-2.4-1.3-3.2l0.6-0.6c1,1,1.6,2.4,1.6,3.8C19.4,33.4,18.9,34.8,17.8,35.8z"
		/>
	<path d="M19.9,37.9l-0.6-0.6c2.9-2.9,2.9-7.7,0-10.6l0.6-0.6C23.1,29.3,23.1,34.6,19.9,37.9z M13.6,39.2l-4.8-4.8H5.7v-5h3.2
		l4.8-4.8L13.6,39.2L13.6,39.2z M6.5,33.6h2.7l3.6,3.6V26.7l-3.6,3.6H6.5V33.6z"/>
</g>
</svg>
