<?xml version="1.0" encoding="utf-8"?>
<!--
  ~ Copyright (C) 2020 Robert Bosch GmbH Copyright (C) 2020 Robert Bosch Manufacturing Solutions GmbH, Germany. All rights reserved.
  -->
<!-- Generator: Adobe Illustrator 22.1.0, SVG Export Plug-In . SVG Version: 6.00 Build 0)  -->
<svg version="1.1" id="Layer_1" xmlns="http://www.w3.org/2000/svg" xmlns:xlink="http://www.w3.org/1999/xlink" x="0px" y="0px"
	 viewBox="0 0 224 64" style="enable-background:new 0 0 224 64;" xml:space="preserve">
<style type="text/css">
	.st0{fill:#EFEFF0;}
	.st1{fill:none;stroke:#EFEFF0;stroke-miterlimit:10;}
</style>
<title>img-productinfo</title>
<rect x="93.5" y="23.6" class="st0" width="22.5" height="7.1"/>
<rect x="43.4" y="23.6" class="st0" width="21.2" height="7.1"/>
<rect x="43.4" y="33.5" class="st0" width="42.1" height="7.1"/>
<rect x="141.1" y="23.6" class="st0" width="26.9" height="7.1"/>
<rect x="141.1" y="33.5" class="st0" width="42.1" height="7.1"/>
<rect x="93.5" y="33.5" class="st0" width="28.5" height="7.1"/>
<path d="M43.6,7.6h2c0.3,0,0.6,0,0.9,0.1c0.2,0.1,0.4,0.2,0.6,0.3c0.3,0.3,0.5,0.8,0.5,1.2c0,0.5-0.2,0.9-0.5,1.3
	c-0.4,0.3-0.8,0.4-1.3,0.4h-1.5v2.4h-0.7L43.6,7.6z M45.7,10.4c0.4,0,0.7-0.1,1-0.3C46.9,9.9,47,9.6,47,9.3c0-0.3-0.1-0.6-0.3-0.9
	c-0.3-0.2-0.6-0.3-0.9-0.2h-1.5v2.2L45.7,10.4z"/>
<path d="M48.9,9.2h0.7v0.7c0.2-0.4,0.6-0.7,1.1-0.7c0.2,0,0.5,0.1,0.7,0.2l-0.3,0.6c-0.2-0.1-0.3-0.1-0.5-0.1
	c-0.3,0-0.6,0.1-0.8,0.4c-0.2,0.3-0.3,0.6-0.2,0.9v2.3h-0.7L48.9,9.2z"/>
<path d="M53.8,9.1c0.6,0,1.1,0.2,1.5,0.7c0.3,0.4,0.5,0.9,0.5,1.5c0,0.6-0.2,1.2-0.6,1.6c-0.4,0.4-0.9,0.6-1.4,0.5
	c-0.6,0-1.1-0.2-1.5-0.7c-0.3-0.4-0.5-0.9-0.5-1.5c0-0.6,0.2-1.2,0.6-1.6C52.8,9.3,53.3,9.1,53.8,9.1z M53.8,9.7
	c-0.4,0-0.8,0.2-1,0.5c-0.2,0.3-0.3,0.7-0.3,1.1c0,0.4,0.1,0.9,0.4,1.2c0.5,0.5,1.3,0.5,1.8,0c0,0,0.1-0.1,0.1-0.1
	c0.2-0.3,0.3-0.7,0.3-1.1c0-0.5-0.1-0.9-0.4-1.3C54.4,9.8,54.1,9.6,53.8,9.7z"/>
<path d="M59.8,12.7c-0.3,0.5-0.8,0.8-1.4,0.7c-0.5,0-1.1-0.2-1.4-0.7c-0.3-0.4-0.5-1-0.4-1.5c0-0.6,0.2-1.2,0.5-1.6
	c0.3-0.4,0.8-0.5,1.3-0.5c0.6,0,1.1,0.3,1.4,0.8V7.3h0.6v6h-0.7V12.7z M58.6,9.7c-0.4,0-0.7,0.2-1,0.5c-0.2,0.3-0.3,0.7-0.3,1.1
	c0,1.1,0.4,1.6,1.2,1.6c0.4,0,0.8-0.2,1-0.5c0.2-0.3,0.3-0.7,0.3-1.1c0.1-0.5-0.1-0.9-0.3-1.3C59.3,9.8,58.9,9.6,58.6,9.7L58.6,9.7z
	"/>
<path d="M64.7,12.7c-0.2,0.5-0.7,0.7-1.3,0.7c-0.4,0-0.8-0.2-1-0.5c-0.2-0.4-0.3-0.8-0.3-1.2V9.2h0.7v2.6c0,0.3,0.1,0.6,0.2,0.8
	c0.2,0.2,0.4,0.2,0.6,0.2c0.3,0,0.6-0.1,0.8-0.3c0.2-0.2,0.3-0.5,0.3-0.8V9.2h0.7v4.2h-0.7L64.7,12.7z"/>
<path d="M68.6,13.4c-0.6,0-1.1-0.2-1.5-0.7c-0.3-0.4-0.5-0.9-0.5-1.5c0-0.6,0.2-1.2,0.6-1.6c0.8-0.7,2-0.7,2.7,0.1
	c0.1,0.1,0.1,0.1,0.2,0.2l-0.6,0.3c-0.1-0.2-0.3-0.4-0.5-0.5c-0.2-0.1-0.4-0.1-0.6-0.1c-0.4,0-0.8,0.2-1,0.5
	c-0.2,0.3-0.3,0.7-0.3,1.1c0,0.4,0.1,0.9,0.4,1.2c0.2,0.2,0.6,0.4,0.9,0.4c0.5,0,0.9-0.2,1.1-0.6l0.5,0.3c-0.2,0.3-0.4,0.6-0.8,0.7
	C69.2,13.4,68.9,13.4,68.6,13.4z"/>
<path d="M70.9,9.2h0.6V8.1l0.7-0.2v1.3h1.1v0.6h-1v2.6c0,0.4,0.2,0.6,0.5,0.6c0.2,0,0.4-0.1,0.6-0.2l0.3,0.5
	c-0.2,0.2-0.6,0.3-0.9,0.3c-0.3,0-0.6-0.1-0.8-0.3c-0.2-0.2-0.3-0.4-0.3-0.7V9.7h-0.6V9.2z"/>
<path d="M77.2,7.6h0.7v5.7h-0.7V7.6z"/>
<path d="M79.7,9.2h0.7v0.6c0.2-0.5,0.8-0.7,1.3-0.7c0.4,0,0.8,0.2,1.1,0.5c0.2,0.3,0.3,0.8,0.3,1.2v2.6h-0.7v-2.6
	c0-0.3-0.1-0.6-0.2-0.8c-0.2-0.2-0.4-0.2-0.6-0.2c-0.3,0-0.6,0.1-0.8,0.3c-0.2,0.2-0.3,0.5-0.3,0.8v2.6h-0.7L79.7,9.2z"/>
<path d="M84.1,9.2h0.6V8.6c0-0.4,0.1-0.7,0.4-1c0.2-0.2,0.6-0.3,0.9-0.3c0.3,0,0.5,0.1,0.8,0.2l-0.2,0.5c-0.2-0.1-0.4-0.1-0.6-0.2
	c-0.2,0-0.3,0.1-0.4,0.2c-0.1,0.2-0.2,0.3-0.2,0.5v0.7h1v0.6h-1v3.6h-0.7V9.7h-0.6L84.1,9.2z"/>
<path d="M88.9,9.1c0.6,0,1.1,0.2,1.5,0.7c0.3,0.4,0.5,0.9,0.5,1.5c0,0.6-0.2,1.2-0.6,1.6c-0.4,0.4-0.9,0.6-1.4,0.5
	c-0.6,0-1.1-0.2-1.5-0.7c-0.3-0.4-0.5-0.9-0.5-1.5c0-0.6,0.2-1.2,0.6-1.6C87.9,9.3,88.4,9.1,88.9,9.1z M88.9,9.7
	c-0.4,0-0.8,0.2-1,0.5c-0.2,0.3-0.3,0.7-0.3,1.1c0,0.4,0.1,0.9,0.4,1.2c0.5,0.5,1.3,0.5,1.8,0c0,0,0.1-0.1,0.1-0.1
	c0.2-0.3,0.3-0.7,0.3-1.1c0-0.5-0.1-0.9-0.4-1.3C89.5,9.8,89.2,9.6,88.9,9.7z"/>
<path d="M96.7,7.5h0.4v5.8h-0.7V8.6c-0.2,0.1-0.5,0.2-0.7,0.3C95.4,9,95.1,9,94.8,9l-0.1-0.4c0.4,0,0.8-0.2,1.2-0.4
	C96.2,8,96.5,7.8,96.7,7.5z"/>
<rect x="34.2" y="1.3" class="st1" width="160.3" height="45.7"/>
<line class="st1" x1="34.2" y1="47" x2="34.2" y2="62"/>
<line class="st1" x1="194.5" y1="47" x2="194.5" y2="62"/>
</svg>
