<?xml version="1.0" encoding="utf-8"?>
<!--
  ~ Copyright (C) 2020 Robert Bosch GmbH Copyright (C) 2020 Robert Bosch Manufacturing Solutions GmbH, Germany. All rights reserved.
  -->
<!-- Generator: Adobe Illustrator 22.1.0, SVG Export Plug-In . SVG Version: 6.00 Build 0)  -->
<svg version="1.1" id="Ebene_1" xmlns="http://www.w3.org/2000/svg" xmlns:xlink="http://www.w3.org/1999/xlink" x="0px" y="0px"
	 viewBox="0 0 224 64" style="enable-background:new 0 0 224 64;" xml:space="preserve">
<style type="text/css">
	.st0{fill:none;stroke:#EFEFF0;}
	.st1{fill:none;}
	.st2{fill:#EFEFF0;}
</style>
<path class="st0" d="M35.7,1.1h154.6V63H35.7V1.1z"/>
<g>
	<rect x="108.4" y="49.8" class="st1" width="10" height="10"/>
	<path d="M112.2,51.2l2.8,3.6l-2.8,3.6l-0.3-0.2l2.6-3.3l-2.6-3.5L112.2,51.2z"/>
</g>
<circle class="st2" cx="56.3" cy="23.8" r="15.5"/>
<rect x="76.7" y="26.2" class="st2" width="80.4" height="6.7"/>
<rect x="76.7" y="36.2" class="st2" width="40.2" height="6.7"/>
<rect x="76.7" y="51.3" class="st2" width="30.2" height="6.7"/>
<g>
	<path d="M80.2,11.7h-2.5v-0.9h6v0.9h-2.5v7.2h-1.1L80.2,11.7L80.2,11.7z"/>
	<path d="M85.7,11.5c0,0.4-0.3,0.6-0.7,0.6c-0.4,0-0.6-0.3-0.6-0.6c0-0.4,0.3-0.7,0.7-0.7C85.4,10.8,85.7,11.1,85.7,11.5z
		 M84.5,18.9v-5.8h1.1v5.8H84.5z"/>
	<path d="M87.3,10.4h1.1v8.5h-1.1V10.4z"/>
	<path d="M90.7,16.2c0,1.4,0.9,2,2,2c0.8,0,1.2-0.1,1.6-0.3l0.2,0.8c-0.4,0.2-1,0.4-1.9,0.4c-1.8,0-2.9-1.2-2.9-2.9s1-3.1,2.7-3.1
		c1.9,0,2.4,1.7,2.4,2.7c0,0.2,0,0.4,0,0.5L90.7,16.2L90.7,16.2z M93.8,15.4c0-0.7-0.3-1.7-1.5-1.7c-1.1,0-1.5,1-1.6,1.7H93.8z"/>
	<path d="M99.9,11.5c0,0.4-0.3,0.6-0.7,0.6c-0.4,0-0.6-0.3-0.6-0.6c0-0.4,0.3-0.7,0.7-0.7C99.6,10.8,99.9,11.1,99.9,11.5z
		 M98.7,18.9v-5.8h1.1v5.8H98.7z"/>
	<path d="M102.8,11.4v1.7h1.5v0.8h-1.5V17c0,0.7,0.2,1.1,0.8,1.1c0.3,0,0.5,0,0.6-0.1v0.8c-0.2,0.1-0.5,0.1-0.9,0.1
		c-0.5,0-0.9-0.2-1.1-0.4c-0.3-0.3-0.4-0.8-0.4-1.5v-3.1h-0.9v-0.8h0.9v-1.4L102.8,11.4z"/>
	<path d="M106,16.2c0,1.4,0.9,2,2,2c0.8,0,1.2-0.1,1.6-0.3l0.2,0.8c-0.4,0.2-1,0.4-1.9,0.4c-1.8,0-2.9-1.2-2.9-2.9s1-3.1,2.7-3.1
		c1.9,0,2.4,1.7,2.4,2.7c0,0.2,0,0.4,0,0.5L106,16.2L106,16.2z M109.1,15.4c0-0.7-0.3-1.7-1.5-1.7c-1.1,0-1.5,1-1.6,1.7H109.1z"/>
	<path d="M111.4,14.7c0-0.6,0-1.1,0-1.6h0.9V14l0,0c0.3-0.6,0.9-1.1,1.8-1.1c0.8,0,1.4,0.5,1.6,1.2l0,0c0.2-0.3,0.4-0.6,0.6-0.8
		c0.3-0.3,0.7-0.4,1.3-0.4c0.8,0,1.9,0.5,1.9,2.5v3.5h-1v-3.3c0-1.1-0.4-1.8-1.3-1.8c-0.6,0-1.1,0.4-1.2,1c0,0.1-0.1,0.3-0.1,0.5
		v3.6h-1v-3.5c0-0.9-0.4-1.6-1.2-1.6c-0.7,0-1.1,0.5-1.3,1.1c-0.1,0.2-0.1,0.3-0.1,0.5v3.5h-1L111.4,14.7L111.4,14.7z"/>
	<path d="M125.9,12.1L125.9,12.1l-1.4,0.7l-0.2-0.8l1.7-0.9h0.9v7.8h-1V12.1z"/>
</g>
</svg>
