<?xml version="1.0" encoding="utf-8"?>
<svg xmlns="http://www.w3.org/2000/svg" height="128" width="128" viewBox="0 0 128 128">
  <g>
    <path id="path1" transform="rotate(0,64,64) translate(19.9999816417618,0) scale(4.00000166893075,4.00000166893075)  " fill="#FFFFFF" d="M8.0049999,29.999987L14.005,29.999987C14.557979,29.999987 15.005,30.447008 15.005,30.999987 15.005,31.553026 14.557979,31.999987 14.005,31.999987L8.0049999,31.999987C7.4520216,31.999987 7.0050001,31.553026 7.0050004,30.999987 7.0050001,30.447008 7.4520216,29.999987 8.0049999,29.999987z M7.0050175,27L15.005017,27C15.039579,27 15.073729,27.001746 15.10738,27.005155 15.14103,27.008564 15.174185,27.013635 15.206758,27.020287 15.239331,27.026938 15.271323,27.035169 15.302652,27.044896 15.333982,27.054624 15.364646,27.065847 15.394565,27.078484 15.424482,27.091121 15.453653,27.10517 15.481994,27.12055 15.510334,27.13593 15.537845,27.152639 15.564442,27.170595 15.591038,27.188551 15.616721,27.207754 15.641407,27.22812 15.666094,27.248486 15.689783,27.270015 15.712392,27.292624 15.735002,27.315234 15.756531,27.338923 15.776896,27.36361 15.797263,27.388296 15.816465,27.413979 15.834421,27.440576 15.852378,27.467172 15.869087,27.494683 15.884466,27.523024 15.899846,27.551364 15.913897,27.580535 15.926533,27.610453 15.93917,27.640371 15.950394,27.671036 15.96012,27.702365 15.969848,27.733694 15.978079,27.765686 15.98473,27.798259 15.991382,27.830833 15.996453,27.863986 15.999862,27.897638 16.003271,27.931289 16.005017,27.965437 16.005017,28 16.005017,28.034562 16.003271,28.068711 15.999862,28.102362 15.996453,28.136013 15.991382,28.169167 15.98473,28.20174 15.978079,28.234313 15.969848,28.266306 15.96012,28.297635 15.950394,28.328964 15.93917,28.359629 15.926533,28.389547 15.913897,28.419464 15.899846,28.448635 15.884466,28.476976 15.869087,28.505317 15.852378,28.532827 15.834421,28.559423 15.816465,28.58602 15.797263,28.611703 15.776896,28.63639 15.756531,28.661076 15.735002,28.684765 15.712392,28.707375 15.689783,28.729984 15.666094,28.751513 15.641407,28.77188 15.616721,28.792245 15.591038,28.811448 15.564442,28.829404 15.537845,28.84736 15.510334,28.864069 15.481994,28.879449 15.453653,28.894829 15.424482,28.908879 15.394565,28.921515 15.364646,28.934152 15.333982,28.945376 15.302652,28.955103 15.271323,28.96483 15.239331,28.973061 15.206758,28.979713 15.174185,28.986364 15.14103,28.991436 15.10738,28.994845 15.073729,28.998254 15.039579,29 15.005017,29L7.0050175,29C6.9704548,29 6.9363064,28.998254 6.9026554,28.994845 6.8690043,28.991436 6.8358505,28.986364 6.8032773,28.979713 6.7707038,28.973061 6.7387111,28.96483 6.7073826,28.955103 6.6760536,28.945376 6.6453885,28.934152 6.6154703,28.921515 6.5855525,28.908879 6.5563816,28.894829 6.5280413,28.879449 6.4997005,28.864069 6.4721902,28.84736 6.4455934,28.829404 6.4189968,28.811448 6.3933137,28.792245 6.3686275,28.77188 6.3439412,28.751513 6.3202517,28.729984 6.2976423,28.707375 6.2750329,28.684765 6.2535036,28.661076 6.2331377,28.63639 6.2127717,28.611703 6.1935691,28.58602 6.175613,28.559423 6.1576569,28.532827 6.1409475,28.505316 6.125568,28.476976 6.1101882,28.448635 6.0961385,28.419464 6.0835019,28.389547 6.0708649,28.359629 6.0596413,28.328964 6.0499141,28.297635 6.0401868,28.266306 6.0319559,28.234313 6.0253045,28.20174 6.018653,28.169167 6.0135812,28.136013 6.0101725,28.102362 6.0067635,28.068711 6.0050175,28.034562 6.0050175,28 6.0050173,27.965437 6.0067634,27.931289 6.0101725,27.897638 6.0135814,27.863986 6.0186532,27.830833 6.0253045,27.798259 6.0319558,27.765686 6.0401867,27.733693 6.0499141,27.702365 6.0596414,27.671036 6.070865,27.640371 6.0835019,27.610453 6.0961384,27.580535 6.1101882,27.551364 6.125568,27.523024 6.1409475,27.494683 6.157657,27.467172 6.175613,27.440576 6.1935691,27.413979 6.2127717,27.388296 6.2331377,27.36361 6.2535037,27.338923 6.2750329,27.315234 6.2976423,27.292624 6.3202516,27.270015 6.3439412,27.248486 6.3686275,27.22812 6.3933138,27.207754 6.4189969,27.188551 6.4455934,27.170595 6.4721901,27.152639 6.4997004,27.13593 6.5280413,27.12055 6.5563816,27.10517 6.5855525,27.091121 6.6154703,27.078484 6.6453884,27.065847 6.6760534,27.054624 6.7073826,27.044896 6.7387113,27.035169 6.770704,27.026938 6.8032773,27.020287 6.8358503,27.013635 6.8690041,27.008564 6.9026554,27.005155 6.9363066,27.001746 6.970455,27 7.0050175,27z M11,2C10.922453,2 10.845132,2.0009899 10.768049,2.0029602 10.690967,2.0049305 10.614122,2.0078773 10.537527,2.0117931 10.460932,2.0157089 10.384586,2.0205898 10.308502,2.0264282 10.232419,2.0322647 10.156597,2.0390568 10.081049,2.0467911 10.0055,2.0545254 9.9302254,2.0632038 9.8552361,2.072813 9.7802465,2.0824223 9.7055423,2.0929623 9.6311355,2.1044216 9.5567288,2.1158791 9.4826195,2.1282578 9.4088194,2.1415443 9.3350189,2.154829 9.2615275,2.1690216 9.1883576,2.1841106 9.1151874,2.1991978 9.0423381,2.2151814 8.9698218,2.232048 8.8973056,2.2489128 8.8251222,2.2666626 8.7532835,2.285284 8.6814449,2.3039055 8.609951,2.3233986 8.5388137,2.34375 8.4676765,2.3641033 8.3968959,2.3853149 8.3264838,2.4073734 8.2560716,2.4294319 8.1860279,2.4523392 8.1163647,2.4760818 8.0467012,2.4998226 7.9774182,2.5244007 7.9085277,2.5498028 7.8396367,2.5752048 7.7711381,2.601429 7.7030439,2.6284657 7.6349492,2.6555023 7.5672588,2.6833515 7.4999843,2.7119999 7.3654356,2.7692966 7.2325506,2.8297939 7.1014244,2.8933926 6.9702981,2.9569931 6.8409306,3.0236969 6.7134169,3.0934086 6.585903,3.1631203 6.4602429,3.2358398 6.3365317,3.3114738 6.21282,3.3871059 6.0910572,3.4656525 5.971338,3.5470161 5.8516186,3.6283798 5.733943,3.7125607 5.6184062,3.7994614 5.5028688,3.886364 5.3894701,3.9759903 5.2783051,4.0682411 5.1671398,4.1604919 5.0582081,4.2553692 4.9516051,4.3527775 4.8450015,4.4501858 4.7407267,4.5501251 4.6388752,4.6525002 4.5370235,4.7548752 4.4375954,4.8596859 4.3406854,4.9668369 4.2437754,5.0739861 4.1493838,5.1834774 4.0576053,5.2952137 3.9658267,5.4069481 3.8766615,5.5209274 3.7902048,5.6370583 3.7037475,5.7531872 3.6199985,5.8714657 3.5390527,5.9917965 3.458107,6.1121292 3.3799644,6.2345142 3.3047197,6.3588581 3.229475,6.483202 3.1571283,6.6095047 3.0877748,6.7376709 3.0184209,6.8658352 2.9520602,6.995863 2.8887877,7.1276588 2.8255148,7.2594528 2.7653303,7.3930149 2.7083278,7.5282497 2.6798272,7.5958672 2.652122,7.6639023 2.6252241,7.7323437 2.5983267,7.8007851 2.5722365,7.8696327 2.5469656,7.9388733 2.5216951,8.0081139 2.4972439,8.0777493 2.4736238,8.147768 2.4500041,8.2177849 2.4272156,8.2881851 2.4052706,8.3589554 2.3833251,8.4297256 2.3622227,8.5008659 2.3419757,8.5723648 2.3217282,8.6438618 2.3023362,8.7157192 2.2838116,8.7879219 2.265286,8.8601265 2.2476277,8.9326744 2.2308483,9.0055599 2.2140689,9.0784435 2.1981683,9.1516628 2.1831584,9.2252026 2.168148,9.2987442 2.1540289,9.3726082 2.1408119,9.4467812 2.1275949,9.520956 2.1152811,9.5954399 2.1038809,9.6702232 2.0924811,9.7450066 2.0819955,9.8200893 2.0724363,9.8954582 2.0628772,9.9708271 2.054244,10.046482 2.0465493,10.122412 2.0388541,10.198341 2.0320973,10.274548 2.0262909,10.351015 2.020484,10.427483 2.0156269,10.504213 2.0117321,10.581194 2.0078373,10.658176 2.0049043,10.735409 2.0029449,10.81288 2.0009856,10.890352 2,10.968061 2,11.046 2,11.132999 2.0012345,11.219831 2.0037012,11.306486 2.0061679,11.393139 2.0098672,11.479616 2.0147967,11.565905 2.0197268,11.652191 2.0258865,11.738293 2.0332756,11.824194 2.0406642,11.910097 2.0492811,11.9958 2.0591249,12.081297 2.0689688,12.166792 2.080039,12.252081 2.0923338,12.337151 2.104629,12.42222 2.1181483,12.507072 2.1328907,12.591696 2.1476326,12.676321 2.1635976,12.760717 2.1807833,12.844875 2.197969,12.929033 2.2163749,13.012953 2.2360001,13.096624 2.2556248,13.180296 2.2764688,13.26372 2.2985291,13.346886 2.32059,13.430052 2.3438673,13.512959 2.3683596,13.595598 2.3928514,13.678238 2.4185586,13.760611 2.4454784,13.842703 2.4723983,13.924797 2.5005312,14.006613 2.5298748,14.08814 2.5592189,14.169667 2.5897737,14.250907 2.6215367,14.331848 2.6533008,14.412789 2.6862736,14.493432 2.7204528,14.573768 2.7546329,14.654102 2.7900195,14.734129 2.8266115,14.813838 2.863203,14.893547 2.901,14.972938 2.9400001,15.052L2.9900002,15.17C3.0032501,15.208719 3.0181301,15.248941 3.0345488,15.290565 3.050967,15.33219 3.068924,15.375216 3.0883279,15.41954 3.1077323,15.463865 3.1285837,15.509489 3.1507907,15.55631 3.1729982,15.60313 3.1965613,15.651148 3.2213888,15.700259 3.2462165,15.749372 3.2723086,15.799578 3.2995737,15.850776 3.3268394,15.901974 3.3552778,15.954164 3.3847983,16.007243 3.4143186,16.060324 3.4449208,16.114293 3.4765136,16.169049 3.5081062,16.223805 3.5406897,16.279349 3.5741718,16.335578 3.6076543,16.391807 3.642036,16.44872 3.6772254,16.506215 3.7124147,16.563711 3.7484121,16.621789 3.785126,16.680347 3.8585534,16.797464 3.9348469,16.916501 4.0132751,17.036638 4.0917041,17.156776 4.1722682,17.278015 4.2542367,17.399535 4.3362052,17.521056 4.4195783,17.642859 4.5036247,17.764125 4.587672,17.88539 4.6723926,18.006119 4.7570565,18.125491 4.8417203,18.244864 4.9263272,18.36288 5.0101463,18.478721 5.0939659,18.594562 5.1769977,18.708226 5.2585111,18.818898 5.2992678,18.874233 5.3396449,18.928821 5.3795509,18.982556 5.4194573,19.036292 5.4588927,19.089177 5.4977654,19.141109 5.5366387,19.193041 5.5749496,19.244019 5.6126069,19.293941 5.6502639,19.343863 5.6872675,19.392731 5.7235262,19.440439 5.7597849,19.488148 5.7952987,19.534698 5.8299758,19.579988 5.8646535,19.625278 5.8984947,19.669308 5.9314082,19.711974 5.9643219,19.754641 5.9963078,19.795944 6.0272748,19.835783 6.0582418,19.875621 6.0881899,19.913994 6.1170274,19.950799 6.1458655,19.987604 6.173593,20.022842 6.2001187,20.05641 6.2266446,20.089977 6.2519689,20.121875 6.2760001,20.151999L6.3480001,20.254C6.4056251,20.347938 6.4610118,20.441308 6.5142469,20.534033 6.5674821,20.626758 6.6185655,20.718836 6.6675839,20.810187 6.7166027,20.901539 6.7635563,20.992164 6.8085316,21.081983 6.8535069,21.171801 6.896504,21.260813 6.9376095,21.348937 6.978715,21.437062 7.0179288,21.524301 7.0553376,21.610572 7.0927467,21.696843 7.1283507,21.782148 7.1622364,21.866405 7.1961222,21.950664 7.2282896,22.033875 7.2588254,22.115959 7.2893614,22.198043 7.3182657,22.279 7.345625,22.358749 7.3729845,22.4385 7.3987989,22.517043 7.4231549,22.594298 7.4475113,22.671555 7.4704093,22.747523 7.4919358,22.822124 7.513462,22.896726 7.5336168,22.969961 7.5524864,23.041748 7.5713566,23.113535 7.5889415,23.183875 7.6053281,23.252687 7.6217149,23.3215 7.6369033,23.388785 7.6509799,23.454462 7.6650572,23.52014 7.6780226,23.58421 7.6899628,23.646593 7.7019033,23.708976 7.7128189,23.769671 7.7227959,23.828599 7.7327735,23.887527 7.7418126,23.944687 7.7499999,24L14.21,24C14.226375,23.889375 14.246156,23.771359 14.270037,23.646593 14.281978,23.58421 14.294943,23.52014 14.30902,23.454462 14.323097,23.388785 14.338285,23.3215 14.354672,23.252687 14.371058,23.183875 14.388644,23.113535 14.407514,23.041748 14.426383,22.969961 14.446538,22.896726 14.468065,22.822124 14.489591,22.747523 14.512489,22.671555 14.536845,22.594298 14.561201,22.517043 14.587016,22.4385 14.614375,22.358749 14.641735,22.279 14.670639,22.198043 14.701175,22.115959 14.73171,22.033875 14.763878,21.950664 14.797764,21.866405 14.83165,21.782148 14.867254,21.696843 14.904663,21.610572 14.942071,21.524301 14.981286,21.437062 15.02239,21.348937 15.063497,21.260813 15.106493,21.171801 15.151469,21.081983 15.196445,20.992164 15.243398,20.901539 15.292417,20.810187 15.341434,20.718836 15.392518,20.626758 15.445754,20.534033 15.498989,20.441308 15.554376,20.347938 15.612,20.254L15.683001,20.153C15.68372,20.152062 15.686691,20.148293 15.691798,20.141818 15.696905,20.135344 15.704147,20.126164 15.713408,20.114407 15.722669,20.102649 15.733947,20.088313 15.747126,20.071527 15.760305,20.054739 15.775384,20.035501 15.792247,20.013939 15.809109,19.992377 15.827754,19.968491 15.848064,19.942408 15.868376,19.916325 15.890351,19.888044 15.913876,19.857694 15.9374,19.827343 15.962472,19.794923 15.988975,19.760559 16.015477,19.726195 16.04341,19.689888 16.072657,19.651765 16.101903,19.613642 16.132462,19.573703 16.164216,19.532075 16.195971,19.490446 16.228921,19.447128 16.262949,19.402249 16.296977,19.357369 16.332084,19.310927 16.36815,19.26305 16.404217,19.215173 16.441243,19.16586 16.479114,19.11524 16.516984,19.064619 16.555696,19.012691 16.595136,18.95958 16.634574,18.90647 16.674738,18.852179 16.71551,18.796833 16.756283,18.741488 16.797663,18.685088 16.839534,18.627761 16.881405,18.570434 16.923766,18.512179 16.9665,18.453124 17.009234,18.39407 17.052342,18.334215 17.095705,18.273687 17.139068,18.213159 17.182687,18.151957 17.226443,18.090209 17.313956,17.966713 17.402021,17.841032 17.489699,17.714181 17.577377,17.587331 17.664667,17.459311 17.750629,17.331137 17.836592,17.202964 17.921227,17.074636 18.003593,16.947171 18.044778,16.883439 18.085394,16.819922 18.125326,16.756748 18.165258,16.693574 18.204507,16.630742 18.242952,16.568379 18.281399,16.506018 18.319043,16.444125 18.355767,16.382829 18.392492,16.321532 18.428298,16.260833 18.463066,16.200857 18.497835,16.140881 18.531567,16.081628 18.564144,16.023226 18.596722,15.964824 18.628144,15.907272 18.658296,15.850698 18.688447,15.794125 18.717326,15.738527 18.744816,15.684035 18.772305,15.629543 18.798407,15.576156 18.823,15.523999 18.871813,15.436249 18.919121,15.348019 18.964924,15.259334 19.010725,15.170648 19.05502,15.081507 19.097807,14.991935 19.140593,14.902364 19.18187,14.812363 19.221635,14.721956 19.261399,14.63155 19.299652,14.540738 19.33639,14.449547 19.373129,14.358356 19.408353,14.266784 19.442059,14.174858 19.475765,14.082932 19.507955,13.990652 19.538623,13.898041 19.569292,13.805431 19.598441,13.71249 19.626067,13.619246 19.653693,13.526001 19.679797,13.432453 19.704375,13.338625 19.728953,13.244797 19.752006,13.15069 19.773531,13.056328 19.795055,12.961966 19.815052,12.867352 19.833518,12.772505 19.851983,12.677662 19.868918,12.582588 19.88432,12.48731 19.899722,12.392033 19.913589,12.296551 19.925922,12.200891 19.938254,12.10523 19.94905,12.009392 19.958307,11.913399 19.967564,11.817406 19.975283,11.72126 19.98146,11.624987 19.987636,11.528711 19.992271,11.432308 19.995362,11.335802 19.998453,11.239296 20,11.142687 20,11.046 20,10.968061 19.999015,10.890352 19.997055,10.81288 19.995096,10.735409 19.992163,10.658176 19.988268,10.581194 19.984373,10.504213 19.979516,10.427483 19.973709,10.351015 19.967902,10.274548 19.961145,10.198341 19.953451,10.122412 19.945756,10.046482 19.937123,9.9708271 19.927564,9.8954582 19.918004,9.8200893 19.907519,9.7450066 19.896119,9.6702232 19.884719,9.5954399 19.872405,9.520956 19.859188,9.4467812 19.845971,9.3726082 19.831852,9.2987442 19.816842,9.2252026 19.801832,9.1516628 19.785932,9.0784435 19.769152,9.0055599 19.752372,8.9326744 19.734714,8.8601265 19.716189,8.7879219 19.697663,8.7157192 19.678271,8.6438618 19.658025,8.5723648 19.637777,8.5008659 19.616675,8.4297256 19.594729,8.3589554 19.572784,8.2881851 19.549995,8.2177849 19.526376,8.147768 19.502756,8.0777493 19.478305,8.0081139 19.453034,7.9388733 19.427764,7.8696327 19.401673,7.8007851 19.374776,7.7323437 19.347878,7.6639023 19.320173,7.5958672 19.291672,7.5282497 19.23467,7.3930149 19.174485,7.2594528 19.111212,7.1276588 19.047939,6.995863 18.981579,6.8658352 18.912226,6.7376709 18.842872,6.6095047 18.770525,6.483202 18.695281,6.3588581 18.620036,6.2345142 18.541893,6.1121292 18.460947,5.9917965 18.380002,5.8714657 18.296252,5.7531872 18.209796,5.6370583 18.123339,5.5209274 18.034173,5.4069481 17.942394,5.2952137 17.850616,5.1834774 17.756225,5.0739861 17.659315,4.9668369 17.562405,4.8596859 17.462976,4.7548752 17.361125,4.6525002 17.259274,4.5501251 17.154999,4.4501858 17.048395,4.3527775 16.941792,4.2553692 16.83286,4.1604919 16.721695,4.0682411 16.61053,3.9759903 16.497131,3.886364 16.381595,3.7994614 16.266057,3.7125607 16.148381,3.6283798 16.028662,3.5470161 15.908943,3.4656525 15.78718,3.3871059 15.663468,3.3114738 15.539758,3.2358398 15.414097,3.1631203 15.286584,3.0934086 15.15907,3.0236969 15.029702,2.9569931 14.898576,2.8933926 14.767449,2.8297939 14.634564,2.7692966 14.500016,2.7119999 14.432741,2.6833515 14.365051,2.6555023 14.296957,2.6284657 14.228862,2.601429 14.160364,2.5752048 14.091473,2.5498028 14.022582,2.5244007 13.953299,2.4998226 13.883636,2.4760818 13.813972,2.4523392 13.743928,2.4294319 13.673517,2.4073734 13.603104,2.3853149 13.532324,2.3641033 13.461186,2.34375 13.390049,2.3233986 13.318555,2.3039055 13.246716,2.285284 13.174878,2.2666626 13.102695,2.2489128 13.030178,2.232048 12.957662,2.2151814 12.884813,2.1991978 12.811643,2.1841106 12.738472,2.1690216 12.664981,2.154829 12.591181,2.1415443 12.517381,2.1282578 12.443271,2.1158791 12.368865,2.1044216 12.294457,2.0929623 12.219754,2.0824223 12.144764,2.072813 12.069775,2.0632038 11.9945,2.0545254 11.918952,2.0467911 11.843403,2.0390568 11.767581,2.0322647 11.691497,2.0264282 11.615414,2.0205898 11.539069,2.0157089 11.462473,2.0117931 11.385879,2.0078773 11.309033,2.0049305 11.231951,2.0029602 11.154868,2.0009899 11.077547,2 11,2z M11,0C11.094766,0 11.189255,0.001209259 11.283455,0.0036144257 11.377654,0.0060195923 11.471563,0.0096187592 11.565167,0.014400482 11.658771,0.019180298 11.75207,0.02514267 11.84505,0.032268524 11.93803,0.039396286 12.03069,0.047689438 12.123016,0.057134628 12.215343,0.066577911 12.307335,0.07717514 12.398979,0.088907242 12.490623,0.10064125 12.581919,0.11351013 12.672852,0.12750244 12.763784,0.14149475 12.854353,0.15660858 12.944545,0.17283058 13.034738,0.18905449 13.124552,0.20638275 13.213974,0.22480583 13.303397,0.24322891 13.392428,0.26274681 13.481052,0.28334045 13.569676,0.303936 13.657894,0.32560921 13.74569,0.34834671 13.833487,0.37108421 13.920862,0.39488602 14.007802,0.41973686 14.094742,0.44458771 14.181247,0.47048759 14.267301,0.49742317 14.353355,0.52435875 14.43896,0.55233002 14.5241,0.58131981 14.60924,0.6103096 14.693914,0.64032173 14.778111,0.67133713 14.862307,0.70235443 14.946024,0.73437691 15.029247,0.7673912 15.112471,0.80040359 15.1952,0.83440971 15.277422,0.86939049 15.359644,0.90437126 15.441358,0.94033051 15.522549,0.97725105 15.603739,1.0141697 15.684407,1.0520535 15.764539,1.0908833 15.844669,1.1297112 15.924264,1.1694889 16.003306,1.2101994 16.082349,1.2509098 16.160839,1.2925529 16.238764,1.3351135 16.316689,1.3776741 16.394047,1.421154 16.470824,1.465538 16.547602,1.509922 16.623798,1.5552082 16.699401,1.6013851 16.775002,1.647562 16.850009,1.6946278 16.924405,1.7425671 16.998802,1.7905083 17.072589,1.839323 17.145752,1.888998 17.218915,1.938673 17.291453,1.9892082 17.363354,2.0405884 17.435253,2.0919685 17.506515,2.1441956 17.577123,2.1972523 17.64773,2.250309 17.717685,2.3041973 17.786972,2.358902 17.856258,2.4136066 17.924877,2.4691277 17.992814,2.5254498 18.060751,2.5817719 18.128005,2.6388969 18.194563,2.6968079 18.26112,2.7547207 18.326981,2.8134193 18.392131,2.8728905 18.522429,2.9918327 18.649883,3.1138668 18.774375,3.2388744 18.898868,3.3638821 19.020398,3.4918652 19.138851,3.6227036 19.257304,3.7535439 19.372681,3.8872414 19.484862,4.0236797 19.540954,4.091898 19.596246,4.1608028 19.650725,4.2303772 19.705205,4.2999516 19.758872,4.3701973 19.811711,4.4410992 19.864551,4.512001 19.916562,4.583559 19.967732,4.6557579 20.018902,4.7279587 20.06923,4.8008003 20.118702,4.8742676 20.168173,4.9477348 20.216787,5.0218296 20.264531,5.0965385 20.312276,5.1712456 20.359149,5.2465649 20.405136,5.3224831 20.451123,5.3984013 20.496225,5.4749165 20.540427,5.5520153 20.584629,5.6291142 20.627932,5.7067947 20.670319,5.7850456 20.712707,5.8632965 20.754179,5.9421158 20.794723,6.0214901 20.835266,6.1008644 20.874882,6.1807919 20.913552,6.2612591 20.952224,6.3417263 20.989951,6.4227333 21.026721,6.5042648 21.06349,6.5857983 21.099302,6.6678543 21.134141,6.7504215 21.16898,6.8329887 21.202846,6.9160671 21.235725,6.9996395 21.268604,7.0832138 21.300496,7.167284 21.331387,7.2518349 21.362277,7.3363857 21.392166,7.4214172 21.421039,7.506916 21.449911,7.5924149 21.477768,7.678381 21.504594,7.7647991 21.53142,7.8512173 21.557215,7.9380875 21.581964,8.0253944 21.606714,8.1127014 21.63042,8.2004471 21.653065,8.2886143 21.67571,8.3767834 21.697295,8.465374 21.717807,8.5543747 21.738318,8.6433735 21.757755,8.7327824 21.776104,8.8225842 21.794452,8.9123859 21.811711,9.0025806 21.827868,9.0931568 21.844025,9.1837311 21.859077,9.2746868 21.873013,9.3660049 21.886949,9.457325 21.899766,9.5490093 21.911452,9.6410427 21.923138,9.733078 21.93369,9.8254623 21.943097,9.9181824 21.952503,10.010902 21.960763,10.103958 21.967861,10.197334 21.974959,10.29071 21.980897,10.384409 21.985659,10.478413 21.990419,10.572416 21.994005,10.666727 21.9964,10.761332 21.998796,10.855932 22,10.950829 22,11.046 22,11.164 21.998114,11.281906 21.994352,11.39967 21.990591,11.517433 21.984955,11.635054 21.977457,11.752483 21.969959,11.869913 21.960599,11.987152 21.949389,12.104151 21.938178,12.221148 21.925117,12.337906 21.910219,12.454374 21.89532,12.570843 21.878584,12.687023 21.860023,12.802864 21.84146,12.918707 21.821073,13.03421 21.798871,13.149328 21.77667,13.264444 21.752655,13.379175 21.726839,13.493471 21.701023,13.607765 21.673407,13.721624 21.644,13.834999 21.614594,13.948374 21.583399,14.061265 21.550426,14.173622 21.517454,14.28598 21.482705,14.397804 21.446191,14.509047 21.409678,14.620289 21.3714,14.730948 21.331368,14.840979 21.291338,14.951008 21.249555,15.060406 21.206032,15.169125 21.162508,15.277843 21.117244,15.385882 21.070252,15.493193 21.023261,15.600504 20.974541,15.707086 20.924106,15.81289 20.87367,15.918694 20.821519,16.023723 20.767663,16.127923 20.713808,16.232124 20.65825,16.3355 20.601,16.438 20.575812,16.491562 20.549289,16.546161 20.521527,16.601691 20.493766,16.657222 20.464767,16.713685 20.434627,16.770975 20.404488,16.828265 20.373207,16.886384 20.340885,16.945226 20.308563,17.004067 20.275199,17.063633 20.240891,17.123818 20.206582,17.184003 20.171329,17.244807 20.13523,17.306128 20.099131,17.367448 20.062184,17.429283 20.02449,17.491529 19.949101,17.616022 19.870719,17.74216 19.790125,17.869109 19.709531,17.996058 19.626726,18.123819 19.542494,18.251558 19.458261,18.379297 19.372602,18.507014 19.286297,18.633877 19.199992,18.760739 19.113043,18.886746 19.026233,19.011065 18.939422,19.135385 18.85275,19.258016 18.767,19.378125 18.724125,19.438179 18.68148,19.497603 18.639165,19.556293 18.596848,19.614984 18.55486,19.672938 18.513299,19.730055 18.471737,19.787171 18.430602,19.84345 18.389991,19.898785 18.34938,19.95412 18.309293,20.008512 18.269828,20.061857 18.230363,20.115202 18.191521,20.1675 18.153398,20.218648 18.115275,20.269794 18.077872,20.319791 18.041287,20.368531 18.004703,20.417272 17.968935,20.464757 17.934084,20.510883 17.899233,20.557009 17.865297,20.601775 17.832376,20.645078 17.799453,20.68838 17.767545,20.73022 17.736749,20.770491 17.705952,20.810762 17.676267,20.849466 17.647791,20.886497 17.619315,20.923529 17.59205,20.958889 17.566091,20.992473 17.540132,21.026056 17.51548,21.057863 17.492234,21.08779 17.468988,21.117718 17.447147,21.145765 17.42681,21.171827 17.406472,21.19789 17.387637,21.221968 17.370404,21.243958 17.35317,21.265947 17.337539,21.285849 17.323606,21.303557 17.309671,21.321265 17.297438,21.336781 17.287,21.349999 17.249594,21.411905 17.213399,21.473447 17.178378,21.534586 17.143356,21.595724 17.109508,21.656461 17.076792,21.716757 17.044077,21.777054 17.012495,21.836911 16.982007,21.896293 16.95152,21.955673 16.922127,22.014578 16.893789,22.072968 16.865451,22.131359 16.838168,22.189236 16.811901,22.246562 16.785635,22.303888 16.760385,22.360664 16.73611,22.416851 16.711836,22.473039 16.68854,22.528638 16.66618,22.583613 16.64382,22.638587 16.622398,22.692937 16.601875,22.746624 16.581351,22.800312 16.561727,22.853338 16.542961,22.905664 16.524195,22.95799 16.506289,23.009617 16.489202,23.060508 16.472116,23.111398 16.45585,23.161552 16.440364,23.210933 16.424878,23.260314 16.410173,23.308921 16.396211,23.356719 16.382248,23.404515 16.369027,23.451502 16.356508,23.49764 16.343989,23.543779 16.332173,23.58907 16.32102,23.633476 16.309868,23.677883 16.299378,23.721404 16.289513,23.764003 16.279648,23.806603 16.270406,23.848281 16.26175,23.888999 16.253094,23.929718 16.245023,23.969478 16.237496,24.008242 16.229972,24.047006 16.222992,24.084773 16.216518,24.121508 16.210046,24.158242 16.204079,24.193943 16.19858,24.228574 16.193081,24.263205 16.188048,24.296765 16.183445,24.329218 16.178842,24.361671 16.174666,24.393017 16.17088,24.423219 16.167094,24.45342 16.163697,24.482476 16.160649,24.510352 16.157602,24.538226 16.154904,24.564919 16.152517,24.590394 16.150131,24.615869 16.148055,24.640125 16.14625,24.663125 16.144445,24.686125 16.142912,24.707869 16.141611,24.72832 16.14031,24.748771 16.139242,24.767929 16.138366,24.785758 16.137491,24.803586 16.136808,24.820084 16.13628,24.835214 16.135752,24.850345 16.135377,24.864109 16.135118,24.876468 16.134857,24.888828 16.134712,24.899783 16.134643,24.909297 16.134574,24.91881 16.13458,24.926882 16.134622,24.933476 16.134665,24.94007 16.134744,24.945185 16.134819,24.948785 16.134895,24.952384 16.134969,24.954468 16.135,24.954999L16.173,25.992 15.136,26 5.7710001,26 5.825,24.947C5.8250313,24.946718 5.8251046,24.944877 5.8251808,24.941512 5.8252568,24.938147 5.8253357,24.933259 5.8253782,24.926884 5.8254209,24.92051 5.8254272,24.912651 5.8253577,24.903342 5.8252889,24.894034 5.8251442,24.883277 5.8248847,24.871109 5.8246256,24.858941 5.8242517,24.845362 5.823724,24.830409 5.8231964,24.815456 5.8225149,24.799129 5.8216403,24.781466 5.8207661,24.763803 5.8196987,24.744804 5.8183992,24.724505 5.8170999,24.704206 5.8155684,24.682609 5.8137658,24.65975 5.811963,24.63689 5.809889,24.612769 5.8075044,24.587423 5.8051203,24.562078 5.8024255,24.535509 5.799381,24.507752 5.7963369,24.479995 5.792943,24.451051 5.7891605,24.420958 5.785378,24.390864 5.7812066,24.359621 5.7766073,24.327265 5.7720084,24.29491 5.7669814,24.261442 5.7614872,24.2269 5.7559935,24.192357 5.7500324,24.156739 5.7435653,24.120084 5.7370981,24.083428 5.7301248,24.045735 5.7226059,24.007042 5.7075689,23.929656 5.6903503,23.848269 5.670637,23.763179 5.6607807,23.720635 5.6503005,23.677165 5.6391577,23.632806 5.6280147,23.588448 5.6162089,23.543201 5.603701,23.497104 5.5911936,23.451006 5.577984,23.404058 5.5640334,23.356297 5.5500826,23.308535 5.5353909,23.25996 5.5199188,23.210608 5.5044467,23.161257 5.4881946,23.11113 5.4711226,23.060264 5.4540513,23.009397 5.4361602,22.957792 5.4174109,22.905486 5.398661,22.853179 5.3790528,22.800171 5.3585467,22.7465 5.3380411,22.692828 5.3166375,22.638492 5.2942972,22.583529 5.2719567,22.528566 5.2486794,22.472977 5.2244263,22.416798 5.2001728,22.36062 5.1749434,22.303852 5.1486988,22.246532 5.1224545,22.189211 5.0951949,22.13134 5.0668808,22.072953 5.0385669,22.014566 5.0091987,21.955665 4.9787371,21.896286 4.9482751,21.836907 4.9167199,21.777051 4.884032,21.716755 4.8513441,21.65646 4.8175237,21.595723 4.7825315,21.534585 4.747539,21.473447 4.711375,21.411905 4.674,21.349999 4.6600938,21.332531 4.6442013,21.312514 4.6264408,21.290073 4.6086805,21.267632 4.5890522,21.242765 4.5676744,21.215598 4.5462971,21.188431 4.5231702,21.158961 4.4984124,21.127315 4.4736547,21.095667 4.4472661,21.061841 4.4193654,21.02596 4.3914645,20.99008 4.3620512,20.952144 4.3312445,20.912275 4.3004372,20.872407 4.2682362,20.830607 4.2347603,20.786999 4.2012839,20.743389 4.1665323,20.697971 4.1306238,20.650868 4.0947156,20.603765 4.0576503,20.554976 4.019547,20.504624 3.9814434,20.454273 3.9423015,20.402359 3.9022398,20.349006 3.8621783,20.295652 3.8211968,20.240859 3.7794139,20.184751 3.7376311,20.128641 3.6950469,20.071217 3.6517799,20.012598 3.6085129,19.95398 3.564563,19.894169 3.5200489,19.833288 3.4755347,19.772408 3.4304562,19.710457 3.3849318,19.647559 3.3394077,19.584662 3.2934375,19.520819 3.2471399,19.45615 3.2008424,19.391483 3.1542177,19.325993 3.1073842,19.259801 3.0605502,19.19361 3.0135078,19.126719 2.9663749,19.05925 2.8721094,18.924312 2.7774825,18.787066 2.6834421,18.648497 2.5894017,18.509927 2.4959483,18.370034 2.4040294,18.229804 2.3121104,18.089574 2.2217259,17.949005 2.1338243,17.809084 2.0898738,17.739124 2.0465436,17.669326 2.0039525,17.599812 1.9613614,17.530298 1.9195099,17.46107 1.8785157,17.392249 1.8375216,17.323429 1.7973847,17.255017 1.7582245,17.187136 1.7190642,17.119256 1.6808801,17.051907 1.6437907,16.985211 1.6067014,16.918517 1.5707064,16.852476 1.5359244,16.787214 1.501143,16.721951 1.4675746,16.657467 1.4353375,16.593883 1.403101,16.530298 1.3721957,16.467615 1.3427405,16.405956 1.3132858,16.344297 1.2852812,16.283663 1.2588449,16.224174 1.2324085,16.164687 1.207541,16.106346 1.184361,16.049276 1.1611805,15.992206 1.1396875,15.936406 1.1199999,15.882 1.0735626,15.786562 1.0285544,15.690739 0.98497915,15.594538 0.94140387,15.498337 0.89926052,15.40176 0.85855293,15.304816 0.81784487,15.207873 0.77857161,15.110563 0.74073648,15.012897 0.70290136,14.915233 0.66650391,14.817211 0.63154697,14.718843 0.59659004,14.620477 0.56307316,14.521764 0.53099966,14.422715 0.49892616,14.323667 0.46829605,14.224283 0.43911123,14.124574 0.40992689,14.024865 0.38218832,13.924831 0.35589743,13.824482 0.32960749,13.724133 0.3047657,13.623468 0.28137493,13.522501 0.25798464,13.421532 0.23604488,13.320257 0.21555901,13.218689 0.1950736,13.117123 0.17604208,13.015259 0.15846634,12.913113 0.14089155,12.810966 0.12477303,12.708536 0.11011362,12.605831 0.095454216,12.503126 0.082253933,12.400148 0.070515633,12.296906 0.058777332,12.193665 0.048501015,12.090158 0.039689064,11.986399 0.03087759,11.882639 0.023530483,11.778627 0.017650604,11.67437 0.011770725,11.570114 0.0073580742,11.465616 0.0044155121,11.360884 0.0014724731,11.256151 0,11.151188 0,11.046 0,10.950829 0.0012049675,10.855932 0.0036001205,10.761332 0.0059952736,10.666727 0.0095806122,10.572416 0.014341831,10.478413 0.01910305,10.384409 0.02504015,10.29071 0.032138824,10.197334 0.039237022,10.103958 0.047496796,10.010902 0.056902885,9.9181824 0.066309452,9.8254623 0.076862812,9.733078 0.088548183,9.6410427 0.10023355,9.5490093 0.11305141,9.457325 0.12698698,9.3660049 0.14092255,9.2746868 0.15597534,9.1837311 0.17213154,9.0931568 0.18828821,9.0025806 0.20554829,8.9123859 0.22389603,8.8225842 0.24224472,8.7327824 0.26168203,8.6433735 0.28219271,8.5543747 0.30270481,8.465374 0.32429028,8.3767834 0.3469348,8.2886143 0.36958027,8.2004471 0.39328527,8.1127014 0.41803503,8.0253944 0.44278526,7.9380875 0.46858072,7.8512173 0.49540615,7.7647991 0.52223253,7.678381 0.55008888,7.5924149 0.57896137,7.506916 0.60783434,7.4214172 0.63772297,7.3363857 0.66861343,7.2518349 0.6995039,7.167284 0.73139572,7.0832138 0.76427507,6.9996395 0.79715443,6.9160671 0.83102036,6.8329887 0.86585951,6.7504215 0.90069818,6.6678543 0.93650961,6.5857983 0.973279,6.5042648 1.0100489,6.4227333 1.0477762,6.3417263 1.0864477,6.2612591 1.1251187,6.1807919 1.1647334,6.1008644 1.2052774,6.0214901 1.245821,5.9421158 1.2872939,5.8632965 1.3296809,5.7850456 1.3720689,5.7067947 1.4153709,5.6291142 1.4595723,5.5520153 1.5037746,5.4749165 1.5488768,5.3984013 1.5948639,5.3224831 1.6408515,5.2465649 1.6877246,5.1712456 1.7354684,5.0965385 1.7832127,5.0218296 1.8318276,4.9477348 1.8812985,4.8742676 1.9307704,4.8008003 1.9810982,4.7279587 2.032268,4.6557579 2.0834379,4.583559 2.1354499,4.512001 2.1882892,4.4410992 2.2411284,4.3701973 2.294795,4.2999516 2.3492746,4.2303772 2.4037542,4.1608028 2.4590468,4.091898 2.5151377,4.0236797 2.6273198,3.8872414 2.7426958,3.7535439 2.8611488,3.6227036 2.9796023,3.4918652 3.1011329,3.3638821 3.225625,3.2388744 3.3501172,3.1138668 3.4775708,2.9918327 3.6078699,2.8728905 3.6730192,2.8134193 3.7388802,2.7547207 3.8054378,2.6968079 3.8719952,2.6388969 3.9392498,2.5817719 4.0071864,2.5254498 4.0751231,2.4691277 4.1437421,2.4136066 4.2130289,2.358902 4.2823157,2.3041973 4.3522701,2.250309 4.4228783,2.1972523 4.4934859,2.1441956 4.5647469,2.0919685 4.6366465,2.0405884 4.7085466,1.9892082 4.7810853,1.938673 4.8542483,1.888998 4.9274111,1.839323 5.0011981,1.7905083 5.075595,1.7425671 5.1499916,1.6946278 5.2249981,1.647562 5.3006001,1.6013851 5.3762016,1.5552082 5.4523985,1.509922 5.5291761,1.465538 5.6059538,1.421154 5.6833122,1.3776741 5.7612364,1.3351135 5.8391612,1.2925529 5.9176518,1.2509098 5.9966943,1.2101994 6.0757365,1.1694889 6.1553305,1.1297112 6.2354618,1.0908833 6.3155928,1.0520535 6.3962611,1.0141697 6.4774518,0.97725105 6.558643,0.94033051 6.6403565,0.90437126 6.7225779,0.86939049 6.8047999,0.83440971 6.8875297,0.80040359 6.970753,0.7673912 7.0539765,0.73437691 7.1376935,0.70235443 7.2218896,0.67133713 7.3060856,0.64032173 7.3907608,0.6103096 7.4759007,0.58131981 7.5610403,0.55233002 7.6466447,0.52435875 7.7326989,0.49742317 7.8187534,0.47048759 7.9052579,0.44458771 7.9921978,0.41973686 8.0791378,0.39488602 8.1665133,0.37108421 8.2543099,0.34834671 8.3421065,0.32560921 8.4303241,0.303936 8.5189482,0.28334045 8.6075722,0.26274681 8.6966028,0.24322891 8.7860255,0.22480583 8.8754481,0.20638275 8.9652627,0.18905449 9.0554545,0.17283058 9.1456468,0.15660858 9.2362163,0.14149475 9.3271492,0.12750244 9.4180815,0.11351013 9.509377,0.10064125 9.6010208,0.088907242 9.6926649,0.07717514 9.7846572,0.066577911 9.8769836,0.057134628 9.96931,0.047689438 10.06197,0.039396286 10.15495,0.032268524 10.24793,0.02514267 10.341229,0.019180298 10.434833,0.014400482 10.528437,0.0096187592 10.622346,0.0060195923 10.716545,0.0036144257 10.810745,0.001209259 10.905234,0 11,0z" />
  </g>
</svg>

