<?xml version="1.0" encoding="utf-8"?>
<svg xmlns="http://www.w3.org/2000/svg" height="128" width="128" viewBox="0 0 128 128">
  <g>
    <path id="path1" transform="rotate(0,64,64) translate(12.7999992370605,0) scale(4,4)  " fill="#FFFFFF" d="M4.3999673,11.899994C4.8999678,11.899994 5.3999683,12.199997 5.3999683,12.199997 6.5999819,13 9.3999721,13.099991 9.3999721,13.099991 9.6999599,16.5 12.899976,16.5 12.899976,16.5 12.099987,22.5 8.8999721,21.399994 8.8999721,21.399994 4.2999918,20.099991 3.2999908,15 3.2999906,15 2.7999903,12.399994 3.5999788,11.899994 4.3999673,11.899994z M19.199968,11C22.199972,11 22.399985,13.099991 22.399985,13.099991 23.099997,17.699997 18.899981,20.699997 18.899981,20.699997 15.199966,23.299988 15.399978,20 15.399978,20 15.59999,18.599991 14.599989,16 14.599989,16 17.599993,14.299988 16.300003,11.399994 16.300003,11.399994 17.500017,11.099991 18.399981,11 19.199968,11z M12.899976,10.099991C14.399977,10.099991 15.699966,11.299988 15.699966,12.899994 15.699966,14.399994 14.500013,15.699997 12.899976,15.699997 11.399974,15.699997 10.099985,14.5 10.099985,12.899994 10.199961,11.299988 11.399974,10.099991 12.899976,10.099991z M13.000013,3.0999908C15.09999,3.0999908 16.800003,3.8999939 16.800003,3.8999939 20.899983,5.6999969 18.000017,7.1999969 18.000017,7.1999969 16.699967,7.6999969 14.899978,9.8999939 14.899978,9.8999939 11.899975,8.1999969 10.099985,10.699997 10.099985,10.699997 5.6999566,6.5999908 8.5000078,4.6999969 8.5000078,4.6999969 9.8999731,3.5 11.599986,3.0999908 13.000013,3.0999908z M12.799999,1.5C6.5999819,1.5 1.5999769,6.5 1.599977,12.699997 1.5000013,19 6.5999819,24 12.799999,24 19.000017,24 24.000023,19 24.000023,12.799988 24.000023,6.5999908 19.000017,1.5 12.799999,1.5z M12.799999,0C19.899983,0 25.600001,5.6999969 25.600001,12.799988 25.500025,19 21.000019,24.299988 15.000014,25.299988L14.899978,25.299988 14.899978,29 15.699966,29 15.699966,28.099991C15.699966,28,15.800002,27.899994,15.899979,27.899994L17.699968,27.899994C17.800005,27.899994,17.899981,28,17.899981,28.099991L17.899981,29 20.300007,29C20.69997,29,21.099995,29.399994,21.099995,29.799988L21.099995,32 4.2999918,32 4.2999918,29.799988C4.2999918,29.399994,4.6999556,29,5.0999805,29L7.5999829,29 7.5999829,28.099991C7.5999829,28,7.6999585,27.899994,7.7999951,27.899994L9.5999843,27.899994C9.6999599,27.899994,9.7999965,28,9.7999965,28.099991L9.7999965,29 10.50001,29 10.50001,25.299988 10.399973,25.299988C4.500004,24.299988 -1.4709076E-07,19 0,12.799988 -1.4709076E-07,5.6999969 5.6999566,0 12.799999,0z" />
  </g>
</svg>

