<?xml version="1.0" encoding="utf-8"?>
<svg xmlns="http://www.w3.org/2000/svg" height="128" width="128" viewBox="0 0 128 128">
  <g>
    <path id="path1" transform="rotate(0,64,64) translate(0,9.56199645996094) scale(4,4)  " fill="#FFFFFF" d="M23.632019,15.909C22.565002,15.909 21.700989,16.773015 21.700989,17.839971 21.700989,18.906011 22.565002,19.771001 23.632019,19.771001 24.697998,19.771001 25.562988,18.906011 25.562988,17.839971 25.562988,16.773015 24.697998,15.909 23.632019,15.909z M8.4589844,15.909C7.3930054,15.909 6.5280151,16.773015 6.5280151,17.839971 6.5280151,18.906011 7.3930054,19.771001 8.4589844,19.771001 9.526001,19.771001 10.390991,18.906011 10.390991,17.839971 10.390991,16.773015 9.526001,15.909 8.4589844,15.909z M16.919006,6.2520155L16.919006,12.320987 25.562012,12.320987 25.562012,6.2520155z M6.5280151,6.2520155L6.5280151,12.320987 15.171997,12.320987 15.171997,6.2520155z M28.506042,6.1610121L32,6.1610121 32,11.953982 28.506042,11.953982z M0,6.1610121L3.4949951,6.1610121 3.4949951,11.953982 0,11.953982z M11.861023,2.2069706L11.861023,3.5859994 20.229004,3.5859994 20.229004,2.2069706z M4.5969849,0L27.494019,0 27.494019,24.367988 25.562988,24.367988 25.562988,26.575019C25.562988,26.930976,25.275024,27.219001,24.919006,27.219001L22.161011,27.219001C21.80603,27.219001,21.517029,26.930976,21.517029,26.575019L21.517029,24.367988 10.481995,24.367988 10.481995,26.575019C10.481995,26.930976,10.195007,27.219001,9.8389893,27.219001L7.0800171,27.219001C6.7250366,27.219001,6.4370117,26.930976,6.4370117,26.575019L6.4370117,24.367988 4.5969849,24.367988z" />
  </g>
</svg>

