<?xml version="1.0" encoding="utf-8"?>
<svg xmlns="http://www.w3.org/2000/svg" height="128" width="128" viewBox="0 0 128 128">
  <g>
    <path id="path1" transform="rotate(0,64,64) translate(7.1860495583952,0) scale(3.9999995231629,3.9999995231629)  " fill="#FFFFFF" d="M21.600974,28.405994L21.600974,29.894003C21.600974,30.495997 22.090965,30.984954 22.692955,30.984954 23.293968,30.984954 23.783959,30.495997 23.783958,29.894003L23.783958,28.405994z M4.3539867,28.405994L4.3539867,29.893987C4.3539867,30.495992 4.8439789,30.984996 5.4459705,30.984996 6.0469618,30.984996 6.5369549,30.495992 6.5369549,29.893987L6.5369549,28.405994z M11.159987,21.30499L17.246952,21.30499 17.246952,23.333999 11.159987,23.333999z M21.677971,20.465969C20.655968,20.465969 19.823966,21.296974 19.823966,22.318981 19.823966,23.340988 20.655968,24.171993 21.677971,24.171993 22.698973,24.171993 23.530976,23.340988 23.530975,22.318981 23.530976,21.296974 22.698973,20.465969 21.677971,20.465969z M6.4599743,20.465969C5.4379826,20.465969 4.6059895,21.296974 4.6059895,22.318981 4.6059895,23.340988 5.4379826,24.171993 6.4599743,24.171993 7.4809666,24.171993 8.3129597,23.340988 8.3129597,22.318981 8.3129597,21.296974 7.4809666,20.465969 6.4599743,20.465969z M21.677971,19.450962C23.258975,19.450962 24.544978,20.73697 24.544978,22.318981 24.544978,23.899992 23.258975,25.187 21.677971,25.187 20.096967,25.187 18.809963,23.899992 18.809963,22.318981 18.809963,20.73697 20.096967,19.450962 21.677971,19.450962z M6.4599743,19.450962C8.0409622,19.450962 9.326952,20.73697 9.326952,22.318981 9.326952,23.899992 8.0409622,25.187 6.4599743,25.187 4.8789873,25.187 3.5919971,23.899992 3.5919971,22.318981 3.5919971,20.73697 4.8789873,19.450962 6.4599743,19.450962z M25.362941,18.261003L3.043972,18.261014 2.9403114,18.266251C2.4288979,18.318289,2.0289974,18.751003,2.0289974,19.276003L2.0289974,25.362997C2.0289974,25.921996,2.4839954,26.376996,3.0439949,26.376996L25.362961,26.376996C25.92296,26.376996,26.37796,25.921996,26.37796,25.362997L26.37796,19.276003C26.37796,18.716003,25.92296,18.261003,25.362961,18.261003z M25.363966,8.1159725L25.363966,15.217986 27.392974,15.217986 27.392974,8.1159725z M1.0149879,8.1159725L1.0149879,15.217986 3.043972,15.217986 3.043972,8.1159725z M5.0729685,7.1019936L5.0729685,16.232005 23.333944,16.232005 23.333944,7.1019936z M8.5049639,2.0290012C6.7903414,2.0290012,5.3648119,3.2929668,5.1125956,4.9389076L5.0955076,5.0729847 23.329462,5.0729847 23.317339,4.9139042C23.152647,3.2955074,21.783196,2.0290012,20.121948,2.0290012z M8.5049639,0L20.121948,0C23.011944,0,25.362941,2.3520012,25.362941,5.2420044L25.362941,7.1009693 28.406979,7.1009693 28.406979,16.231988 25.362941,16.231988C27.041959,16.232005,28.406957,17.597004,28.406957,19.276003L28.406957,25.362997C28.406957,27.040995,27.041959,28.405994,25.362961,28.405994L24.797997,28.405994 24.797997,29.894003C24.797997,31.054962 23.853966,31.999978 22.692955,31.999978 21.532005,31.999978 20.586997,31.054962 20.586997,29.894003L20.586997,28.405994 7.5509405,28.405994 7.5509405,29.893987C7.5509405,31.054997 6.6069546,32.000005 5.4459705,32.000005 4.2849865,32.000005 3.3400002,31.054997 3.3400002,29.893987L3.3400002,28.405994 3.0439949,28.405994C1.3659973,28.405994,0,27.040995,0,25.362997L0,19.276003C0,17.649472,1.2819557,16.317624,2.8876286,16.235972L3.043972,16.232006 0.00098419189,16.231988 0.00098419189,7.1009693 3.043972,7.1009693 3.043972,5.4610043C3.043972,2.4500008,5.493968,0,8.5049639,0z" />
  </g>
</svg>

